<?xml version="1.0" encoding="utf-8"?>
<!-- Generator: Adobe Illustrator 19.0.1, SVG Export Plug-In . SVG Version: 6.00 Build 0)  -->
<svg version="1.1" id="Layer_1" xmlns="http://www.w3.org/2000/svg" xmlns:xlink="http://www.w3.org/1999/xlink" x="0px" y="0px"
	 viewBox="0 0 640 640" style="enable-background:new 0 0 640 640;" xml:space="preserve">
<style type="text/css">
	.st0{clip-path:url(#SVGID_2_);fill:#010101;}
	.st1{fill:#FFFFFF;}
	.st2{clip-path:url(#SVGID_4_);fill:#010101;}
	.st3{fill:none;stroke:#000000;stroke-miterlimit:10;}
</style>
<g>
	<g>
		<defs>
			<polygon id="SVGID_1_" points="323.2,151.9 319.8,151.4 315.8,151.2 311.1,151.4 308.4,151.8 305.4,153.1 303.9,155.6 
				306.4,156.4 308.4,156.9 310,157.5 316.1,159.9 320.7,159.4 323.8,156.9 326.6,155.8 			"/>
		</defs>
		<clipPath id="SVGID_2_">
			<use xlink:href="#SVGID_1_"  style="overflow:visible;"/>
		</clipPath>
		<circle class="st0" cx="315.6" cy="154.1" r="6.6"/>
	</g>
</g>
<circle class="st1" cx="314.2" cy="154" r="1"/>
<g>
	<g>
		<defs>
			<polygon id="SVGID_3_" points="371.7,163.9 371.6,157 374.2,157.9 379.8,156 387,156.6 388.7,160 392.3,164.2 389.1,163.9 
				385.1,165.6 381.8,165.5 377.5,164.2 374.9,163.5 			"/>
		</defs>
		<clipPath id="SVGID_4_">
			<use xlink:href="#SVGID_3_"  style="overflow:visible;"/>
		</clipPath>
		<circle class="st2" cx="381.7" cy="159.9" r="6.4"/>
	</g>
</g>
<circle class="st1" cx="378.9" cy="159.6" r="1.1"/>
<path d="M378.3,65c0,0-0.7-7.7-5.7-13.7S359,45,350,35.3s-35.7,3-56.3-6.3c-20.7-9.3-32,26.3-50.3,24S208,106.3,209,112.3
	s2.7,43,2.7,43s4-11,9.3-12.3s17.7,8,17.7,8s5,7,6,10.3l13.7-5.3c0,0-0.7-12,1.7-15s-10.3-13.3-5.7-29.3c4.7-16,12-32.3,16-34.7
	c0,0,3,3,5.3,2c0,0,7.3-15.3,24.3-13.7c17,1.7,25.3-2,36.7-7.7C348,52,365,62.3,375.3,71.3c10.3,9,16,18.3,17,20.3
	S403.7,112,405,118s1,20.3,1,20.3s4,10.3,2.7,24.7c0,0,6.7-9.7,7-35.7c0.3-26,1.1-42-22-56.3C384,65,378.3,65,378.3,65z"/>
<path d="M369,149c0,0,4.3-0.3,5.3-8c0,0,1.7,2,0.3,4.7c0,0,11.3-5.3,16.7-5.3c5.3,0,13,3,13,3s0.3,8-5.7,7.7S384,148.3,369,149z"/>
<path d="M340,144.3c0,0-6-8.3-10-8.3s-10.7-2.3-14.7-2s-15.3,5.7-15.3,5.7s9.7,4.7,13.7,4.7S334,147.7,340,144.3z"/>
<g>
	<path d="M324.7,190.3c0,0-1.6,2.3-4.3,5.5c-1.3,1.6-2.9,3.5-4.6,5.4c-1.7,2-3.6,4-5.5,6c-0.5,0.5-1,1-1.5,1.5
		c-0.5,0.5-1.1,1-1.6,1.4c-1,0.9-1.9,1.8-2.8,2.7c-0.8,0.9-1.6,1.9-2.3,2.8c-0.7,0.9-1.2,1.9-1.7,2.8c-0.4,0.9-0.8,1.8-1.1,2.5
		c-0.1,0.4-0.2,0.8-0.3,1.1c-0.1,0.3-0.1,0.7-0.2,1c-0.1,0.6-0.1,1.1-0.2,1.4c0,0.3,0,0.5,0,0.5s0-0.2-0.1-0.5
		c0-0.3-0.2-0.8-0.1-1.4c0-0.3,0-0.7,0-1c0-0.4,0.1-0.8,0.1-1.2c0.1-0.4,0.2-0.9,0.3-1.4c0.1-0.5,0.3-1,0.5-1.5
		c0.4-1,0.9-2.1,1.5-3.1c0.6-1.1,1.3-2.1,2.2-3.2c0.8-1,1.8-2.1,2.8-3c0.5-0.5,1-0.9,1.5-1.4l1.4-1.5c1-1,1.9-2,2.9-3
		c0.9-1,1.9-1.9,2.8-2.9c1.8-1.8,3.6-3.6,5.1-5C322.5,192.2,324.7,190.3,324.7,190.3z"/>
</g>
<g>
	<path d="M391.3,232c0,0,0-0.1,0.1-0.4c0.1-0.2,0.1-0.6,0.2-1.1c0.1-0.5,0.2-1,0.2-1.7c0.1-0.6,0.1-1.4,0.1-2.2c0-0.8,0-1.6-0.1-2.5
		c-0.1-0.9-0.2-1.8-0.4-2.8c-0.2-0.9-0.5-1.9-0.8-2.8c-0.2-0.5-0.4-0.9-0.6-1.4l-0.7-1.4c-0.5-1-1-1.9-1.5-2.8
		c-0.5-0.9-1-1.8-1.6-2.6c-1-1.7-2.1-3.3-2.9-4.6c-1.8-2.7-3.1-4.4-3.1-4.4s1.8,1.3,4,3.7c1.1,1.2,2.3,2.7,3.5,4.3
		c0.6,0.8,1.2,1.7,1.8,2.6c0.6,0.9,1.1,1.9,1.6,2.8l0.7,1.5c0.2,0.5,0.4,1.1,0.6,1.6c0.4,1.1,0.6,2.1,0.7,3.2c0.2,1,0.2,2.1,0.2,3
		c0,1-0.1,1.9-0.3,2.7c-0.1,0.8-0.3,1.6-0.5,2.2c-0.2,0.6-0.4,1.2-0.6,1.6C391.6,231.5,391.3,232,391.3,232z"/>
</g>
<g>
	<path d="M404,218c0,0,0.2,0.3,0.5,0.9c0.1,0.3,0.3,0.7,0.5,1.1c0.2,0.4,0.3,1,0.5,1.5c0.2,0.6,0.3,1.2,0.4,1.9
		c0.1,0.7,0.2,1.4,0.2,2.1c0,0.7,0,1.5-0.1,2.3c0,0.8-0.2,1.6-0.4,2.3c-0.2,0.8-0.4,1.5-0.7,2.3c-0.3,0.7-0.6,1.4-0.9,2.1
		c-0.3,0.7-0.7,1.3-1,1.9c-0.3,0.6-0.7,1.1-1.1,1.6c-0.3,0.5-0.7,0.9-1,1.3c-0.3,0.4-0.6,0.7-0.8,0.9c-0.5,0.5-0.8,0.7-0.8,0.7
		s0.2-0.4,0.4-1c0.1-0.3,0.3-0.7,0.5-1.1c0.2-0.4,0.4-0.9,0.6-1.4c0.2-0.5,0.5-1.1,0.7-1.7c0.2-0.6,0.5-1.2,0.7-1.9
		c0.2-0.7,0.4-1.3,0.7-2c0.2-0.7,0.4-1.4,0.5-2.1c0.1-0.7,0.3-1.4,0.4-2.2c0.1-0.7,0.2-1.4,0.3-2.1c0.1-0.7,0.1-1.4,0.1-2
		c0-0.6,0-1.2,0-1.8C404.3,219.5,404,218,404,218z"/>
</g>
<g>
	<path d="M213.7,149c0,0-0.2,1.4-0.6,3.8c-0.4,2.4-0.9,5.9-1.3,10.1c-0.2,2.1-0.4,4.4-0.4,6.7c0,0.6,0,1.2,0.1,1.8
		c0.1,0.6,0.1,1.2,0.2,1.9c0.1,1.3,0.1,2.6,0.2,3.9c0.2,5.3,0.2,10.9,1.1,16.4c0.4,2.7,1.1,5.4,2.2,7.8c0.3,0.6,0.6,1.2,1,1.7
		c0.4,0.5,0.7,1,1.2,1.5c0.9,1,1.8,2,2.6,3c1.7,2,3.5,3.8,5.3,5.3c1.8,1.5,3.7,2.7,5.6,3.4c1.9,0.6,3.8,0.7,5.4,0.3
		c1.6-0.4,2.9-1.2,3.9-1.9c1-0.7,1.7-1.3,2.2-1.8c0.5-0.5,0.7-0.7,0.7-0.7s-0.2,0.3-0.7,0.8c-0.2,0.3-0.5,0.6-0.8,0.9
		c-0.3,0.4-0.7,0.7-1.2,1.1c-1,0.8-2.2,1.7-3.9,2.3c-1.7,0.6-3.8,0.7-6,0.1c-2.1-0.6-4.3-1.8-6.2-3.3c-2-1.5-3.8-3.4-5.6-5.3
		c-0.9-1-1.8-2-2.7-3c-0.5-0.5-0.9-1.1-1.4-1.7c-0.5-0.6-0.8-1.3-1.1-1.9c-1.3-2.6-2-5.5-2.5-8.3c-0.4-2.8-0.6-5.7-0.8-8.5
		c-0.1-2.8-0.1-5.5-0.1-8.2c0-1.3,0-2.6,0-3.8c0-0.6-0.1-1.3-0.1-1.9c0-0.7,0-1.3,0-1.9c0.1-2.5,0.4-4.8,0.8-6.9
		c0.7-4.2,1.5-7.6,2.1-10C213.3,150.4,213.7,149,213.7,149z"/>
</g>
<g>
	<path d="M237.3,214.7c0.8,1.1,1.5,2.4,2.2,3.7c0.6,1.3,1.2,2.6,1.7,3.9c0.5,1.3,0.9,2.7,1.3,4.1l0.5,2.1l0.4,2.1
		c0.2,1.4,0.4,2.8,0.6,4.2c0.2,1.4,0.2,2.8,0.3,4.3l0.6,8.5l2.2,34l0,0l0,0l-0.3,6.3l0-0.1c0.5,2.5,1.6,5,3,7.2
		c0.7,1.1,1.5,2.2,2.4,3.2c0.9,1,1.8,2,2.8,3c3.8,4,7.6,7.8,11.6,11.7c2,1.9,3.9,3.8,5.9,5.7c2,1.9,4,3.7,6.1,5.5
		c2.1,1.8,4.2,3.5,6.4,5c2.4,1.4,4.6,3.3,6.7,5c8.4,7.1,16.5,14.5,24.7,21.8c4.1,3.6,8.2,7.3,12.4,10.8c1,0.9,2.1,1.7,3.2,2.6
		c1.1,0.8,2.2,1.7,3.2,2.3c0.1,0.1,0.3,0.1,0.4,0.2l0.1,0.1l0,0c0,0,0,0-0.1,0c-0.2,0,0,0,0,0l0.2-0.1c0.2-0.1,0.4-0.1,0.5-0.2
		c0.7-0.2,1.4-0.3,2.1-0.4c1.4-0.2,2.8-0.3,4.2-0.3l-0.3,0.1c1.6-0.7,3.3-1.4,4.8-2.2c0.8-0.4,1.5-0.9,2.3-1.3
		c0.4-0.2,0.7-0.5,1.1-0.7c0.3-0.3,0.6-0.5,0.9-0.8l-0.2,0.5c0.3-1.9,0.9-3.6,1.5-5.4c0.6-1.7,1.3-3.4,2.1-5.1
		c0.8-1.6,1.7-3.3,2.6-4.8c0.9-1.6,1.7-3.1,2.5-4.7c1.6-3.2,3.1-6.5,4.5-9.8c1.4-3.3,2.8-6.6,4.2-10l4.1-10l1-2.5
		c0.3-0.8,0.6-1.7,0.9-2.5c0.6-1.7,1-3.4,1.4-5.2c0.4-1.8,0.7-3.5,0.9-5.3c0.2-1.8,0.3-3.6,0.4-5.4c0.2-3.6,0.4-7.2,0.3-10.8
		c0.2,3.6,0.2,7.2,0.1,10.8c-0.1,1.8-0.2,3.6-0.3,5.4c-0.2,1.8-0.4,3.6-0.8,5.4c-0.3,1.8-0.8,3.6-1.3,5.3c-0.3,0.9-0.5,1.7-0.9,2.6
		l-1,2.5c-1.3,3.4-2.6,6.8-3.9,10.1c-1.3,3.4-2.7,6.7-4.1,10c-1.4,3.3-2.8,6.7-4.4,9.9c-0.8,1.6-1.6,3.3-2.5,4.9
		c-0.9,1.6-1.7,3.1-2.5,4.7c-0.7,1.6-1.4,3.3-2,4.9c-0.6,1.7-1.1,3.4-1.3,5.1l-0.1,0.3l-0.2,0.2c-0.4,0.3-0.7,0.7-1.1,1
		c-0.4,0.3-0.8,0.6-1.2,0.8c-0.8,0.5-1.6,1-2.4,1.4c-1.6,0.9-3.3,1.6-5,2.4l-0.1,0.1l-0.2,0c-1.3,0-2.7,0.1-4,0.3
		c-0.6,0.1-1.3,0.2-1.9,0.4c-0.2,0-0.3,0.1-0.4,0.1l-0.2,0.1c-0.1,0-0.1,0.1-0.5,0.1c-0.5,0-0.7-0.1-0.9-0.2
		c-0.2-0.1-0.4-0.2-0.5-0.3c-1.3-0.7-2.4-1.6-3.5-2.4c-1.1-0.8-2.2-1.7-3.2-2.6c-4.2-3.5-8.4-7.1-12.5-10.8l-12.3-10.9
		c-4.1-3.6-8.2-7.3-12.4-10.8c-2.1-1.7-4.2-3.5-6.4-4.9c-2.4-1.6-4.5-3.4-6.6-5.2c-2.1-1.8-4.1-3.7-6.1-5.6c-2-1.9-4-3.8-5.9-5.7
		c-3.9-3.9-7.8-7.8-11.6-11.8c-0.9-1-1.9-2-2.8-3c-0.9-1.1-1.8-2.2-2.5-3.4c-0.8-1.2-1.4-2.5-1.9-3.8c-0.5-1.3-1-2.6-1.2-4.1l0-0.1
		l0-0.1l0.4-6.3l0,0.1l-1.7-34.1l-0.4-8.5c-0.1-1.4-0.1-2.8-0.2-4.3c-0.1-1.4-0.3-2.8-0.5-4.2l-0.4-2.1l-0.4-2.1
		c-0.3-1.4-0.7-2.7-1.1-4.1c-0.4-1.4-1-2.7-1.5-4C238.8,217.1,238.1,215.8,237.3,214.7z"/>
</g>
<g>
	<path d="M408.7,157.3c0.2,1.4,0.3,2.8,0.5,4.2c0.1,0.7,0.1,1.4,0.1,2.1c0,0.7,0,1.4-0.1,2.1l0,0c-0.1,1-0.2,2-0.3,3l-0.1,0.7
		c0,0.2-0.1,0.5-0.1,0.7c0,0.2,0,0.4,0,0.7c0,0.2,0.1,0.5,0.1,0.7c0.2,0.9,0.5,1.9,0.6,2.9c0.2,1,0.2,2,0.2,3l0-0.2
		c1,2.8,1.5,5.7,1.8,8.6c0.4,2.9,0.5,5.9,0.4,8.8l-0.1,2.2l-0.2,2.2c0,0.7-0.2,1.5-0.3,2.2l-0.1,1.1l-0.1,1.1
		c-0.2,1.5-0.2,2.8-0.2,4.2c0.1,1.4,0.1,2.9,0.2,4.3c0.2,2.9,0.5,5.8,0.7,8.7l0.1,2.2l0,2.2c0,1.5-0.1,2.9-0.2,4.4
		c-0.1,1.5-0.3,2.9-0.5,4.4c-0.3,1.5-0.6,2.9-0.9,4.3c-0.4,1.4-0.8,2.8-1.3,4.2l-1.6,4.1l-2,4c-0.3,0.7-0.7,1.3-1.1,1.9l-1.1,1.9
		c-0.4,0.6-0.8,1.3-1.2,1.9l-1.3,1.8c-0.9,1.2-1.7,2.4-2.6,3.6c-3.5,4.6-7.2,9.2-10.8,13.7c-1.8,2.3-3.7,4.5-5.6,6.7
		c-1.9,2.2-3.8,4.4-5.7,6.6c-1.9,2.2-3.9,4.3-5.9,6.5c-2,2.1-4,4.3-6.1,6.3l0,0l0,0c-1.4,0.9-2.9,1.7-4.4,2.4
		c-1.5,0.7-3.1,1.3-4.7,1.8c-0.8,0.2-1.6,0.5-2.4,0.7c-0.8,0.2-1.6,0.3-2.5,0.5l-1.2,0.1c-0.4,0.1-0.8,0-1.3,0c-0.4,0-0.8,0-1.2,0
		l-1.2-0.1l1.2,0c0.4,0,0.8,0,1.2,0c0.4,0,0.8,0,1.2-0.1l1.2-0.2c0.8-0.2,1.6-0.3,2.4-0.6c0.8-0.2,1.6-0.5,2.4-0.8
		c1.5-0.6,3.1-1.2,4.5-2c1.5-0.8,2.9-1.6,4.3-2.5l-0.1,0.1c3.9-4.2,7.8-8.6,11.5-13c3.7-4.4,7.4-9,11-13.5
		c3.6-4.5,7.2-9.1,10.7-13.7c0.9-1.2,1.7-2.3,2.5-3.5l1.2-1.8c0.4-0.6,0.7-1.2,1.1-1.8l1.1-1.8c0.4-0.6,0.8-1.2,1-1.9l1.9-3.8l1.6-4
		c0.5-1.3,0.8-2.7,1.3-4.1c0.3-1.4,0.6-2.8,0.9-4.2c0.2-1.4,0.4-2.8,0.5-4.2c0.1-1.4,0.2-2.8,0.2-4.3l0-2.1l-0.1-2.2
		c-0.1-2.9-0.4-5.8-0.6-8.7c-0.1-1.5-0.1-2.9-0.2-4.4c0.1-1.5,0.1-3,0.3-4.4l0.1-1.1l0.2-1.1c0.1-0.7,0.2-1.4,0.3-2.1l0.2-2.1
		l0.1-2.1c0.1-2.9,0.1-5.8-0.2-8.6c-0.3-2.9-0.8-5.7-1.6-8.5l0-0.1l0-0.1c0.1-1,0.1-1.9-0.1-2.9c-0.1-1-0.3-1.9-0.5-2.9
		c0-0.2-0.1-0.5-0.1-0.8c0-0.2,0-0.6,0-0.8c0.1-0.3,0.1-0.5,0.2-0.7l0.1-0.7c0.2-1,0.3-1.9,0.4-2.9l0,0l0,0c0.1-0.7,0.1-1.4,0.1-2
		c0-0.7,0-1.4,0-2.1C408.8,160.1,408.8,158.7,408.7,157.3z"/>
</g>
<path d="M371.6,287c0,0-6.1,13.4-14.2,16.6s-13.6,0.6-13.6,0.6s12.9-5.5,12.8-9.8s-14.5-1-14.5-1s-7.5,1.1-11.6-2.4
	c0,0,12.9,0.1,15.8-2.6s7.1-14.1,7.1-14.1s-2.8,11.1-2.2,12.5s5,3,8.4,1.4S367.6,283.5,371.6,287z"/>
<g>
	<path d="M244.7,223.3c0,0,0.2,0.8,0.5,2.2c0.3,1.4,0.7,3.4,1.3,5.7c0.3,1.2,0.6,2.5,0.9,3.8c0.3,1.3,0.7,2.8,1,4.2
		c0.3,1.5,0.8,3,1.2,4.5c0.4,1.5,0.8,3.1,1.3,4.6c0.5,1.5,0.9,3.1,1.4,4.6c0.5,1.5,0.9,3,1.4,4.4c0.5,1.4,0.9,2.8,1.5,4.1
		c0.5,1.3,0.9,2.5,1.4,3.6c0.5,1.1,0.9,2.1,1.3,3.1c0.4,0.9,0.8,1.7,1,2.3c0.6,1.3,0.9,2,0.9,2s-0.5-0.7-1.2-1.9
		c-0.4-0.6-0.9-1.3-1.4-2.2c-0.5-0.9-1-1.8-1.6-2.9c-0.6-1.1-1.1-2.3-1.7-3.6c-0.6-1.3-1.2-2.6-1.7-4.1c-0.6-1.4-1.1-2.9-1.6-4.4
		c-0.5-1.5-1-3.1-1.5-4.6c-0.4-1.6-0.8-3.2-1.2-4.7c-0.4-1.6-0.7-3.1-1-4.6c-0.3-1.5-0.6-3-0.8-4.3c-0.2-1.4-0.4-2.7-0.6-3.9
		C244.7,226.6,244.7,223.3,244.7,223.3z"/>
</g>
<g>
	<path d="M223,149.3c0,0-0.6,0.2-1.4,0.9c-0.4,0.3-0.9,0.7-1.3,1.3c-0.5,0.5-0.9,1.2-1.3,2c-0.4,0.8-0.7,1.6-0.9,2.6
		c-0.2,0.9-0.3,2-0.4,3c-0.1,1.1-0.1,2.3-0.2,3.5c-0.1,1.2-0.2,2.4-0.2,3.6c-0.1,1.2-0.2,2.4-0.3,3.6c-0.1,1.2-0.3,2.3-0.5,3.5
		c-0.4,2.2-0.9,4.3-1.3,6c-0.4,1.7-0.7,3.2-0.8,4.2c-0.1,1,0,1.6,0,1.6s0-0.1-0.1-0.4c-0.1-0.3-0.2-0.7-0.3-1.2
		c-0.2-1.1-0.1-2.6,0.1-4.4c0.1-0.9,0.2-1.9,0.3-2.9c0.1-1,0.2-2.1,0.4-3.2c0.1-1.1,0.2-2.3,0.3-3.4c0.1-1.2,0.2-2.4,0.3-3.5
		c0.1-1.2,0.2-2.4,0.3-3.6c0.1-1.2,0.2-2.3,0.4-3.5c0.1-1.2,0.4-2.3,0.7-3.3c0.3-1,0.8-2,1.3-2.8c0.5-0.8,1.1-1.4,1.7-1.9
		c0.6-0.5,1.2-0.8,1.6-1.1c0.5-0.2,0.9-0.4,1.2-0.4C222.8,149.3,223,149.3,223,149.3z"/>
</g>
<g>
	<path d="M234,171c0,0-0.2,0.6-0.7,1.4c-0.4,0.8-1.1,1.7-1.8,2.6c-0.7,0.9-1.4,1.7-1.9,2.3c-0.2,0.3-0.5,0.6-0.7,0.8
		c-0.2,0.2-0.3,0.3-0.3,0.3s-0.1-0.2-0.1-0.4c-0.1-0.3-0.1-0.7,0-1.2c0-0.2,0.1-0.5,0.2-0.8c0.1-0.3,0.2-0.5,0.3-0.8
		c0.1-0.3,0.3-0.5,0.4-0.8c0.2-0.3,0.3-0.5,0.5-0.8c0.8-1,1.7-1.7,2.6-2.2C233.3,171.1,234,171,234,171z"/>
</g>
<path d="M229.8,190.7l6,1.2c0,0,2,5.7-0.7,3.8C232.5,193.8,234.7,192.5,229.8,190.7z"/>
<g>
	<path d="M366.6,162c0.7-0.1,1.3-0.3,1.9-0.6c0.6-0.3,1.2-0.6,1.7-1c0.5-0.4,1-0.8,1.5-1.3l0.3-0.3l0.4-0.4c0.2-0.2,0.5-0.4,0.8-0.7
		c0.6-0.4,1.2-0.7,1.9-1c0.6-0.3,1.3-0.5,2-0.7c0.7-0.2,1.3-0.4,2-0.5c0.7-0.1,1.4-0.2,2.1-0.3c0.7-0.1,1.4-0.1,2.1-0.1
		c0.7,0,1.4,0,2.1,0.2c0.7,0.1,1.4,0.2,2.1,0.4c0.7,0.2,1.4,0.4,2,0.7c0.7,0.3,1.3,0.7,1.9,1.1c0.5,0.4,1.1,0.8,1.6,1.3
		c0.5,0.5,1.1,0.9,1.6,1.5c0.2,0.3,0.5,0.6,0.7,1.2c0.1,0.2,0.2,0.6,0.1,1.1c-0.1,0.2-0.2,0.5-0.4,0.7c-0.2,0.2-0.3,0.3-0.7,0.4
		l0.3-0.1c-0.6,0.4-1.1,0.6-1.7,0.9c-0.6,0.3-1.1,0.5-1.7,0.7c-0.6,0.2-1.2,0.4-1.8,0.5c-0.6,0.1-1.2,0.3-1.8,0.4
		c-0.6,0.1-1.2,0.2-1.8,0.2c-0.6,0.1-1.2,0-1.9,0c-0.6,0-1.3-0.1-1.8-0.2c-0.6-0.1-1.2-0.2-1.8-0.3c-1.2-0.2-2.4-0.6-3.5-1
		c-1.1-0.4-2.2-0.8-3.3-1.2C371.3,162.9,369,162.4,366.6,162z M366.6,162c1.2,0,2.4,0.1,3.6,0.2c1.2,0.1,2.4,0.3,3.5,0.5
		c1.2,0.2,2.3,0.6,3.5,0.9c1.1,0.3,2.2,0.5,3.4,0.7c0.6,0.1,1.1,0.1,1.7,0.2c0.6,0.1,1.1,0,1.7,0.1c0.6,0,1.1,0,1.7-0.1
		c0.6,0,1.1-0.1,1.7-0.2c1.1-0.2,2.2-0.5,3.2-0.9c0.5-0.2,1-0.4,1.5-0.7c0.5-0.2,1-0.5,1.4-0.8l0.3-0.1c-0.2,0-0.2,0.1-0.2,0.1
		c-0.1,0.1-0.1,0.1-0.1,0.2c0,0.1,0,0.2,0,0.1c0-0.1-0.2-0.3-0.4-0.5c-0.4-0.4-0.8-0.9-1.3-1.3c-0.5-0.4-1-0.8-1.5-1.2
		c-0.5-0.3-1-0.7-1.6-0.9c-0.5-0.3-1.1-0.5-1.7-0.7c-0.6-0.2-1.2-0.3-1.8-0.4c-0.6-0.1-1.3-0.2-1.9-0.2c-0.6,0-1.3-0.1-1.9,0
		c-0.6,0-1.3,0.1-1.9,0.1c-0.6,0.1-1.3,0.2-1.9,0.3c-0.6,0.1-1.3,0.3-1.9,0.5c-0.6,0.2-1.2,0.5-1.7,0.8c-0.3,0.1-0.5,0.3-0.8,0.5
		l-0.4,0.3l-0.4,0.3c-0.5,0.4-1.1,0.8-1.7,1.2C369.3,161.5,368,162,366.6,162z"/>
</g>
<g>
	<path d="M329.4,157.2c-0.2-0.6-0.6-1.1-0.9-1.5c-0.4-0.5-0.8-0.9-1.2-1.3c-0.5-0.4-0.9-0.7-1.4-1c-0.5-0.3-1-0.5-1.6-0.7
		c-0.5-0.2-1.1-0.4-1.6-0.5l-0.9-0.2c-0.1,0-0.3-0.1-0.4-0.1l-0.4-0.1c-0.6-0.1-1.2-0.1-1.7-0.2c-0.6,0-1.2-0.1-1.7-0.1
		c-0.6,0-1.2,0-1.7,0.1c-0.6,0-1.2,0.1-1.7,0.2c-0.6,0.1-1.1,0.2-1.7,0.3c-0.6,0.1-1.1,0.3-1.7,0.4c-0.6,0.2-1.1,0.3-1.6,0.5
		c-0.5,0.2-1.1,0.4-1.6,0.7c-0.5,0.2-1,0.5-1.5,0.8c-0.5,0.3-0.9,0.6-1.3,1l-0.1-1.6c0.9,0.6,1.9,1.1,2.9,1.6c1,0.5,2,1,3,1.4
		c1,0.4,2,0.8,3.1,1.2c0.5,0.1,1,0.3,1.6,0.4c0.5,0.1,1,0.2,1.6,0.3c0.5,0.1,1,0.1,1.6,0.1l1.7,0c1.1,0,2.2,0,3.3,0
		c1.1,0,2.2-0.2,3.3-0.4C327.4,158.3,328.4,157.8,329.4,157.2z M329.4,157.2c-0.4,0.4-0.9,0.7-1.4,1c-0.5,0.3-1,0.6-1.5,0.8
		c-1.1,0.4-2.2,0.7-3.3,0.9c-1.1,0.2-2.3,0.3-3.4,0.4l-1.7,0.1c-0.5,0-1.2,0.1-1.8,0c-2.4-0.1-4.6-0.9-6.8-1.7
		c-1.1-0.4-2.1-0.9-3.1-1.4c-1-0.5-2-1-3-1.7l-1.2-0.7l1.1-0.9l0.8-0.6l0.8-0.5c0.6-0.3,1.1-0.6,1.7-0.9c0.6-0.3,1.2-0.5,1.8-0.7
		c0.6-0.2,1.2-0.4,1.8-0.6c0.6-0.1,1.2-0.3,1.8-0.4c0.6-0.1,1.2-0.2,1.8-0.2c0.6,0,1.2-0.1,1.9-0.1c0.6,0,1.2,0,1.9,0
		c0.6,0,1.2,0.1,1.9,0.2c0.6,0.1,1.2,0.2,1.8,0.3l0.4,0.1c0.2,0,0.3,0.1,0.5,0.1l0.9,0.3c0.6,0.2,1.2,0.4,1.7,0.7
		c0.6,0.3,1.1,0.6,1.6,1c0.5,0.4,1,0.8,1.4,1.2C328.5,155,329.1,156.1,329.4,157.2z"/>
</g>
<g>
	<path d="M365.9,160.4c0,0,0.3-1.1,1.4-2.5c0.2-0.3,0.6-0.7,0.9-1c0.4-0.3,0.7-0.7,1.1-1c0.4-0.3,0.9-0.7,1.3-1
		c0.5-0.3,1-0.6,1.5-0.8c0.5-0.3,1.1-0.4,1.6-0.6c0.5-0.2,1.1-0.3,1.6-0.4c0.5-0.1,1-0.1,1.5-0.2c0.5-0.1,0.9,0,1.4,0
		c0.4,0,0.8,0,1.1,0.1c0.3,0.1,0.6,0.1,0.9,0.2c0.5,0.1,0.7,0.2,0.7,0.2s-0.3,0.1-0.7,0.2c-0.2,0.1-0.5,0.1-0.8,0.2
		c-0.3,0.1-0.7,0.2-1.1,0.3c-0.4,0.1-0.8,0.2-1.2,0.3c-0.4,0.1-0.9,0.3-1.3,0.4c-0.5,0.2-0.9,0.3-1.4,0.5c-0.5,0.2-1,0.4-1.4,0.6
		c-0.5,0.2-0.9,0.4-1.4,0.7c-0.4,0.2-0.9,0.5-1.3,0.7c-0.4,0.2-0.8,0.5-1.2,0.7c-0.4,0.3-0.7,0.5-1,0.7
		C366.7,159.6,365.9,160.4,365.9,160.4z"/>
</g>
<g>
	<path d="M394.9,157.1c0,0,0.2,0.1,0.6,0.3c0.4,0.2,0.9,0.6,1.5,1.1c0.6,0.5,1.2,1.1,1.8,1.9c0.6,0.8,1.1,1.6,1.6,2.5l0.2,0.3
		l0.1,0.3c0.1,0.2,0.2,0.5,0.3,0.6c0.1,0.1,0.2,0.3,0.3,0.5c0.1,0.1,0.2,0.3,0.4,0.4c0.3,0.2,0.5,0.5,0.8,0.7
		c0.1,0.1,0.3,0.2,0.5,0.2c0.2,0.1,0.3,0.1,0.5,0.2c0.6,0.2,1.2,0.2,1.7,0.1c0.4,0,0.7-0.1,0.7-0.1s-0.2,0.2-0.6,0.5
		c-0.4,0.3-1,0.6-1.8,0.7c-0.4,0-0.9,0-1.4-0.1c-0.5-0.1-1-0.4-1.4-0.7c-0.4-0.3-0.8-0.7-1.2-1.2c-0.2-0.2-0.3-0.4-0.4-0.6l-0.2-0.4
		l-0.2-0.3c-0.2-0.4-0.4-0.8-0.6-1.3c-0.2-0.4-0.4-0.8-0.6-1.2c-0.4-0.8-0.8-1.5-1.2-2.1C395.4,158,394.9,157.1,394.9,157.1z"/>
</g>
<g>
	<path d="M302.6,152.4c0,0-0.3,0.7-1,1.5c-0.7,0.8-1.8,1.8-3.1,2.4c-0.6,0.3-1.3,0.6-2,0.7c-0.3,0.1-0.7,0.1-1,0.2
		c-0.3,0-0.6,0-0.9,0c-0.3,0-0.5-0.1-0.8-0.1c-0.2,0-0.4-0.1-0.6-0.2c-0.3-0.1-0.5-0.2-0.5-0.2s0.2-0.1,0.5-0.2
		c0.3-0.1,0.7-0.3,1.1-0.5c0.4-0.2,1-0.5,1.5-0.7c0.5-0.3,1.1-0.6,1.7-0.9c1.2-0.6,2.4-1.2,3.3-1.5
		C301.9,152.6,302.6,152.4,302.6,152.4z"/>
</g>
<g>
	<path d="M294.6,158.6c0,0-0.2,0.1-0.6,0.3c-0.4,0.2-1,0.4-1.7,0.5c-0.7,0.2-1.6,0.3-2.5,0.3c-0.9,0-1.9,0-2.8-0.1
		c-1-0.1-1.9-0.3-2.8-0.5c-0.9-0.2-1.7-0.5-2.4-0.7c-0.7-0.2-1.2-0.5-1.6-0.7c-0.4-0.2-0.6-0.3-0.6-0.3s1-0.1,2.4-0.1
		c0.7,0,1.5,0,2.4,0.1c0.9,0.1,1.8,0.1,2.7,0.2c0.5,0.1,0.9,0.1,1.4,0.2c0.5,0.1,0.9,0.1,1.3,0.2c0.9,0.1,1.7,0.2,2.4,0.3
		c0.7,0.1,1.3,0.2,1.7,0.2C294.4,158.6,294.6,158.6,294.6,158.6z"/>
</g>
<g>
	<path d="M365.5,146.7c0,0-0.4,2.1-0.6,5.7c-0.1,1.8-0.3,4.1,0.1,6.5c0.2,1.2,0.6,2.5,1,3.9c0.4,1.4,0.8,2.8,1.2,4.4
		c0.8,3,1.5,6.4,2.3,9.9c0.8,3.5,1.9,7,3.7,10.4c0.5,0.8,1,1.6,1.5,2.4l0.2,0.3c0.1,0.1,0.1,0.1,0.2,0.3l0.5,0.6
		c0.3,0.4,0.6,0.8,1,1.3c0.6,0.9,1.2,1.8,1.6,2.8c0.2,0.5,0.4,1.1,0.5,1.7c0,0.3,0.1,0.6,0.1,0.9c0,0.3,0,0.7,0,0.9
		c-0.1,1-0.1,2.1-0.6,3.3c-0.5,1.3-1.6,2.1-2.5,2.6c-1,0.6-2,1-3,1.4c-1,0.4-2.2,0.7-2.7,1.1c-1.5,1-2.8,2.8-5,3.9
		c-1.1,0.6-2.3,0.8-3.6,0.7c-0.5-0.1-1-0.1-1.6-0.3c-0.6-0.1-1.2-0.3-1.6-0.5c-2.1-0.8-3.8-2.1-5.4-3.3c-1.6-1.3-3.1-2.6-4.6-3.8
		c-1.5-1.2-3-2.4-4.6-2.9c-0.1,0-0.2-0.1-0.3-0.1l-0.3-0.1c-0.2,0-0.5-0.1-0.7-0.1c-0.4,0-0.9-0.1-1.3-0.1c-0.9-0.1-1.8-0.1-2.7-0.2
		c-1.8-0.2-3.7-0.5-5.3-1.4c-1.7-0.9-2.8-2.5-3.2-4.1c-0.2-0.4-0.2-0.8-0.3-1.2l-0.1-0.6l0-0.6c0-0.4,0-0.8-0.1-1.2
		c0-0.4,0-0.7,0-1.1c0.2-1.5,0.7-2.9,1.6-4c0.9-1,2-1.7,3.1-2c1.1-0.4,2.1-0.5,3-0.5c1.9-0.1,3.3,0.2,4.3,0.3c1,0.2,1.5,0.3,1.5,0.3
		s-0.5-0.1-1.5-0.2c-1-0.1-2.4-0.2-4.2-0.1c-0.9,0.1-1.9,0.3-2.9,0.7c-1,0.4-2,1-2.7,2c-0.7,0.9-1.1,2.2-1.2,3.5
		c0,1.4,0.1,2.9,0.6,4.3c0.4,1.4,1.4,2.6,2.8,3.3c1.4,0.7,3,1,4.8,1.1c0.9,0,1.8,0.1,2.7,0.1c0.5,0,1,0.1,1.5,0.1
		c0.3,0,0.5,0.1,0.7,0.1l0.3,0.1c0.2,0,0.3,0.1,0.4,0.1c2.1,0.6,3.7,1.9,5.2,3.1c1.6,1.2,3.1,2.5,4.6,3.7c1.6,1.2,3.2,2.3,5,3
		c0.4,0.2,0.9,0.3,1.3,0.4c0.4,0.2,1,0.2,1.5,0.2c0.8,0.1,1.7-0.1,2.4-0.5c1.6-0.8,2.8-2.6,4.8-3.9c0.2-0.2,0.6-0.3,0.9-0.5
		c0.3-0.1,0.4-0.2,0.8-0.3c0.5-0.2,1-0.3,1.4-0.5c1-0.3,1.9-0.7,2.7-1.2c0.8-0.5,1.5-1,1.8-1.7c0.3-0.7,0.3-1.7,0.4-2.8
		c0-0.3,0-0.5,0-0.7c0-0.2,0-0.4-0.1-0.6c-0.1-0.4-0.2-0.9-0.4-1.3c-0.3-0.9-0.8-1.7-1.4-2.5c-0.3-0.4-0.6-0.8-0.9-1.2l-0.5-0.5
		c-0.1-0.1-0.2-0.2-0.3-0.3l-0.2-0.3c-0.6-0.9-1.1-1.7-1.6-2.6c-1.9-3.6-3-7.4-3.6-10.9c-0.7-3.6-1.3-6.9-1.9-9.9
		c-0.3-1.5-0.7-3-1-4.4c-0.3-1.4-0.7-2.7-0.8-4c-0.2-2.6,0-4.8,0.3-6.7c0.2-1.8,0.5-3.2,0.7-4.2
		C365.4,147.2,365.5,146.7,365.5,146.7z"/>
</g>
<path d="M319,225.2c0,0,18.2-2,23.2-3.2s9.5,1.8,11,2.2s8.2-2,11.8,0s9.5,4.5,12.2,4.5c0,0-8.5,5-22.8,2.8s-14-3.2-24.5-4
	S319,225.2,319,225.2z"/>
<path d="M309.8,226.8c0,0,10.5,7.5,34.2,9.8s30.2-0.5,35-3.5c0,0-6.2,15.2-16.5,14.5S324.8,243.8,309.8,226.8z"/>
<g>
	<path d="M323,384.5c0,0,0.5-0.6,1.5-1.6c1-1,2.5-2.3,4.3-3.8c0.9-0.7,2-1.5,3.1-2.3c1.2-0.8,2.4-1.5,3.8-2.2
		c0.3-0.2,0.7-0.3,1.1-0.4c0.4-0.2,0.8-0.3,1.2-0.4l0.6-0.2l0.7-0.1c0.2,0,0.4,0,0.7,0l0.6,0c1.6,0.1,3.2,0.3,4.8,0.6
		c1.6,0.3,3.1,0.6,4.7,0.9c1.5,0.3,3,0.7,4.5,1.1c1.4,0.4,2.8,0.8,4.1,1.3c1.3,0.4,2.5,0.9,3.6,1.4c1.1,0.4,2.1,1,3,1.4
		c0.9,0.5,1.6,0.9,2.2,1.3c0.6,0.4,1,0.8,1.3,1c0.3,0.2,0.4,0.4,0.4,0.4s-0.2-0.1-0.5-0.3c-0.3-0.2-0.8-0.5-1.4-0.8
		c-0.6-0.3-1.4-0.6-2.3-1c-0.9-0.3-1.9-0.7-3.1-1c-1.1-0.4-2.4-0.7-3.7-1c-1.3-0.3-2.7-0.7-4.1-1c-1.4-0.3-2.9-0.6-4.4-0.9
		c-1.5-0.3-3.1-0.6-4.6-0.8c-1.6-0.3-3.1-0.5-4.6-0.6l-0.6,0l-0.5,0l-0.5,0l-0.5,0.1c-0.7,0.1-1.3,0.4-2,0.6
		c-1.3,0.5-2.6,1.2-3.7,1.8c-1.2,0.7-2.3,1.3-3.2,2c-2,1.3-3.6,2.4-4.8,3.2C323.6,384,323,384.5,323,384.5z"/>
</g>
<g>
	<path d="M326.5,382.4c0,0,0,0.1,0.1,0.2c0.1,0.1,0.2,0.3,0.3,0.5c0.2,0.4,0.4,0.7,0.5,1.2c0.1,0.4,0.1,0.9,0,1.4
		c-0.1,0.4-0.3,0.8-0.3,0.8s-0.4-0.1-0.8-0.4c-0.4-0.3-0.8-0.8-0.9-1.4c-0.1-0.6,0-1.3,0.3-1.7c0.1-0.2,0.3-0.4,0.5-0.5
		C326.4,382.4,326.5,382.4,326.5,382.4z"/>
</g>
<g>
	<path d="M328,381c0,0,0.3,0.4,0.6,1.1c0.3,0.6,0.6,1.4,0.7,2.2c0.2,0.8,0.3,1.6,0.2,2.3c0,0.3,0,0.6-0.1,0.9c0,0.2-0.1,0.4-0.1,0.4
		s-0.5-0.3-0.9-0.8c-0.5-0.5-0.9-1.4-1.1-2.3c-0.2-0.9-0.1-1.8,0.1-2.5C327.6,381.4,328,381,328,381z"/>
</g>
<g>
	<path d="M329.9,379.6c0,0,0.3,1,0.6,2.3c0.1,0.7,0.3,1.5,0.5,2.3c0.1,0.4,0.2,0.8,0.3,1.2c0.1,0.2,0.1,0.3,0.2,0.5
		c0,0,0.1,0.1,0.1,0.1c0,0,0,0,0,0l0,0l0.1,0.1l0,0l0,0l0.1,0.1l0.1,0.1c0.1,0.1,0.3,0.3,0.4,0.5c0.1,0.2,0.2,0.3,0.2,0.4
		c0.1,0.1,0.1,0.3,0.2,0.4c0.2,0.5,0.3,1,0.4,1.4c0.2,0.9,0.3,1.8,0.3,2.5c0,1.5-0.2,2.4-0.2,2.4s-0.4-0.9-0.9-2.2
		c-0.2-0.6-0.5-1.4-0.8-2.2c-0.1-0.4-0.3-0.8-0.5-1.1c-0.1-0.2-0.2-0.3-0.3-0.4c0,0,0,0,0-0.1l-0.1-0.1l-0.1-0.1l0,0l0,0l0,0
		c-0.1-0.1,0.2,0.1,0.1,0.1l0,0c-0.2-0.1-0.4-0.3-0.6-0.5c-0.1-0.2-0.2-0.3-0.3-0.5c-0.1-0.3-0.3-0.6-0.3-0.8
		c-0.2-0.5-0.2-1-0.2-1.5c-0.1-0.9,0-1.8,0.1-2.5C329.5,380.6,329.9,379.6,329.9,379.6z"/>
</g>
<g>
	<path d="M331.8,378.9c0,0,0.1,0.3,0.2,0.9c0.1,0.5,0.3,1.3,0.5,2.3c0.2,0.9,0.5,2,0.9,3c0.1,0.3,0.2,0.5,0.3,0.7
		c0.1,0.1,0.1,0.2,0.2,0.3l0.3,0.4c0.2,0.2,0.4,0.8,0.5,1.1c0.1,0.3,0.2,0.7,0.3,1c0.3,1.3,0.4,2.6,0.6,3.8c0.1,1.2,0.2,2.3,0.3,3.2
		c0.1,0.5,0.1,0.9,0.2,1.3c0.1,0.4,0.1,0.7,0.2,0.9c0,0.1,0.1,0.2,0.1,0.3c0.1,0.1,0.1,0.2,0.1,0.2c0.1,0.1,0.1,0.2,0.1,0.2
		s-0.1,0-0.2-0.1c-0.1,0-0.2-0.1-0.2-0.2c-0.1-0.1-0.2-0.2-0.3-0.3c-0.2-0.2-0.4-0.5-0.6-0.9c-0.2-0.4-0.4-0.8-0.6-1.3
		c-0.4-0.9-0.7-2-0.9-3.2c-0.1-0.6-0.3-1.2-0.4-1.8c-0.1-0.6-0.2-1.2-0.4-1.8c-0.1-0.3-0.1-0.6-0.2-0.9c-0.1-0.3-0.1-0.4-0.2-0.7
		l-0.1-0.2l0-0.1l0,0l0,0c0-0.1,0.1,0.1,0,0.1l0,0l-0.1-0.1c-0.1-0.2-0.2-0.3-0.3-0.5c-0.2-0.3-0.3-0.7-0.4-1
		c-0.3-1.3-0.4-2.4-0.4-3.4C331.4,380.2,331.8,378.9,331.8,378.9z"/>
</g>
<g>
	<path d="M333.2,377.5c0,0,0.5,1.4,1.2,3.5c0.3,1,0.7,2.2,1.1,3.5c0.2,0.6,0.4,1.3,0.7,1.9c0.1,0.2,0.1,0.3,0.2,0.4
		c0.1,0.1,0.1,0.3,0.2,0.4l0.3,0.5l0.1,0.2l0.1,0.3c0.4,0.9,0.5,1.5,0.7,2.3c0.2,0.7,0.3,1.5,0.4,2.1c0.2,1.4,0.3,2.7,0.3,3.8
		c0.1,2.2-0.1,3.7-0.1,3.7s-0.5-1.4-1-3.6c-0.3-1.1-0.6-2.3-0.9-3.6c-0.2-0.7-0.3-1.3-0.5-2c-0.1-0.3-0.2-0.7-0.3-1
		c-0.1-0.3-0.2-0.7-0.3-0.9l-0.1-0.2l-0.1-0.2l-0.1-0.2c0-0.1,0.1,0.1,0,0.1l0,0l0,0l0,0l0-0.1l-0.1-0.2c-0.1-0.2-0.2-0.4-0.3-0.6
		c-0.1-0.2-0.2-0.4-0.2-0.6c-0.3-0.7-0.4-1.5-0.6-2.1c-0.3-1.4-0.5-2.7-0.6-3.8C333.1,379,333.2,377.5,333.2,377.5z"/>
</g>
<g>
	<path d="M334.9,376.2c0,0,0.9,1.4,1.8,3.7c0.2,0.6,0.5,1.2,0.7,1.8c0.2,0.7,0.5,1.4,0.7,2.1c0.2,0.7,0.5,1.5,0.7,2.3
		c0.2,0.8,0.4,1.6,0.6,2.4c0.2,0.8,0.3,1.6,0.5,2.4c0.2,0.8,0.2,1.6,0.4,2.4c0.1,0.8,0.2,1.5,0.2,2.2c0.1,0.7,0.1,1.4,0.1,2
		c0,0.6,0,1.2-0.1,1.7c0,0.5-0.1,0.9-0.1,1.3c-0.1,0.7-0.2,1.1-0.2,1.1s-0.1-0.4-0.2-1.1c0-0.4-0.1-0.8-0.2-1.3
		c-0.1-0.5-0.2-1-0.3-1.6c-0.1-0.6-0.3-1.2-0.4-1.9c-0.2-0.7-0.3-1.4-0.5-2.1c-0.4-1.5-0.7-3-1.1-4.6c-0.4-1.6-0.7-3.1-1.1-4.6
		c-0.3-1.5-0.6-2.9-0.9-4.1C335.1,377.9,334.9,376.2,334.9,376.2z"/>
</g>
<g>
	<path d="M336.8,375.5c0,0,0.1,0,0.3,0.1c0.2,0.1,0.5,0.3,0.7,0.7c0.3,0.3,0.5,0.8,0.8,1.3c0.2,0.5,0.5,1.1,0.7,1.7
		c0.5,1.3,0.9,2.8,1.3,4.5c0.4,1.7,0.7,3.4,0.9,5.2c0.1,0.9,0.2,1.8,0.3,2.7c0.1,0.9,0.2,1.8,0.2,2.6c0.1,1.7,0.2,3.3,0.2,4.6
		c0,2.7-0.2,4.5-0.2,4.5s-0.5-1.8-1-4.4c-0.2-1.3-0.5-2.9-0.8-4.5c-0.1-0.8-0.3-1.7-0.4-2.6c-0.1-0.9-0.2-1.8-0.4-2.6
		c-0.2-1.8-0.5-3.5-0.7-5.2c-0.1-0.8-0.2-1.6-0.3-2.4c-0.1-0.7-0.2-1.5-0.3-2.1c-0.2-1.3-0.5-2.4-0.7-3.1c-0.1-0.4-0.3-0.6-0.4-0.8
		C336.9,375.5,336.8,375.5,336.8,375.5z"/>
</g>
<path d="M345,407.2c0,0-1.1-10.8-0.6-17.2s-4.2-14.8-4.2-14.8"/>
<g>
	<path d="M343.5,375.5c0,0,1.5,1.8,3.1,4.9c0.4,0.8,0.8,1.6,1.2,2.6c0.4,0.9,0.8,1.9,1.1,3c0.1,0.3,0.1,0.5,0.2,0.8l0.1,0.4l0.1,0.4
		c0.1,0.5,0.2,1.1,0.2,1.7c0.1,1.2,0.2,2.3,0.2,3.5c0,1.2,0.1,2.3,0.1,3.4c0,1.1,0,2.3-0.1,3.3c-0.1,2.2-0.2,4.2-0.4,5.9
		c-0.3,3.4-0.7,5.7-0.7,5.7s-0.3-2.3-0.4-5.7c-0.1-1.7-0.2-3.7-0.3-5.9c0-1.1-0.1-2.2-0.1-3.3c0-1.1-0.1-2.3-0.1-3.4
		c0-1.1-0.1-2.3-0.2-3.4c0-0.5-0.1-1.1-0.2-1.6l0-0.4l-0.1-0.4c0-0.3-0.1-0.5-0.1-0.8c-0.4-2-1-3.9-1.6-5.5
		c-0.6-1.6-1.1-2.9-1.5-3.9C343.7,376,343.5,375.5,343.5,375.5z"/>
</g>
<g>
	<path d="M347.5,375.6c0,0,1.3,1.9,2.8,5.1c0.3,0.8,0.7,1.7,1,2.6c0.3,1,0.7,2,0.9,3.1c0.1,0.6,0.2,1.1,0.3,1.7
		c0.1,0.6,0.2,1.2,0.2,1.7c0.1,1.1,0.2,2.3,0.3,3.5c0,1.2,0.1,2.3,0.1,3.5c0,1.1,0,2.3,0,3.3c0,2.2-0.1,4.2-0.2,5.9
		c-0.2,3.5-0.5,5.8-0.5,5.8s-0.4-2.3-0.6-5.8c-0.2-1.7-0.3-3.7-0.4-5.9c-0.1-1.1-0.2-2.2-0.2-3.3c-0.1-1.1-0.1-2.3-0.2-3.4
		c0-1.1-0.1-2.3-0.2-3.4c0-0.6-0.1-1.1-0.1-1.6c-0.1-0.5-0.1-1.1-0.2-1.6c-0.3-2.1-0.8-4-1.3-5.7c-0.5-1.7-0.9-3-1.2-4
		C347.7,376.2,347.5,375.6,347.5,375.6z"/>
</g>
<g>
	<path d="M351.6,376.4c0,0,1.2,2,2.3,5.2c0.3,0.8,0.6,1.7,0.8,2.6c0.3,0.9,0.5,1.9,0.7,3c0.2,1.1,0.4,2.1,0.5,3.3
		c0.1,1.1,0.1,2.3,0.1,3.4c0,4.5,0,8.9,0,12.3c0,1.7,0,3.1,0.1,4c0,0.5,0.1,0.9,0.1,1.1c0.1,0.2,0.1,0.4,0.1,0.4
		c0,0-0.1-0.1-0.2-0.3c-0.1-0.2-0.3-0.6-0.4-1.1c-0.3-1-0.6-2.3-0.8-4c-0.3-1.7-0.5-3.6-0.6-5.7c-0.1-1.1-0.2-2.1-0.2-3.2
		c0-1.1-0.1-2.2-0.1-3.4c0-1.1,0-2.2-0.1-3.3c-0.1-1.1-0.1-2.1-0.3-3.1c-0.2-2-0.6-4-0.9-5.6C352.2,378.6,351.6,376.4,351.6,376.4z"
		/>
</g>
<g>
	<path d="M355.5,378.4c0.9,2.7,1.6,5.5,2.1,8.3c0.3,1.4,0.5,2.8,0.7,4.3c0.1,0.7,0.1,1.5,0.1,2.2l0.1,2.1c0.1,1.4,0.2,2.8,0.4,4.2
		l0.4,4.2c0.2,2.8,0.5,5.7,0.7,8.5l0.1,0.8l-0.8-0.1c-1.3-0.2-2.7-0.3-4-0.3c-0.7,0-1.3,0-2,0c-0.7,0-1.4,0.1-2,0.3
		c0.6-0.4,1.3-0.6,1.9-0.8c0.7-0.2,1.4-0.3,2.1-0.3c1.4-0.2,2.8-0.2,4.1-0.2l-0.7,0.7c-0.5-2.8-0.9-5.6-1.2-8.5l-0.4-4.3
		c-0.1-1.4-0.2-2.8-0.3-4.3c0-0.7,0-1.5,0-2.2c0-0.7,0-1.4,0-2.1c-0.1-1.4-0.2-2.8-0.3-4.2C356,384.1,355.7,381.2,355.5,378.4z"/>
</g>
<path class="st3" d="M246.8,279.9c0,0-6,8.4-6.4,18.1"/>
<path d="M240.1,297c0,0-11.6,9.8-17.9,18.5s-78.8,65.8-89.2,66.2s-72.2,44-81,73.2s-29.7,57.3-33.3,78h604c0,0-26.7-66.3-42.3-96
	c-15.7-29.7-28-39.7-32.3-45.7s-21.7-24-28.7-21l-37.7-19c0,0-7.7-5.3-21-4.7c0,0-73.3-23.3-84.3-39.3c0,0-1,5.8-2,7.1
	c0,0,2.8,5.5,1.9,22.2s-8.1,43.7-9.4,48.7c-1.3,5-2.3,6.7,0.2,7.7l-8.5,25.3l0.7,8l-3.7-8.2c0,0-10.8-11.7-13-12.8
	c-2.2-1.2-13.2-12.2-13.2-12.2s0.3-2.7-3-5.7c-3.3-3-51-40-51-40s-29-25.5-31-30.5s-7.2-9.7-6.3-11.3L240.1,297z"/>
</svg>
