<?xml version="1.0" encoding="utf-8"?>
<!-- Generator: Adobe Illustrator 19.0.1, SVG Export Plug-In . SVG Version: 6.00 Build 0)  -->
<svg version="1.1" id="Layer_1" xmlns="http://www.w3.org/2000/svg" xmlns:xlink="http://www.w3.org/1999/xlink" x="0px" y="0px"
	 viewBox="0 0 640 640" style="enable-background:new 0 0 640 640;" xml:space="preserve">
<style type="text/css">
	.st0{clip-path:url(#SVGID_2_);fill:#010101;}
	.st1{fill:#FFFFFF;}
	.st2{clip-path:url(#SVGID_4_);fill:#010101;}
</style>
<g>
	<path d="M251.3,178.2c1.2,2.9,2.2,5.8,3.2,8.8c0.5,1.5,0.9,3,1.2,4.6c0.3,1.6,0.3,3.2,0.4,4.7c0.2,3.1,0.4,6.2,0.7,9.3
		c0.2,1.5,0.4,3.1,0.7,4.6c0.3,1.5,0.6,3,1,4.5c0.4,1.5,0.9,2.9,1.5,4.3c0.3,0.7,0.7,1.4,1,2.1c0.4,0.7,0.7,1.3,1.1,2
		c0.7,1.3,1.5,2.7,2.4,4c0.8,1.3,1.7,2.6,2.6,3.8c1.8,2.5,3.7,4.9,5.7,7.3c2,2.4,4.1,4.6,6.3,6.8l0,0l0,0c2.1,2.7,4.4,5.4,6.7,8
		c2.3,2.6,4.7,5.1,7.2,7.6c2.5,2.4,5.1,4.8,7.8,6.9c0.7,0.5,1.4,1,2.1,1.5c0.7,0.5,1.5,0.9,2.2,1.4c0.8,0.4,1.5,0.8,2.3,1.2l1.2,0.5
		l1.2,0.4l-1.3-0.3l-1.3-0.4l-1.2-0.5l-1.2-0.6c-0.8-0.4-1.6-0.8-2.3-1.3c-0.8-0.4-1.5-0.9-2.2-1.4c-2.9-1.9-5.7-4.2-8.3-6.5
		c-2.6-2.3-5.1-4.8-7.5-7.4c-2.4-2.6-4.7-5.2-6.9-7.9l0.1,0.1c-2.2-2.2-4.4-4.5-6.4-6.9c-1-1.2-2-2.4-3-3.6c-1-1.2-1.9-2.5-2.8-3.8
		c-0.9-1.3-1.8-2.6-2.6-3.9c-0.9-1.3-1.7-2.7-2.4-4.1c-0.4-0.7-0.7-1.4-1.1-2.1c-0.3-0.7-0.7-1.4-1-2.2c-0.6-1.5-1.1-3-1.5-4.6
		c-0.4-1.5-0.7-3.1-0.9-4.7c-0.2-1.6-0.4-3.1-0.5-4.7c-0.3-3.1-0.3-6.3-0.4-9.4c0-1.6,0-3.1-0.2-4.6c-0.2-1.5-0.6-3-0.9-4.5
		C253.1,184.1,252.2,181.2,251.3,178.2z"/>
</g>
<path d="M359.7,18.7c0,0-10.3-19-31-15.7c0,0,17-1.7,26,12.3c0,0-30.3-23.7-77.7,4.3c0,0-19,11.3-29.7,27c0,0-31.7,32.7-28.3,46.7
	c0,0-10,25.3,11,45.3c0,0,2.3,0.3,4.7,6.3c2.3,6,12,25,12,25s3.3,13.3,4.3,14.3s3.3,3,3.3,3s-1.7-11.7-1.7-17c0-5.3,0.7-5.3,0.7-8.3
	s-4-5-3.7-10c0.3-5,2.7-13.3,1-20c-1.7-6.7,2.3-28.7,7-39c0,0,1.3,31.3-2.7,36.3c0,0,9-6.7,16.3-48c0,0-3,29.7-5.3,33.7
	c0,0,7-12,11.7-45.7c0,0,3.7-11,8.7-2s-5.7,53.3-9.3,54c0,0,6,0.3,10.3-29.3c4.3-29.7,2.7-14.3,2.7-14.3l5.7,35
	c0,0-5.7-39.7-2.7-44.3s1.7,11.7,1.7,11.7s1.7,18.7,3.3,24.3c0,0-2.7-31,0-36.7c0,0,0.7,40,4.7,43c0,0-4-48.3,12-49.3
	s41.7,12.3,53.7,44.3s10.9,46.8,24.9,52.6s18.5,17.2,18.2,20.2S401.2,198,396.2,189s0,1.2,0,1.2s-2,20.2-1.5,22.2c0,0,2.5-2.2,6.8,2
	s3.8,7,3.8,7s6.8-8.5,9.5-16s5.5-30.5,7.2-34.8s3.2-28.2,8.2-41s5-49.8-3-65.8S417,38.2,402.8,28s-14-20.5-34.2-14.2
	C368.5,13.8,365.6,15.3,359.7,18.7z"/>
<path d="M310.3,129.8c0,0-8.7,4.3-3,5.5c5.7,1.2,14.3-0.7,14.3-0.7s5.3-2.2,11.2-5.2c5.8-3,20.8,6.2,20.8,6.2s9.5,2,3.5-3
	c-6-5-13.8-8-22-7.7C327,125.3,316.3,127.3,310.3,129.8z"/>
<path d="M278.7,137.7c0,0-7.2-6.8-20.8-3.5c-13.7,3.3-9.2,14.3-9.2,14.3s0.2-8.3,6.2-9.3C260.8,138.2,262.8,144.2,278.7,137.7z"/>
<g>
	<path d="M283.8,179.5c-0.7,1-1.2,2.1-1.7,3.3c-0.4,1.1-0.8,2.3-0.8,3.5c0,0.3,0,0.6,0.1,0.8c0.1,0.3,0.1,0.5,0.2,0.8
		c0.1,0.2,0.2,0.5,0.4,0.7c0.2,0.2,0.3,0.4,0.5,0.6c0.2,0.2,0.4,0.3,0.7,0.5c0.2,0.1,0.5,0.2,0.8,0.3c0.5,0.2,1.1,0.3,1.7,0.4l0.2,0
		l0.2,0.2c1,1.1,2.2,2.1,3.3,3.1c0.6,0.5,1.2,1,1.8,1.4c0.6,0.5,1.2,0.9,1.8,1.3c0.3,0.2,0.6,0.4,0.9,0.5c0.3,0.2,0.6,0.3,1,0.4
		c0.3,0.2,0.6,0.2,0.9,0.3l0.4,0l0.1,0c0,0,0.1,0,0,0l0.1,0l0.3,0l4.6-0.3l0.2,0c-0.1,0,0,0,0.1,0c0.1,0,0.1,0,0.2,0
		c0.1,0,0.3-0.1,0.4-0.2c0.3-0.1,0.6-0.3,0.9-0.6c0.6-0.4,1.1-1,1.6-1.6c0.5-0.6,1-1.3,1.6-1.9c0.5-0.7,1.1-1.3,1.7-1.9
		c1.2-1.2,2.5-2.3,4-3.3c0.7-0.5,1.5-0.9,2.3-1.2c0.8-0.4,1.6-0.6,2.5-0.8c0.4-0.1,0.9-0.1,1.3-0.2l1.3,0c0.5,0,0.7,0,1-0.1
		c0.3-0.1,0.6-0.2,0.9-0.4c1.1-0.8,1.4-2.4,1.1-3.9c-0.2-1.5-0.9-3.1-1.8-4.4c-0.9-1.3-2.2-2.4-3.6-3.2c1.6,0.6,3,1.6,4.1,2.9
		c1.1,1.3,2,2.8,2.4,4.5c0.2,0.9,0.3,1.8,0.1,2.7c-0.2,0.9-0.6,1.9-1.4,2.5c-0.4,0.3-0.8,0.6-1.3,0.7c-0.4,0.2-1,0.2-1.4,0.3
		l-1.2,0.1c-0.4,0.1-0.8,0.1-1.1,0.2c-0.7,0.2-1.5,0.5-2.2,0.8c-0.7,0.3-1.4,0.7-2,1.2c-0.7,0.4-1.3,0.9-1.9,1.5
		c-0.6,0.5-1.2,1.1-1.7,1.6c-0.6,0.6-1.1,1.2-1.6,1.8c-0.5,0.6-1,1.2-1.5,1.9c-0.6,0.7-1.2,1.4-1.9,1.9c-0.4,0.3-0.8,0.5-1.2,0.8
		c-0.2,0.1-0.5,0.2-0.7,0.3c-0.1,0-0.3,0.1-0.4,0.1c-0.2,0-0.3,0-0.6,0l0.2,0l-4.6,0.3l-0.3,0l-0.1,0c-0.1,0-0.1,0-0.1,0l-0.2,0
		c-0.2,0-0.5,0-0.7-0.1c-0.4-0.1-0.9-0.2-1.3-0.4c-0.4-0.2-0.8-0.4-1.1-0.6c-0.4-0.2-0.7-0.4-1-0.6c-0.7-0.5-1.3-0.9-1.9-1.4
		c-0.6-0.5-1.2-1-1.8-1.6c-1.1-1.1-2.2-2.2-3.3-3.4l0.4,0.2c-0.6-0.1-1.3-0.3-1.9-0.6c-0.3-0.1-0.6-0.3-0.9-0.5
		c-0.3-0.2-0.6-0.4-0.8-0.6c-0.5-0.5-0.9-1.1-1.1-1.8c-0.1-0.3-0.1-0.7-0.2-1c0-0.3,0-0.7,0-1c0.2-1.3,0.6-2.5,1.2-3.6
		C282.3,181.5,283,180.4,283.8,179.5z"/>
</g>
<g>
	<path d="M279.2,188.2c-0.3,1-0.7,1.9-1.1,2.8c-0.4,0.9-0.9,1.8-1.3,2.7c-0.5,0.9-1,1.7-1.5,2.6c-0.5,0.8-1,1.7-1.6,2.5l-0.1,0.1
		l0,0c-0.2,0.2-0.4,0.4-0.6,0.7c-0.2,0.2-0.4,0.5-0.5,0.7c-0.3,0.5-0.6,1-0.8,1.5c0,0.1-0.1,0.3-0.1,0.4l-0.1,0.4c0,0.1,0,0.2,0,0.4
		c0,0.1,0,0.2,0.1,0.4c0,0.1,0.1,0.2,0.2,0.4c0,0.1,0.2,0.2,0.3,0.3c0.1,0.1,0.2,0.2,0.4,0.3l0.4,0.3l-0.5-0.1
		c-0.2,0-0.3-0.1-0.5-0.1c-0.2-0.1-0.4-0.1-0.5-0.3c-0.1-0.1-0.3-0.2-0.4-0.4c-0.1-0.2-0.2-0.3-0.3-0.5c-0.1-0.2-0.1-0.4-0.2-0.6
		l0-0.6c0-0.2,0-0.4,0-0.6c0-0.2,0.1-0.4,0.1-0.5c0-0.2,0.1-0.3,0.2-0.5c0.1-0.3,0.2-0.7,0.4-1c0.2-0.3,0.3-0.6,0.5-0.9
		c0.2-0.3,0.4-0.6,0.6-0.9l-0.1,0.1c0.5-0.9,1-1.7,1.6-2.5c0.5-0.8,1.1-1.6,1.7-2.4c0.6-0.8,1.2-1.6,1.8-2.3
		C277.8,189.6,278.4,188.9,279.2,188.2z"/>
</g>
<g>
	<path d="M324.3,176.5c0,0,2.4,1.1,5.8,3.1c1.7,1,3.7,2.1,5.8,3.4c1,0.6,2.2,1.3,3.2,2c1.1,0.7,2.2,1.4,3.3,2.1
		c1.1,0.7,2.2,1.4,3.3,2.2c1.1,0.8,2,1.7,2.9,2.7c0.9,1,1.6,2,2.1,3.1c0.5,1.1,0.7,2.4,0.5,3.5c-0.2,0.9-0.4,1.9-0.5,2.6
		c-0.2,0.8-0.3,1.5-0.4,2c-0.3,1.1-0.4,1.8-0.4,1.8s0-0.7,0-1.8c0-1.2,0.1-2.8,0.2-4.8c0-0.9-0.2-1.8-0.7-2.7
		c-0.5-0.9-1.2-1.8-2.1-2.6c-0.8-0.8-1.8-1.6-2.8-2.3c-1-0.7-2.1-1.4-3.2-2.1c-1.1-0.7-2.2-1.4-3.3-2.2c-1.1-0.7-2.1-1.4-3.1-2.1
		c-2-1.4-3.9-2.7-5.5-3.9C326.4,178.2,324.3,176.5,324.3,176.5z"/>
</g>
<path d="M277.2,207.7c0,0,3.2,1.5,4.8,0.8s12.3-3.3,16.7-3.2c4.3,0.2,6.2,0.3,9.7-0.8s11.5-3.7,25.2-3.2s12.3,0,12.3,0l-3.8,3.3
	c0,0-2.3-1.8-6.5-1.5c-4.2,0.3-11.7,2.5-17.3,4.2c-5.7,1.7-8,4-11.7,4.3c-3.7,0.3-11.5-2.2-16.7-1.3
	C284.7,211.2,277.3,208.7,277.2,207.7z"/>
<path d="M284.7,211.7c0,0,6.2,6.3,7.7,7.5c1.5,1.2,5.7,4.7,15.8,3.2c10.2-1.5,20.2-6.3,23.3-8.7c1.5-1.1,7.6-4.9,9.2-10.5
	c0.3-1.2,5.2-1.8,5.2-1.8s-3.5,7.2-6.8,11.2s-16.5,16.5-23.5,17.7c-7,1.2-12.8,1.8-18.7,0.8c-5.8-1-11.3-9-14-13.7
	c-2.7-4.7-5.7-9.7-5.7-9.7l6.2,2L284.7,211.7z"/>
<path d="M435.5,254c0,0-17.9,10.9-28.8,22s-32.5,28.2-32.5,28.2s-16.1,12-17.2,19.4c0,0-20,18.2-20.9,18.6s-3.4,1.4-7.5,10.4
	s-12.9,21.2-17,29.9c0,0-5.2-0.9-6.2-5.9c0,0-0.2-19,1.1-24.2s-2.2-6.5-6.9-18.2s0.1-11.9-7.8-34.5s-5.5-27.8-5.5-27.8
	s-13.6,5.8-15.8,8.9s-5,10.6-6.8,10.6S192,332,192,332s-19,11.8-27.5,24.8s-21,5.8-32.8,22.8s-46,61-49,79.5h542.9
	c0,0-9.3-54.3-26-85.3c-16.7-31-45-43.3-45-43.3s-96.7-51-116.3-73.3L435.5,254z"/>
<g>
	<path d="M435.5,254c-0.1-1.9-0.6-3.9-1.5-5.6c-0.4-0.9-1-1.6-1.7-2.3c-0.7-0.6-1.5-1.2-2.3-1.8c-3.1-2.3-6.1-4.8-8.9-7.4
		c-1.4-1.3-2.9-2.5-4.5-3.6c-1.6-1.1-3.3-2-5-2.8c-0.9-0.4-1.8-0.7-2.7-1.1c-1-0.5-1.7-1.4-2.1-2.3c-0.4-0.9-0.7-1.9-1-2.8
		c-0.3-0.9-0.6-1.8-0.9-2.7l0,0L404,220c-0.3-0.6-0.6-1.1-0.9-1.7c-0.2-0.3-0.3-0.6-0.5-0.8l-0.5-0.8c-0.3-0.5-0.7-1-1.1-1.5
		c-0.2-0.2-0.4-0.4-0.6-0.7c-0.2-0.2-0.4-0.4-0.7-0.6c-0.2-0.2-0.5-0.4-0.7-0.5c-0.3-0.1-0.5-0.3-0.8-0.4c-0.3-0.1-0.5-0.2-0.8-0.3
		c-0.3-0.1-0.5-0.1-0.8-0.1c-0.3,0-0.5,0-0.8,0.1c-0.2,0.1-0.5,0.2-0.7,0.3l0.2-0.5c0,4,0.5,7.9,1.3,11.8c0.2,1,0.4,2,0.6,2.9
		c0.3,0.9,0.5,2,0.7,3c0.3,2,0.5,4.1,0.1,6.2c-0.3,2.1-1.1,4.2-2.6,5.8l-2,2.3l-1.9,2.3c-2.5,3.1-4.9,6.3-7.1,9.6
		c-2.2,3.3-4.2,6.7-6.4,10.2c-0.6,0.9-1.1,1.7-1.8,2.5c-0.3,0.4-0.7,0.8-1.1,1.2c-0.4,0.3-0.7,0.7-1.1,1c-1.5,1.3-3,2.6-4.3,4.1
		c-2.7,2.9-5,6.1-7.1,9.5c-2.1,3.4-3.9,6.9-5.7,10.5c-0.9,1.8-1.7,3.6-2.5,5.4c-0.8,1.8-1.6,3.6-2.5,5.5c-0.9,1.8-1.6,3.7-2.6,5.5
		l-1.4,2.7c-0.5,0.9-1,1.8-1.5,2.6c-2,3.5-4.3,6.9-6.7,10.1c-2.4,3.3-5,6.4-7.6,9.4c-2.6,3.1-5.1,6.2-7.1,9.5
		c-0.4,0.9-0.9,1.7-1.3,2.6l-0.5,1.3l-0.3,0.7l-0.2,0.7c-0.2,0.9-0.5,1.9-0.7,2.9c-0.2,1-0.4,2-0.7,3c-1,3.9-2.2,7.8-3.6,11.6
		c-1.4,3.8-2.9,7.5-4.7,11.2l-1,2.2l-0.6-2.3c-0.3-1.3-0.6-2.5-0.8-3.8c-0.2-1.3-0.4-2.5-0.4-3.8c-0.1-1.3-0.1-2.6,0-3.9
		c0.1-1.3,0.3-2.6,0.6-3.9c0.3-1.3,1-2.6,1.9-3.6c0.9-1,1.4-1.9,1.8-3c0.4-1.1,0.4-2.2,0.1-3.3c-0.3-1.1-0.9-2.2-1.4-3.4
		c-0.3-0.7-0.4-1.3-0.6-1.9l-0.5-1.8l-1-3.6l-1-3.6c-0.4-1.2-0.6-2.5-1-3.7l-3.8-14.7l0-0.1l0-0.1c0.5-2.3,0.9-4.6,1.2-6.9
		c0.3-2.3,0.5-4.6,0.2-6.9c-0.1-1.1-0.6-2.2-0.8-3.4c-0.2-1.1-0.5-2.2-0.8-3.4c-0.6-2.3-1.2-4.5-1.9-6.8l-1.9-6.8
		c-0.3-1.1-0.6-2.3-0.9-3.4c-0.3-1.2-0.5-2.3-0.7-3.5c-0.5-2.3-0.9-4.6-1.3-6.9c-0.4-2.3-0.7-4.7-0.9-7c0.6,4.7,1.6,9.3,2.5,13.9
		c0.3,1.1,0.5,2.3,0.8,3.4c0.3,1.1,0.6,2.3,1,3.4l2.1,6.7c0.7,2.3,1.4,4.5,2,6.8c0.3,1.1,0.6,2.3,0.8,3.5c0.2,1.1,0.7,2.2,0.8,3.4
		c0.2,1.2,0.2,2.4,0.2,3.6c0,1.2-0.1,2.4-0.3,3.6c-0.3,2.4-0.7,4.7-1.1,7l0-0.3l4,14.6c0.3,1.2,0.7,2.5,1,3.6l1.1,3.6l1.1,3.6
		l0.5,1.8c0.2,0.6,0.3,1.3,0.5,1.7c0.5,1.1,1.2,2.2,1.5,3.6c0.4,1.3,0.4,2.8-0.1,4.2c-0.4,1.3-1.3,2.6-2,3.5
		c-0.7,0.9-1.2,1.9-1.5,3.1c-0.3,1.1-0.5,2.3-0.5,3.6c-0.1,1.2,0,2.4,0.1,3.7c0.1,1.2,0.2,2.5,0.4,3.7c0.2,1.2,0.4,2.5,0.7,3.6
		l-1.6-0.2c1.7-3.6,3.2-7.3,4.5-11c1.3-3.8,2.5-7.6,3.4-11.4c0.2-1,0.5-1.9,0.7-2.9c0.2-1,0.5-2,0.7-3l0.2-0.8l0.3-0.7l0.6-1.5
		c0.4-1,0.9-1.9,1.4-2.8c2.1-3.6,4.7-6.7,7.2-9.8c2.6-3.1,5.1-6.2,7.5-9.4c2.4-3.2,4.6-6.5,6.6-10c0.5-0.9,1-1.7,1.5-2.6l1.4-2.6
		c0.9-1.7,1.7-3.6,2.6-5.4c0.8-1.8,1.6-3.7,2.5-5.5c0.8-1.8,1.7-3.6,2.6-5.5c1.8-3.6,3.7-7.2,5.8-10.6c2.1-3.4,4.5-6.8,7.3-9.8
		c1.4-1.5,3-2.9,4.5-4.1c0.4-0.3,0.7-0.6,1.1-1c0.3-0.3,0.6-0.7,0.9-1c0.6-0.7,1.2-1.5,1.7-2.4c2.2-3.3,4.2-6.8,6.5-10.1
		c2.2-3.4,4.7-6.6,7.3-9.7l2-2.3l2-2.3c1.3-1.4,2-3.1,2.3-5c0.3-1.9,0.2-3.8-0.1-5.8c-0.2-1-0.4-1.9-0.6-2.9c-0.2-1-0.4-2-0.6-3
		c-0.7-4-1.2-8-1.2-12.1l0-0.3l0.2-0.2c0.4-0.3,0.7-0.4,1.1-0.5c0.4-0.1,0.7-0.1,1.1-0.1c0.4,0,0.7,0.1,1.1,0.2
		c0.4,0.1,0.7,0.2,1,0.4c0.3,0.1,0.6,0.3,0.9,0.5c0.3,0.2,0.5,0.4,0.8,0.6c0.3,0.2,0.5,0.4,0.7,0.7c0.2,0.2,0.5,0.5,0.7,0.7
		c0.4,0.5,0.8,1,1.2,1.6l0.5,0.8c0.2,0.3,0.3,0.6,0.5,0.8c0.3,0.6,0.7,1.1,0.9,1.7l0.8,1.8l0,0l0,0c0.3,0.9,0.6,1.9,0.9,2.8
		c0.3,0.9,0.5,1.9,0.9,2.7c0.3,0.8,0.9,1.5,1.7,1.9c0.8,0.4,1.8,0.7,2.7,1.2c3.6,1.7,6.8,4,9.6,6.6c1.4,1.3,2.8,2.6,4.3,3.9
		c1.5,1.3,3,2.5,4.5,3.7c0.8,0.6,1.5,1.2,2.3,1.8c0.7,0.7,1.3,1.5,1.7,2.4C435,250.1,435.4,252.1,435.5,254z"/>
</g>
<g>
	<path d="M285.2,245.5c0,0,0.9,1.3,2.5,3.5c0.8,1.1,1.8,2.4,3,3.9c1.2,1.5,2.5,3.1,4.1,4.8c0.8,0.8,1.7,1.6,2.7,2.3
		c0.5,0.4,0.9,0.6,1.5,0.8c0.6,0.2,1.2,0.5,1.9,0.8c2.4,1.2,4.8,2.6,7.5,3.5c2.7,0.9,5.6,1.3,8.5,1.2c0.7,0,1.5-0.1,2.2-0.2
		c0.7-0.1,1.4-0.2,2.2-0.3l2.3-0.5l2.1-0.7c2.8-1,5.5-2.5,8-4.1c2.5-1.6,4.9-3.4,7.1-5.3c2.2-1.9,4.2-3.8,6-5.7l0.3-0.4l0.2-0.2
		l0.2-0.2c0.2-0.2,0.4-0.5,0.6-0.7c0.4-0.5,0.8-1,1.1-1.5c0.7-1,1.4-2,2-3c2.5-3.9,4.4-7.3,5.6-9.7c0.6-1.2,1.1-2.2,1.4-2.8
		c0.3-0.7,0.4-1,0.4-1s-0.1,0.4-0.3,1.1c-0.2,0.7-0.6,1.7-1.1,3c-1.1,2.5-2.7,6.1-5,10.1c-0.6,1-1.2,2.1-1.9,3.1
		c-0.4,0.5-0.7,1.1-1.1,1.6c-0.2,0.3-0.4,0.5-0.6,0.8l-0.2,0.2l-0.2,0.2l-0.3,0.4c-1.8,2-3.8,4.1-6,6c-2.2,2-4.6,3.9-7.2,5.6
		c-2.6,1.7-5.4,3.2-8.4,4.4l-2.3,0.7l-2.3,0.5c-0.8,0.1-1.6,0.2-2.4,0.4c-0.8,0.1-1.6,0.1-2.4,0.2c-3.2,0.1-6.3-0.4-9.2-1.4
		c-2.9-1-5.3-2.6-7.6-3.8c-0.6-0.3-1.1-0.6-1.7-0.8c-0.6-0.3-1.3-0.6-1.8-1.1c-1.1-0.8-1.9-1.7-2.7-2.6c-1.6-1.8-2.8-3.5-3.9-5.1
		c-1.1-1.6-2-3-2.7-4.1C285.9,246.9,285.2,245.5,285.2,245.5z"/>
</g>
<g>
	<path d="M313.7,148.7c2.1-2,4.4-3.9,6.6-5.7c1.2-0.9,2.3-1.7,3.6-2.5c0.6-0.4,1.3-0.8,2-1.1c0.4-0.1,0.8-0.3,1.2-0.3
		c0.3-0.1,0.7-0.1,1.1-0.1c1.5-0.2,3-0.2,4.5-0.1c0.7,0,1.5,0.1,2.2,0.1c0.7,0.1,1.5,0.2,2.2,0.3c0.7,0.1,1.5,0.3,2.2,0.4
		c0.7,0.2,1.5,0.4,2.2,0.6c0.7,0.2,1.4,0.5,2.1,0.8c0.7,0.3,1.4,0.7,2,1.1l3,1.8l-3.6,0c-0.6,0-1.2,0.1-1.8,0.2
		c-0.6,0.1-1.2,0.2-1.8,0.4c-0.3,0.1-0.6,0.2-0.8,0.3l-0.4,0.2l-0.4,0.3c-0.6,0.4-1.2,0.7-1.9,1c-2.6,1.1-5.4,1.6-8.1,1.9
		c-0.7,0.1-1.4,0.2-2,0.2c-0.7,0.1-1.4,0.1-2,0.2c-1.4,0.1-2.7,0.1-4.1,0.1c-1.4,0-2.7,0-4.1,0C316.4,148.8,315,148.7,313.7,148.7z
		 M313.7,148.7l2-0.2l2-0.2c1.3-0.1,2.7-0.2,4-0.4l2-0.2l2-0.2l2-0.3c0.7-0.1,1.3-0.2,2-0.3c1.3-0.2,2.6-0.5,3.9-0.8
		c1.3-0.3,2.5-0.7,3.7-1.3c0.6-0.3,1.1-0.6,1.7-0.9l0.4-0.3l0.5-0.3c0.3-0.2,0.7-0.3,1-0.5c0.7-0.3,1.4-0.4,2.1-0.6
		c0.7-0.1,1.4-0.2,2.2-0.2l-0.5,1.8c-0.6-0.3-1.2-0.7-1.8-1c-0.6-0.3-1.3-0.5-1.9-0.8c-0.7-0.2-1.3-0.4-2-0.6
		c-0.7-0.2-1.4-0.3-2.1-0.4c-2.8-0.5-5.6-0.7-8.4-0.6c-0.3,0-0.7,0-1,0.1c-0.2,0-0.3,0-0.5,0.1c-0.1,0-0.3,0-0.4,0.1
		c-0.6,0.2-1.2,0.5-1.9,0.9c-1.3,0.7-2.5,1.4-3.7,2.2C318.4,145.3,316.1,147,313.7,148.7z"/>
</g>
<g>
	<path d="M283,151.7c0,0-0.8-0.4-2.2-1.1c-1.4-0.6-3.4-1.5-6-2.1c-0.6-0.1-1.3-0.3-2-0.4l-0.5,0l-0.3,0c-0.1,0,0.1,0,0.1,0l0,0l0,0
		l-0.1,0l-0.1,0c-0.4,0-0.8,0-1,0.1c-1.2,0.3-2.7,1-4.1,1.8c-1.4,0.8-2.8,1.8-4.1,2.8c-1.4,1-2.7,2.1-4.1,3.2l-0.5,0.4l-0.3,0.2
		c0,0-0.2,0.1-0.3,0.2l-0.2,0.1l-0.1,0l0,0c0.8-0.5,0.2-0.1,0.4-0.2c0,0-0.1,0.1,0.1-0.1c0.4-0.1,0.2-1.5-0.2-1.5l-0.2-0.1l0,0
		c-0.1,0-0.1,0,0,0l0.1,0l0.3,0l0.6,0.1c0.9,0.1,1.7,0.1,2.6,0.1c1.7,0,3.4,0.1,5.1,0.1c1.6,0,3.2-0.1,4.7-0.2
		c1.5-0.1,2.9-0.4,4.1-0.7c2.5-0.6,4.6-1.4,6.1-1.9C282.2,152,283,151.7,283,151.7z M283,151.7c0,0-0.7,0.5-2.1,1.3
		c-1.4,0.7-3.4,1.8-5.9,2.6c-1.3,0.4-2.7,0.8-4.3,1.1c-1.5,0.2-3.2,0.4-4.8,0.5c-1.7,0.1-3.4,0.1-5.2,0.1c-0.9,0-1.8,0-2.7-0.1
		l-0.7,0l-0.4,0l-0.2,0c0,0-0.1,0-0.2,0l-0.1,0c-0.1,0,0.1,0-0.2-0.1c-0.5,0-0.7-1.4-0.3-1.5c0.2-0.2,0.1-0.1,0.1-0.1l0.4-0.2l0,0
		l0,0c0,0,0,0,0,0c0,0-0.1,0,0,0l0.2-0.2l0.5-0.4c2.8-2.2,5.6-4.4,8.7-6c1.5-0.8,3-1.5,4.8-1.7c0.5-0.1,0.8-0.1,1.2-0.1l0.4,0l0.3,0
		l0.6,0.1c0.7,0.2,1.4,0.4,2.1,0.6c2.6,0.9,4.5,2.1,5.8,2.9C282.3,151.1,283,151.7,283,151.7z"/>
</g>
<g>
	<g>
		<defs>
			<polygon id="SVGID_1_" points="279.6,149.6 276.6,148.5 273.8,147.5 269.5,147.9 267.3,148.4 264.8,149.3 263.7,152.1 
				265.1,156.4 267.9,157.8 268.7,156.3 273.5,155.9 276.9,154.5 279.9,153.1 282.2,152.2 			"/>
		</defs>
		<clipPath id="SVGID_2_">
			<use xlink:href="#SVGID_1_"  style="overflow:visible;"/>
		</clipPath>
		<circle class="st0" cx="273.3" cy="150.9" r="6.3"/>
	</g>
</g>
<circle class="st1" cx="275.7" cy="150.9" r="0.8"/>
<g>
	<g>
		<defs>
			<polygon id="SVGID_3_" points="325.4,144.7 325.2,139.1 327.4,139.9 332.4,139.5 337.4,140.1 340.4,139.5 342,144.9 339.4,144.8 
				336.2,146.4 333.5,147 329.8,147.6 327.9,147.9 			"/>
		</defs>
		<clipPath id="SVGID_4_">
			<use xlink:href="#SVGID_3_"  style="overflow:visible;"/>
		</clipPath>
		<circle class="st2" cx="333.3" cy="142.9" r="6.3"/>
	</g>
</g>
<circle class="st1" cx="334.6" cy="142.9" r="0.9"/>
<g>
	<path d="M285.3,273.3c0,0-0.2-1-0.1-2.4c0.1-1.4,0.3-3.2,0.9-5c0.3-0.9,0.6-1.8,1-2.6c0.4-0.8,0.8-1.5,1.2-2.1
		c0.2-0.3,0.4-0.5,0.6-0.8c0.2-0.2,0.4-0.4,0.6-0.5c0.4-0.2,0.6-0.4,0.6-0.4s-0.1,0.2-0.3,0.6c-0.1,0.2-0.1,0.4-0.2,0.7
		c-0.1,0.2-0.2,0.6-0.3,0.9c-0.1,0.3-0.2,0.7-0.3,1c-0.1,0.4-0.2,0.8-0.3,1.2c-0.2,0.8-0.5,1.7-0.7,2.5c-0.5,1.7-1.1,3.4-1.7,4.7
		C285.8,272.5,285.3,273.3,285.3,273.3z"/>
</g>
<g>
	<path d="M291.5,272.8c0,0,3.7,12.2,7.4,24.5c0.9,3.1,1.8,6.1,2.7,9c0.4,1.4,0.8,2.8,1.2,4.1c0.4,1.3,0.8,2.6,1.1,3.7
		c0.7,2.3,1.2,4.2,1.6,5.6c0.3,1.4,0.5,2.1,0.5,2.1s-0.3-0.7-0.9-2c-0.6-1.3-1.4-3.1-2.3-5.4c-0.9-2.2-1.9-4.9-2.9-7.7
		c-0.5-1.4-1-2.9-1.5-4.4c-0.5-1.5-1-3-1.4-4.6c-0.9-3.1-1.8-6.2-2.5-9.1c-0.7-2.9-1.3-5.7-1.8-8c-0.5-2.4-0.8-4.3-1-5.7
		C291.6,273.6,291.5,272.8,291.5,272.8z"/>
</g>
<g>
	<path d="M347.2,328c0,0,0.2-0.4,0.7-1.2c0.5-0.8,1.1-2,2-3.5c1.7-3,4.2-7.2,7.2-12.2c3.1-5,6.8-10.8,10.9-16.9
		c2.1-3,4.2-6.2,6.5-9.3c1.1-1.6,2.3-3.1,3.5-4.7c1.2-1.6,2.5-3.1,3.7-4.6c1.3-1.5,2.6-3,3.8-4.5c0.6-0.7,1.3-1.5,1.9-2.2
		c0.6-0.8,1.1-1.5,1.7-2.3l0.8-1.1l0.8-1.2c0.5-0.8,1-1.6,1.5-2.4c0.9-1.6,1.8-3.2,2.5-4.9c1.5-3.3,2.7-6.6,3.5-9.8
		c0.2-0.8,0.4-1.6,0.6-2.4c0.2-0.8,0.3-1.6,0.4-2.3c0.3-1.5,0.4-3.1,0.6-4.5c0.1-1.4,0.2-2.8,0.3-4.2c0-1.3,0.1-2.6,0-3.8
		c-0.1-2.4-0.3-4.4-0.6-6.1c-0.1-0.8-0.3-1.6-0.4-2.3c-0.1-0.7-0.3-1.2-0.4-1.6c-0.2-0.9-0.3-1.4-0.3-1.4s0.1,0.5,0.4,1.3
		c0.1,0.4,0.3,1,0.5,1.6c0.2,0.7,0.3,1.4,0.5,2.2c0.4,1.7,0.7,3.8,0.9,6.1c0.2,1.2,0.2,2.5,0.2,3.8c0,1.4,0,2.8-0.1,4.3
		c-0.1,1.5-0.2,3-0.5,4.6c-0.1,0.8-0.2,1.6-0.4,2.4c-0.2,0.8-0.3,1.6-0.5,2.5c-0.8,3.3-1.8,6.8-3.4,10.2c-0.7,1.7-1.6,3.4-2.5,5.1
		c-0.5,0.8-1,1.7-1.5,2.5l-0.8,1.2l-0.9,1.2c-0.6,0.8-1.2,1.6-1.7,2.4c-0.6,0.7-1.2,1.5-1.9,2.2c-1.3,1.6-2.5,3-3.8,4.5
		c-1.2,1.5-2.5,3-3.7,4.5c-1.2,1.5-2.4,3.1-3.5,4.6c-2.3,3.1-4.5,6.1-6.6,9.1c-4.2,6-8.1,11.7-11.4,16.5c-3.3,4.9-6,9-7.9,11.8
		C348.3,326.4,347.2,328,347.2,328z"/>
</g>
<g>
	<path d="M380.5,297.2c0,0,0.5-1,1.5-2.8c1-1.7,2.3-4.2,4-7.2c1.7-3,3.7-6.4,5.9-10.1c1.1-1.8,2.2-3.7,3.4-5.6
		c1.2-1.9,2.4-3.8,3.5-5.8c1.2-1.9,2.4-3.8,3.6-5.7c0.3-0.5,0.6-0.9,0.9-1.4c0.3-0.5,0.6-0.9,0.8-1.4c0.3-0.5,0.6-0.9,0.8-1.4
		c0.2-0.5,0.5-0.9,0.7-1.4c0.9-1.8,1.6-3.7,2.1-5.6c0.5-1.8,0.8-3.6,1-5.3c0-0.4,0.1-0.8,0.1-1.2c0-0.4,0-0.8,0-1.2
		c0-0.8,0-1.5,0-2.2c-0.1-1.4-0.2-2.6-0.4-3.5c-0.2-1-0.3-1.7-0.5-2.2c-0.1-0.5-0.2-0.8-0.2-0.8s0.1,0.3,0.3,0.7
		c0.2,0.5,0.5,1.2,0.8,2.2c0.3,1,0.6,2.2,0.8,3.5c0.2,1.4,0.4,3,0.3,4.7c0,0.9-0.1,1.8-0.2,2.7c-0.1,0.9-0.3,1.9-0.5,2.9
		c-0.5,1.9-1,4-2,6c-0.2,0.5-0.5,1-0.7,1.5c-0.3,0.5-0.5,0.9-0.8,1.4c-0.3,0.5-0.6,1-0.8,1.5c-0.3,0.5-0.6,0.9-0.9,1.4
		c-1.2,1.9-2.4,3.8-3.5,5.8c-1.2,1.9-2.4,3.8-3.6,5.7c-1.2,1.9-2.4,3.7-3.5,5.5c-2.3,3.6-4.5,6.9-6.4,9.7c-1.9,2.8-3.5,5.2-4.7,6.8
		C381.2,296.3,380.5,297.2,380.5,297.2z"/>
</g>
<g>
	<path d="M411.5,232.5c0,0,0.6,0.4,1.5,1.2c0.9,0.9,2.1,2.2,3.2,4.2c0.5,1,1,2.1,1.3,3.3c0.3,1.2,0.5,2.6,0.7,3.9
		c0.2,1.3,0.4,2.6,0.7,3.9c0.3,1.4,0.6,2.8,0.8,4.2c0.2,1.5,0.1,3.1-0.3,4.6c-0.1,0.4-0.2,0.7-0.4,1.1c-0.2,0.3-0.3,0.7-0.5,1
		c-0.2,0.3-0.3,0.6-0.5,0.9c-0.2,0.3-0.4,0.6-0.6,0.9c-0.8,1.1-1.7,2.1-2.6,3c-0.9,0.9-1.7,1.7-2.5,2.4c-1.5,1.5-2.8,2.7-3.6,3.6
		c-0.4,0.5-0.7,0.9-0.8,1.2c-0.1,0.3-0.2,0.5-0.2,0.5s0-0.2,0.1-0.5c0-0.2,0.1-0.4,0.2-0.6c0.1-0.2,0.2-0.5,0.4-0.8
		c0.6-1.1,1.7-2.6,3.1-4.2c1.4-1.6,3-3.5,4.4-5.6c0.2-0.3,0.3-0.5,0.5-0.8c0.2-0.3,0.3-0.6,0.5-0.9l0.4-0.8c0.1-0.3,0.2-0.6,0.3-0.9
		c0.3-1.2,0.4-2.5,0.2-3.8c-0.2-1.3-0.5-2.7-0.7-4.1c-0.3-1.4-0.4-2.8-0.6-4.2c-0.1-1.4-0.1-2.6-0.4-3.7c-0.2-1.1-0.6-2.2-0.9-3.2
		c-0.8-1.9-1.7-3.4-2.5-4.4C412,233,411.5,232.5,411.5,232.5z"/>
</g>
<g>
	<path class="st1" d="M400.4,178.8c0,0,1.8-1.5,3.6,2s9.8,16.6,0.5,24.6l-5.2,0.6c0,0-1.8,0.2-3.7-2.6c0,0-0.8-4-0.4-7.3
		c0.2-2.7,0.5-5.4,0.5-6.5c0,0,1.4,2,2.2,2.3c0,0-1,7.7,2.8,10.8c0,0,8.7-4.8-0.1-22.2C400.1,179.3,400.4,178.8,400.4,178.8z"/>
	<path d="M400.4,178.8c0.5-0.4,1.3-0.4,1.9-0.1c0.6,0.3,1,0.9,1.4,1.4c0.7,1.1,1.3,2.3,1.9,3.4c1.2,2.3,2.3,4.8,3,7.4
		c0.3,1.3,0.6,2.6,0.6,3.9c0,0.7,0,1.3,0,2c-0.1,0.7-0.1,1.3-0.3,2c-0.3,1.3-0.8,2.6-1.5,3.8c-0.4,0.6-0.8,1.1-1.2,1.6
		c-0.4,0.5-0.9,1-1.4,1.4l-0.1,0.1l-0.1,0l-4.9,0.6l-0.3,0c-0.2,0-0.3,0-0.4,0c-0.2,0-0.5-0.1-0.7-0.2c-0.4-0.2-0.8-0.4-1.2-0.7
		c-0.7-0.5-1.3-1.2-1.8-1.9l-0.1-0.1l0-0.1c-0.2-1.2-0.4-2.3-0.4-3.5c-0.1-1.2-0.1-2.3,0-3.5l0.3-3.5c0.1-1.1,0.2-2.3,0.3-3.4
		l0.1-1.4l0.8,1.1c0.3,0.4,0.6,0.8,1,1.2c0.2,0.2,0.3,0.4,0.5,0.6c0.2,0.2,0.4,0.3,0.5,0.4l0.3,0.2l0,0.3c-0.1,0.9-0.1,1.9-0.1,2.8
		c0,0.9,0.1,1.9,0.3,2.8c0.3,1.8,1.1,3.6,2.5,4.8l-0.5,0c0.4-0.2,0.8-0.6,1.1-0.9c0.4-0.4,0.7-0.8,0.9-1.2c0.6-0.9,1-1.8,1.2-2.9
		c0.5-2,0.5-4.2,0.2-6.3c-0.1-0.5-0.2-1.1-0.3-1.6c-0.1-0.5-0.2-1-0.4-1.6c-0.3-1-0.6-2.1-1-3.1c-0.4-1-0.8-2-1.2-3l-0.7-1.5
		C400.3,179.8,400.2,179.3,400.4,178.8z M400.4,178.8c-0.2,0.5-0.1,1.1,0.2,1.6l0.7,1.4c0.5,1,0.9,2,1.3,3c0.8,2,1.5,4.1,1.9,6.2
		c0.4,2.1,0.4,4.4-0.1,6.5c-0.3,1.1-0.7,2.1-1.2,3.1c-0.3,0.5-0.6,0.9-1,1.4c-0.4,0.4-0.8,0.8-1.3,1.1l-0.2,0.1l-0.2-0.2
		c-0.8-0.7-1.4-1.5-1.9-2.4c-0.4-0.9-0.7-1.9-0.9-2.9c-0.2-1-0.3-2-0.3-3c0-1,0-2,0.1-3l0.3,0.5c-0.4-0.2-0.6-0.4-0.8-0.6
		c-0.2-0.2-0.4-0.4-0.6-0.6c-0.4-0.4-0.7-0.8-1-1.3l0.9-0.3c0,1.2-0.1,2.3-0.2,3.5l-0.3,3.5c-0.1,2.2,0.1,4.6,0.4,6.8l-0.1-0.2
		c0.4,0.7,1,1.3,1.5,1.7c0.3,0.2,0.6,0.4,1,0.5c0.2,0.1,0.3,0.1,0.5,0.1c0.1,0,0.2,0,0.2,0l0.3,0l4.9-0.5l-0.2,0.1
		c0.5-0.4,0.9-0.9,1.4-1.3c0.4-0.5,0.8-1,1.1-1.5c0.7-1.1,1.2-2.2,1.5-3.5c0.2-0.6,0.3-1.3,0.3-1.9c0-0.6,0.1-1.3,0-1.9
		c0-1.3-0.2-2.6-0.5-3.8c-0.6-2.5-1.6-5-2.7-7.3c-0.6-1.2-1.2-2.4-1.8-3.5c-0.3-0.5-0.7-1.1-1.3-1.4
		C401.7,178.4,401,178.4,400.4,178.8z"/>
</g>
</svg>
