<?xml version="1.0" encoding="utf-8"?>
<!-- Generator: Adobe Illustrator 19.0.1, SVG Export Plug-In . SVG Version: 6.00 Build 0)  -->
<svg version="1.1" id="Layer_1" xmlns="http://www.w3.org/2000/svg" xmlns:xlink="http://www.w3.org/1999/xlink" x="0px" y="0px"
	 viewBox="0 0 640 640" style="enable-background:new 0 0 640 640;" xml:space="preserve">
<style type="text/css">
	.st0{clip-path:url(#SVGID_2_);fill:#010101;}
	.st1{fill:#FFFFFF;}
	.st2{clip-path:url(#SVGID_4_);fill:#010101;}
	.st3{fill:none;stroke:#000000;stroke-miterlimit:10;}
</style>
<g>
	<path d="M274.8,333.5c0.2-1,0.2-2,0-3c-0.2-1-0.5-1.9-1-2.8c-0.5-0.9-1.1-1.7-1.8-2.4c-0.7-0.7-1.5-1.3-2.3-1.9
		c-0.4-0.3-0.8-0.5-1.3-0.8L267,322c-0.4-0.2-0.9-0.4-1.4-0.6c-0.5-0.2-0.9-0.4-1.4-0.5l-1.4-0.3c-0.5-0.1-1-0.1-1.5-0.2
		c-1-0.2-2-0.2-3-0.2c-1-0.1-2,0-3,0c-1,0-2,0.1-3,0.1c-2,0.2-4,0.4-5.9,0.7c-2,0.3-3.9,0.6-5.9,1c-1.9,0.4-3.9,0.8-5.8,1.4l0,0
		c-2.2,0.5-4.4,1.5-6.3,2.7c-1.9,1.3-3.6,2.8-4.8,4.7c-1.2,1.9-2.1,4-2.5,6.2c-0.2,0.5-0.1,1.1-0.2,1.7l-0.1,0.8l0,0.4l0,0
		c0,0,0-0.1,0,0l0,0.1l0,0.1l0,0.2c0,1.2,0,2.4,0.3,3.5c0.1,1.1,0.5,2.2,0.8,3.3c0.2,0.5,0.4,1,0.6,1.6l0.3,0.8
		c0.1,0.3,0.3,0.5,0.4,0.8c1,2,2.4,3.9,4,5.6c1.6,1.7,3.3,3.2,5.3,4.5c1.9,1.3,4,2.4,6.1,3c2.1,0.7,4.5,0.6,6.8,0.6
		c2.4,0,4.7-0.2,7.1-0.4c2.3-0.3,4.7-0.7,6.9-1.3c2.3-0.6,4.5-1.4,6.5-2.6c1-0.6,1.9-1.3,2.7-2.2c0.2-0.2,0.4-0.5,0.5-0.7l0.5-0.7
		l0.8-1.6c1-2.1,1.7-4.4,2.2-6.7c0.6-2.3,1-4.6,1.4-7C274.3,338.2,274.6,335.9,274.8,333.5z M274.8,333.5c-0.3,4.7-0.9,9.5-2,14.1
		c-0.5,2.3-1.2,4.6-2.1,6.8l-0.7,1.6l-0.5,0.8c-0.2,0.2-0.4,0.5-0.5,0.7c-0.8,0.9-1.7,1.7-2.7,2.4c-2,1.3-4.3,2.2-6.6,3
		c-2.3,0.7-4.7,1.2-7,1.6c-2.4,0.4-4.8,0.6-7.2,0.7c-1.2,0.1-2.4,0.1-3.6,0.1l-0.9,0l-0.4,0l-0.5-0.1l-1-0.1l-0.9-0.2
		c-2.4-0.7-4.6-1.8-6.7-3.1c-2.1-1.3-4-2.8-5.7-4.6c-1.7-1.8-3.2-3.7-4.3-6c-0.1-0.3-0.3-0.5-0.4-0.8l-0.4-0.9
		c-0.2-0.6-0.5-1.1-0.7-1.7c-0.3-1.2-0.7-2.4-0.9-3.7c-0.3-1.3-0.2-2.4-0.3-3.6l0-0.2l0-0.1l0-0.1l0-0.1l0,0l0-0.5l0.1-0.9
		c0.1-0.6,0.1-1.2,0.3-1.8c0.4-2.5,1.5-4.8,2.9-6.9c1.4-2.1,3.3-3.7,5.5-5c2.1-1.3,4.4-2.2,6.9-2.7l0,0c2-0.5,4-0.8,5.9-1.2
		c2-0.3,4-0.6,6-0.8c2-0.2,4-0.4,6-0.5c1,0,2-0.1,3,0c1,0,2,0,3,0.1c1,0.1,2,0.2,3,0.3c0.5,0.1,1,0.1,1.5,0.3l1.5,0.4
		c0.5,0.1,1,0.3,1.4,0.5c0.5,0.2,0.9,0.3,1.4,0.6l1.3,0.7c0.4,0.3,0.8,0.5,1.3,0.8c0.8,0.6,1.6,1.2,2.3,1.9c0.7,0.7,1.3,1.5,1.8,2.4
		c0.5,0.9,0.8,1.8,1,2.8C275,331.5,275,332.5,274.8,333.5z"/>
</g>
<g>
	<path d="M318.8,309.2c-2.8,0.4-5.6,1.1-8.3,2c-2.7,0.9-5.3,2.1-7.7,3.6c-1.2,0.8-2.3,1.7-3.3,2.7c-1,1-1.9,2.1-2.5,3.4
		c-0.6,1.2-1,2.6-1.2,4c-0.1,1.4,0,2.8,0.3,4.1c0.2,0.7,0.4,1.4,0.6,2l0.8,2l0.4,1l0.5,0.9l0.9,1.9l1.1,1.8c0.2,0.3,0.4,0.6,0.6,0.9
		l0.6,0.8c0.4,0.5,0.8,1.1,1.3,1.6l1.4,1.6c1,1,2,1.9,3.1,2.8c0.5,0.5,1.1,0.8,1.7,1.2c0.6,0.4,1.1,0.8,1.7,1.1
		c1.2,0.7,2.4,1.4,3.7,2c1.2,0.6,2.6,1.1,3.8,1.4l-0.2,0c1.1,0,2.3,0,3.4,0c1.1,0,2.3-0.1,3.4-0.2c1.1-0.1,2.3-0.2,3.4-0.4
		c1.1-0.2,2.3-0.4,3.4-0.6l1.7-0.4l1.6-0.5c0.6-0.1,1.1-0.3,1.6-0.5c0.5-0.2,1.1-0.4,1.6-0.6c1-0.5,2.1-0.9,3-1.4
		c0.5-0.3,1-0.5,1.4-0.8l1.4-1c0.5-0.3,0.8-0.7,1.3-1.1l0.6-0.6c0,0,0.1-0.1,0.1-0.1l0.1-0.2l0.3-0.3l1.1-1.3l0.9-1.4
		c0.3-0.4,0.6-1,0.8-1.4c0.3-0.5,0.6-1,0.8-1.5c0.2-0.5,0.5-1,0.7-1.6l0.5-1.6l0.4-1.6c0.1-0.6,0.2-1.1,0.3-1.7
		c0.2-1.1,0.3-2.3,0.3-3.4c0.1-1.1,0-2.3,0-3.4c-0.1-1.1-0.2-2.3-0.4-3.4l0-0.1l0,0c0-0.8-0.1-1.6-0.3-2.4c-0.2-0.8-0.5-1.6-0.8-2.3
		c-0.4-0.7-0.8-1.5-1.3-2.1c-0.5-0.7-1-1.3-1.6-1.9c-0.6-0.6-1.3-1.1-2-1.5c-0.7-0.5-1.4-0.9-2.2-1.2c-0.8-0.4-1.6-0.6-2.4-0.9
		c-0.8-0.2-1.6-0.5-2.5-0.6c-0.8-0.2-1.7-0.3-2.5-0.4c-0.8-0.1-1.7-0.2-2.5-0.2c-0.8,0-1.7,0-2.5,0c-0.9,0-1.7,0.1-2.5,0.1
		c-0.8,0.1-1.7,0.1-2.5,0.3c-0.8,0.1-1.7,0.2-2.5,0.4c-0.8,0.2-1.7,0.3-2.5,0.5L318.8,309.2z M318.8,309.2l2.5-0.6
		c0.8-0.2,1.7-0.3,2.5-0.5c0.8-0.2,1.7-0.3,2.5-0.4c0.8-0.1,1.7-0.2,2.5-0.3c0.8-0.1,1.7-0.1,2.5-0.2c0.9-0.1,1.7,0,2.6-0.1
		c0.9,0,1.7,0.1,2.6,0.1c0.8,0.1,1.7,0.2,2.5,0.3c0.8,0.1,1.7,0.3,2.5,0.5c0.8,0.2,1.6,0.5,2.4,0.8c0.8,0.3,1.6,0.7,2.3,1.2
		c0.7,0.4,1.4,1,2.1,1.5c0.6,0.6,1.3,1.2,1.8,1.9c0.5,0.7,1,1.4,1.4,2.2c0.4,0.8,0.7,1.6,1,2.4c0.2,0.9,0.4,1.7,0.5,2.6l0-0.1
		c0.3,1.2,0.4,2.3,0.5,3.5c0.1,1.2,0.2,2.4,0.1,3.5c0,1.2-0.1,2.4-0.2,3.6c-0.1,0.6-0.1,1.2-0.3,1.8l-0.4,1.8l-0.5,1.7
		c-0.2,0.6-0.4,1.1-0.6,1.7c-0.2,0.6-0.5,1.1-0.8,1.6c-0.3,0.5-0.5,1.1-0.9,1.6l-1,1.5l-1.1,1.3l-0.3,0.3l-0.1,0.2
		c-0.1,0.1-0.1,0.1-0.2,0.2l-0.7,0.6c-0.5,0.4-0.9,0.9-1.4,1.2l-1.5,1.1c-0.5,0.4-1,0.6-1.6,0.9c-1,0.6-2.2,1.1-3.2,1.6
		c-0.6,0.2-1.1,0.4-1.7,0.6c-0.6,0.2-1.1,0.4-1.7,0.6l-1.7,0.5l-1.7,0.4c-1.2,0.2-2.3,0.4-3.5,0.6c-1.2,0.2-2.3,0.3-3.5,0.4
		c-1.2,0.1-2.4,0.2-3.5,0.2c-1.2,0-2.4,0-3.6,0l-0.1,0l-0.1,0c-1.5-0.4-2.8-1-4.1-1.6c-1.3-0.7-2.6-1.3-3.8-2.2
		c-0.6-0.4-1.2-0.8-1.8-1.3c-0.6-0.4-1.2-0.9-1.7-1.4c-1.1-0.9-2.1-2-3.1-3l-1.4-1.7c-0.5-0.5-0.8-1.2-1.3-1.8l-0.6-0.9
		c-0.2-0.3-0.4-0.6-0.5-0.9l-1.1-1.9l-0.9-2l-0.4-1l-0.4-1l-0.7-2c-0.2-0.7-0.4-1.4-0.5-2.1c-0.3-1.4-0.3-2.9-0.1-4.3
		c0.2-1.4,0.7-2.8,1.4-4.1c0.7-1.3,1.6-2.4,2.7-3.4c1-1,2.2-1.9,3.4-2.6c2.4-1.5,5.1-2.6,7.8-3.5
		C313.2,310.3,315.9,309.7,318.8,309.2z"/>
</g>
<g>
	<path d="M273.4,329c0,0,0.2-0.3,0.7-0.8c0.5-0.5,1.2-1.1,2.1-1.8c1-0.6,2.2-1.3,3.5-1.8c0.7-0.2,1.4-0.5,2.1-0.7
		c0.7-0.2,1.5-0.4,2.2-0.4c0.8-0.1,1.5-0.2,2.3-0.2c0.7,0,1.5-0.1,2.2,0c0.7,0,1.4,0.1,2,0.1c0.6,0.1,1.3,0.2,1.8,0.3
		c0.6,0.1,1.1,0.2,1.5,0.3c0.4,0.1,0.8,0.2,1.1,0.3c0.6,0.2,1,0.3,1,0.3s-0.4,0-1,0.1c-0.7,0.1-1.6,0-2.7,0.1
		c-0.6,0-1.1,0.1-1.8,0.1c-0.6,0-1.3,0.1-2,0.1c-0.7,0-1.4,0.2-2.1,0.2c-0.7,0-1.4,0.2-2.1,0.3c-0.7,0.1-1.4,0.3-2.1,0.4
		c-0.7,0.2-1.4,0.3-2,0.5c-0.6,0.2-1.3,0.3-1.9,0.5c-0.6,0.2-1.1,0.4-1.7,0.6c-0.5,0.2-1,0.4-1.4,0.6c-0.4,0.2-0.8,0.3-1.1,0.5
		C273.7,328.8,273.4,329,273.4,329z"/>
</g>
<g>
	<path d="M350.9,312.5c0,0,0.5,0.2,1.5,0c0.5-0.1,1-0.2,1.6-0.5c0.6-0.3,1.2-0.7,1.7-1.2c0.6-0.5,1.1-1.1,1.7-1.8
		c0.6-0.7,1.2-1.5,1.8-2.3c0.6-0.8,1.3-1.6,1.9-2.5c0.7-0.8,1.3-1.7,2-2.6c0.7-0.8,1.4-1.7,2-2.5c0.7-0.8,1.4-1.6,2-2.4
		c1.3-1.6,2.6-3,3.7-4.2c2.2-2.4,3.8-4,3.8-4s-1.1,1.9-2.9,4.7c-0.9,1.4-2,2.9-3.2,4.6c-0.6,0.8-1.2,1.7-1.9,2.5
		c-0.7,0.8-1.3,1.7-2,2.6c-1.4,1.7-2.8,3.4-4.1,4.9c-0.7,0.8-1.4,1.5-2,2.2c-0.7,0.7-1.4,1.3-2.2,1.8c-1.5,1-3,1.2-4,1.1
		c-0.5,0-0.9-0.2-1.1-0.2C351,312.6,350.9,312.5,350.9,312.5z"/>
</g>
<g>
	<path d="M220.3,334.2c0,0-0.4,0.2-1,0.5c-0.3,0.1-0.8,0.3-1.3,0.4c-0.5,0.1-1.1,0.2-1.8,0.2c-0.7,0-1.5-0.1-2.3-0.8
		c-0.2-0.2-0.3-0.4-0.5-0.6c-0.1-0.2-0.2-0.5-0.3-0.7c0-0.2-0.1-0.5-0.1-0.7c0-0.2,0-0.4,0-0.6c0-0.8-0.2-1.4-0.3-2.2
		c-0.1-0.8-0.3-1.6-0.4-2.3c-0.1-0.8-0.3-1.6-0.5-2.3c-0.2-0.8-0.4-1.5-0.5-2.3c-0.2-0.7-0.4-1.4-0.5-2.1c-0.2-0.7-0.4-1.3-0.5-1.9
		c-0.4-1.1-0.7-2.1-1-2.7c-0.3-0.6-0.5-1-0.5-1s0.1,0.1,0.2,0.2c0.1,0.1,0.4,0.3,0.6,0.6c0.2,0.3,0.5,0.6,0.8,1
		c0.3,0.4,0.6,0.9,0.9,1.5c0.6,1.1,1.2,2.4,1.7,3.9c0.2,0.7,0.5,1.5,0.7,2.3c0.2,0.8,0.4,1.6,0.6,2.4c0.1,0.8,0.3,1.6,0.4,2.5
		c0.1,0.8,0.1,1.7,0.1,2.5c0,0.2,0,0.4,0,0.6c0,0.1,0,0.3,0,0.4c0,0.1,0.1,0.2,0.1,0.3c0,0.1,0.1,0.2,0.1,0.3
		c0.2,0.3,0.8,0.6,1.3,0.7c1.1,0.2,2.1,0.2,2.8,0.1C219.9,334.2,220.3,334.2,220.3,334.2z"/>
</g>
<g>
	<path d="M270.8,356.5c-1.1,1.7-2.1,3.4-2.9,5.2c-0.4,0.9-0.8,1.8-1.1,2.7c-0.2,0.5-0.3,0.9-0.4,1.4c-0.1,0.5-0.2,0.9-0.3,1.4
		c-0.1,0.5-0.1,0.9-0.2,1.4c0,0.5,0,0.9,0.1,1.4c0,0.2,0.1,0.4,0.2,0.6c0.1,0.2,0.2,0.4,0.3,0.6l0.3,0.5c0.2,0.1,0.3,0.3,0.4,0.4
		l0.5,0.4l0.6,0.3c0.4,0.1,0.8,0.3,1.3,0.4c0.4,0.1,0.9,0.1,1.4,0.2c0.5,0,0.9,0,1.4,0l0.1,0l0,0c1.4,0.1,2.8,0.3,4.2,0.7
		c1.4,0.4,2.7,1.2,3.8,2c1.1,0.8,2.2,1.5,3.3,1.9c1.1,0.4,2.4,0.5,3.7,0.5c0.3,0,0.7,0,1-0.1l0.9-0.1c0.6-0.1,1.2-0.3,1.8-0.5
		c1.2-0.4,2.2-1.1,3.2-1.9c1-0.8,1.9-1.8,2.8-2.7c0.5-0.5,1-1,1.5-1.5c0.1-0.1,0.3-0.2,0.4-0.4l0.2-0.2l0.1-0.1l0.1,0l0.1-0.1
		c0.3-0.2,0.5-0.4,0.9-0.6c1.4-0.8,2.7-1.1,4.1-1.6l3.9-1.1c1.3-0.4,2.6-0.8,3.8-1.3c1.2-0.5,2.3-1.2,3.2-2.1l0.3-0.3
		c0,0,0.1-0.1,0.1-0.1l0.1-0.2c0.2-0.3,0.4-0.6,0.5-0.8l0.2-0.4c0-0.1,0.1-0.3,0.1-0.4c0.1-0.3,0-0.6,0.1-0.9
		c-0.1-1.2-0.8-2.3-1.7-3.2c-0.9-0.9-2.1-1.6-3.3-2.2c-1.2-0.5-2.5-1-3.9-1.2c1.4,0.1,2.7,0.4,4,0.8c1.3,0.5,2.6,1.1,3.7,2
		c1.1,0.9,2.1,2.1,2.3,3.7c0,0.4,0.1,0.8,0,1.2c0,0.2,0,0.4-0.1,0.6l-0.2,0.6c-0.1,0.4-0.3,0.7-0.5,1l-0.1,0.2
		c-0.1,0.2-0.1,0.2-0.2,0.3l-0.4,0.4c-1,1.1-2.2,1.9-3.5,2.5c-1.3,0.6-2.6,1.1-3.9,1.5c-1.3,0.4-2.6,0.8-3.9,1.2
		c-0.6,0.2-1.3,0.4-1.9,0.7c-0.6,0.2-1.2,0.5-1.7,0.8c-0.2,0.1-0.5,0.4-0.8,0.6l-0.7,0.6c-0.5,0.5-0.9,0.9-1.4,1.4
		c-0.9,1-1.9,2-3,2.9c-1.1,0.9-2.4,1.7-3.8,2.2c-0.7,0.3-1.4,0.4-2.1,0.6l-1.1,0.1c-0.4,0-0.7,0-1,0.1c-1.5,0-2.9-0.1-4.4-0.6
		c-1.4-0.5-2.7-1.4-3.8-2.2c-1.1-0.8-2.1-1.5-3.3-1.9c-1.2-0.4-2.5-0.6-3.8-0.8l0.1,0c-0.5,0-1,0-1.6-0.1c-0.5-0.1-1.1-0.1-1.6-0.3
		c-0.5-0.1-1-0.3-1.6-0.5l-0.7-0.4c-0.2-0.2-0.5-0.4-0.7-0.5c-0.2-0.2-0.4-0.4-0.6-0.7c-0.2-0.2-0.3-0.5-0.4-0.8
		c-0.1-0.3-0.2-0.5-0.3-0.8c-0.1-0.3-0.1-0.5-0.2-0.8c-0.1-0.5-0.1-1.1,0-1.6c0.1-0.5,0.2-1,0.3-1.6c0.5-2,1.4-3.8,2.4-5.6
		C268.3,359.7,269.5,358,270.8,356.5z"/>
</g>
<path d="M266.5,401.8c0,0,17-3.8,18.8-4.8s5.2,0.2,7.5,0s6.8-4,14.8-3s16.8,2.5,16.8,2.5s-12.2,4.2-16.8,4.2s-8,3.2-10.5,3.5
	S278.5,406.2,266.5,401.8z"/>
<path d="M328,397.2c0,0-15.5,10.5-31.5,12.2s-23.2-2.5-29.2-6.8c0,0,8.5,18.8,27.5,15.5s26.5-7.2,35.2-20.8L328,397.2z"/>
<g>
	<path d="M285,441.2c0-0.2,0.2-0.5,0.3-0.6c0.2-0.2,0.3-0.4,0.5-0.5c0.3-0.3,0.7-0.6,1.1-0.9c0.8-0.6,1.6-1.1,2.5-1.5
		c0.4-0.2,0.9-0.4,1.3-0.6c0.5-0.2,0.9-0.3,1.4-0.5c0.5-0.1,1-0.3,1.5-0.3c0.5-0.1,1-0.2,1.4-0.2c1.9-0.2,3.8-0.3,5.7-0.3
		c0.9,0,1.9,0,2.8,0c0.9,0,1.9,0,2.8,0.1l-0.1,0c0.3,0,0.6,0,1,0c0.3,0,0.6,0,0.9,0.1c0.6,0.1,1.2,0.1,1.8,0.3
		c0.6,0.1,1.2,0.3,1.8,0.5c0.6,0.2,1.1,0.5,1.6,0.9c-0.3-0.1-0.6-0.2-0.9-0.2c-0.3-0.1-0.6-0.1-0.9-0.2c-0.6-0.1-1.2-0.1-1.7-0.1
		c-0.6,0-1.2,0-1.7,0.1l-0.9,0.1c-0.3,0-0.6,0.1-0.8,0.1l-0.1,0c-0.9,0.1-1.9,0.1-2.8,0.2c-0.9,0.1-1.9,0.1-2.8,0.1
		c-1.9,0.1-3.8,0.2-5.6,0.3c-0.5,0-0.9,0.1-1.4,0.1c-0.4,0-0.9,0.1-1.3,0.2c-0.9,0.1-1.8,0.4-2.6,0.7c-0.9,0.3-1.7,0.6-2.6,1
		c-0.4,0.2-0.8,0.4-1.3,0.6C285.7,440.7,285.2,440.8,285,441.2z"/>
</g>
<path d="M266.2,312.2c4.7-0.4-7.8-6-12.5-5.5s-16.2-4-24.5,6.2c0,0,6.5,3.5,12.2,3.5S245.2,314,266.2,312.2z"/>
<path d="M304.8,304.8c0,0,4-5,9.8-5s12.8-10.2,29.2,1.2s0.8,5,0.8,5s-7.2-4.8-13.8-2.5s-11,5-11,5L304.8,304.8z"/>
<path d="M212,353c0,0,3.8,1.2,4.5-2.2s-3.2-12-3.2-17.5s3-31,2.5-42s-2.2-19.2,0.8-33.5s8.8-24.8,14.5-29.5s19.5-17,22.5-18.5
	s5.2,6.2,7.2,7.2s33.2,2,39.2-2s10.7-8.7,19.3-4.7c8.7,4,16.9,24.7,31.4,20.2c0,0,6.2,16,6,22.2s-2.5,17.2,3,30s9.5,16,12.5,28.5
	s6.5,23.2,7.2,23.2l3.5-0.2c0,0,3.5-10.2,3.5-13.2s1.2-16.2,2.8-19.8s-4-4.8-4-6.2s3.2-3.5,3.2-3.5s2.5-5.8-0.5-9.2
	s-10.8-12.8-10.2-27.5s-10.2-29.2-16-28c0,0,0.2-2.5-5-6.5S346,207.8,339,207.5c0,0,4.5-7.2-5-2.2c0,0-18.2-10.2-27-10.2
	s-20.2-16.8-41.5-4.2s-28.2,3.8-26.5,21.2c0,0-22.8,6-28,33.2S199.2,310,199.2,310s7.5,4,8.2,14.5S212,353,212,353z"/>
<g>
	<g>
		<defs>
			<polygon id="SVGID_1_" points="260.4,324.7 257.3,323.6 254,323 250.3,322.9 247.8,323.2 245.2,324.1 243.9,329.2 245.2,333.5 
				248,334.9 251,335.7 253.9,335 257.1,333.9 260.1,332.2 262.3,329.4 			"/>
		</defs>
		<clipPath id="SVGID_2_">
			<use xlink:href="#SVGID_1_"  style="overflow:visible;"/>
		</clipPath>
		<circle class="st0" cx="253.1" cy="328" r="6.6"/>
	</g>
</g>
<circle class="st1" cx="251.4" cy="327" r="1.3"/>
<g>
	<g>
		<defs>
			<polygon id="SVGID_3_" points="316.9,325.6 316.7,320 319.5,319.3 323.9,318.8 328.8,319 331.9,320.4 333.5,325.8 330.9,327 
				327.8,329.2 324.8,329.9 320.8,329.2 319.7,329.3 			"/>
		</defs>
		<clipPath id="SVGID_4_">
			<use xlink:href="#SVGID_3_"  style="overflow:visible;"/>
		</clipPath>
		<circle class="st2" cx="324.4" cy="323" r="6.1"/>
	</g>
</g>
<circle class="st1" cx="322" cy="321.5" r="1.5"/>
<g>
	<path d="M305.8,327.4c2.2-2,4.6-3.7,7.1-5.3c1.3-0.8,2.6-1.5,3.9-2.2c0.7-0.3,1.4-0.6,2.1-0.9l1.1-0.3l1.1-0.3
		c0.8-0.1,1.5-0.3,2.3-0.3c0.8-0.1,1.5-0.1,2.3-0.1c0.8,0,1.5,0,2.3,0.1c0.8,0.1,1.5,0.1,2.3,0.2c0.8,0.1,1.5,0.2,2.2,0.4
		c0.7,0.2,1.5,0.4,2.2,0.6c0.7,0.2,1.5,0.5,2.2,0.8c0.7,0.3,1.4,0.6,2.1,1l0.7,0.4l-0.2,0.7c-0.1,0.5-0.3,0.7-0.5,1
		c-0.2,0.3-0.4,0.6-0.6,0.8c-0.4,0.5-0.8,1-1.3,1.4c-0.5,0.4-1,0.8-1.5,1.2c-0.5,0.4-1,0.7-1.6,1c-0.5,0.3-1.1,0.6-1.6,0.9
		c-0.3,0.1-0.6,0.2-0.8,0.4l-0.8,0.4c-0.6,0.2-1.1,0.4-1.7,0.6l-1.7,0.5l0,0l0,0l-1.4,0.2c-0.5,0.1-0.9,0-1.4,0.1
		c-0.5,0-0.9,0-1.4,0c-0.5,0-0.9-0.1-1.4-0.1c-0.5,0-0.9-0.1-1.4-0.2c-0.5-0.1-0.9-0.2-1.4-0.3c-0.9-0.2-1.8-0.5-2.6-0.7l-2.6-0.8
		c-0.9-0.3-1.7-0.5-2.6-0.7l-1.3-0.2l-1.3-0.1l-1.3,0L305.8,327.4z M305.8,327.4l1.3-0.2c0.5-0.1,0.9-0.1,1.4-0.1l1.4,0l1.4,0.1
		c0.9,0.1,1.8,0.3,2.7,0.4c0.9,0.2,1.8,0.4,2.7,0.6c0.9,0.2,1.8,0.4,2.6,0.5c0.9,0.1,1.7,0.3,2.6,0.3c0.4,0,0.9,0.1,1.3,0.1
		c0.4,0,0.9,0,1.3,0c0.4,0,0.9-0.1,1.3-0.1l1.3-0.2l-0.1,0l1.6-0.5l1.6-0.6l0.8-0.4c0.3-0.1,0.5-0.2,0.8-0.4c0.5-0.3,1-0.5,1.5-0.8
		c0.5-0.3,0.9-0.6,1.4-0.9c0.4-0.3,0.9-0.7,1.2-1.1c0.4-0.4,0.7-0.8,1-1.2c0.2-0.2,0.3-0.4,0.4-0.6c0.1-0.2,0.2-0.5,0.3-0.6l0.4,1.1
		c-0.6-0.3-1.2-0.7-1.8-0.9c-0.6-0.3-1.3-0.5-2-0.7c-0.7-0.2-1.4-0.4-2.1-0.5c-0.7-0.2-1.4-0.3-2.1-0.4c-0.7-0.1-1.4-0.2-2.1-0.3
		c-0.7-0.1-1.4-0.1-2.1-0.1c-0.7,0-1.4,0-2.1,0c-0.7,0-1.4,0.1-2.1,0.2l-1,0.2l-1.1,0.3c-0.6,0.2-1.3,0.4-2,0.7
		c-0.7,0.3-1.3,0.5-2,0.9c-0.7,0.3-1.3,0.6-2,1c-1.3,0.7-2.6,1.4-3.9,2.1C308.2,325.8,307,326.6,305.8,327.4z"/>
</g>
<g>
	<path d="M306.5,323.9c0.6-1,1.2-2,1.9-3c0.3-0.5,0.7-1,1-1.4c0.4-0.5,0.7-0.9,1.1-1.4l0.1-0.1c0.8-0.8,1.5-1.6,2.3-2.3l0.1-0.1
		l0.1-0.1c0.4-0.2,0.6-0.2,0.9-0.3c0.3-0.1,0.5-0.1,0.8-0.2c0.5-0.1,1.1-0.2,1.6-0.2c0.5-0.1,1.1-0.1,1.6-0.1c0.5,0,1.1,0,1.6,0
		c0.5,0,1,0.1,1.6,0.1c0.5,0.1,1,0.2,1.6,0.2c1,0.2,2,0.4,3,0.8c-0.5,0.1-1,0.1-1.6,0.2c-0.5,0-1,0.1-1.5,0.1c-1,0.1-2,0.1-3,0.2
		c-0.5,0-1,0.1-1.5,0.1c-0.5,0.1-1,0.1-1.5,0.2c-0.5,0.1-1,0.1-1.4,0.2c-0.2,0.1-0.5,0.1-0.7,0.2c-0.2,0-0.5,0.1-0.5,0.2l0.2-0.2
		c-0.8,0.7-1.6,1.5-2.5,2.2l0.1-0.1c-0.4,0.4-0.8,0.8-1.3,1.2c-0.4,0.4-0.9,0.8-1.3,1.2C308.4,322.4,307.5,323.2,306.5,323.9z"/>
</g>
<g>
	<path d="M266.6,328.9c-1.1-0.9-2.3-1.6-3.5-2.3c-0.6-0.3-1.2-0.6-1.9-0.9c-0.6-0.3-1.3-0.5-2-0.7c-0.7-0.2-1.3-0.4-2-0.5
		c-0.7-0.2-1.3-0.3-2-0.4c-0.7-0.1-1.4-0.2-2-0.3l-1.1,0l-0.5,0c-0.2,0-0.3,0-0.5,0.1l-0.9,0.1c-0.3,0.1-0.6,0.1-1,0.2
		c-0.7,0.1-1.3,0.4-1.9,0.6c-0.6,0.3-1.2,0.5-1.8,0.8l-0.9,0.5l-0.9,0.5c-0.6,0.3-1.1,0.7-1.7,1.1c-0.5,0.4-1.1,0.8-1.6,1.3
		c-0.5,0.5-1,0.9-1.5,1.4c-0.5,0.5-1,1-1.4,1.5l-0.8-1.6l1.7,0l0.4,0l0.3,0.2c0.4,0.3,0.9,0.7,1.4,1c0.5,0.3,1,0.6,1.5,0.9
		c0.5,0.3,1,0.5,1.6,0.8c0.5,0.2,1.1,0.4,1.6,0.6c0.5,0.2,1.1,0.3,1.7,0.5c0.6,0.1,1.1,0.2,1.7,0.2c0.6,0.1,1.2,0.1,1.7,0l0.9-0.1
		l0.9-0.1c0.6-0.1,1.2-0.2,1.7-0.3c0.6-0.1,1.2-0.3,1.8-0.4c1.2-0.3,2.3-0.7,3.5-1c2.3-0.8,4.6-1.7,6.8-2.6
		c-2.1,1.3-4.3,2.4-6.5,3.4c-1.1,0.5-2.3,1-3.4,1.4c-0.6,0.2-1.2,0.4-1.8,0.6c-0.6,0.1-1.2,0.3-1.8,0.4c-0.6,0.1-1.3,0.2-1.9,0.3
		c-0.7,0.1-1.3,0.1-2,0.1c-0.7,0-1.3-0.1-1.9-0.2c-0.6-0.1-1.3-0.3-1.9-0.4c-0.6-0.2-1.2-0.4-1.8-0.6c-0.6-0.2-1.2-0.5-1.7-0.8
		c-0.6-0.3-1.1-0.6-1.7-1c-0.5-0.4-1-0.7-1.6-1.1l0.6,0.2l-1.7,0l-2.1,0l1.3-1.6c0.5-0.6,1-1.1,1.5-1.6c0.5-0.5,1-1,1.6-1.5
		c0.5-0.5,1.1-0.9,1.7-1.4c0.6-0.4,1.2-0.8,1.8-1.2l0.9-0.6l1-0.5c0.7-0.3,1.4-0.6,2-0.8c0.7-0.2,1.4-0.5,2.2-0.6
		c0.4-0.1,0.7-0.1,1.1-0.2l1.2-0.1c0.2,0,0.4,0,0.6,0l0.5,0l1,0.1c0.8,0.1,1.4,0.2,2.2,0.4c0.7,0.2,1.4,0.4,2.1,0.6
		c0.7,0.2,1.4,0.5,2,0.7c0.7,0.3,1.3,0.6,1.9,0.9c0.6,0.3,1.2,0.7,1.8,1.1C264.6,326.9,265.7,327.8,266.6,328.9z"/>
</g>
<g>
	<path d="M262.5,371.1c0,0,0.2,0.9,0.1,2.2c0,0.7-0.1,1.4-0.3,2.2c-0.2,0.8-0.5,1.6-0.8,2.4c-0.3,0.8-0.8,1.6-1.2,2.3
		c-0.5,0.7-1,1.3-1.4,1.7c-0.2,0.2-0.5,0.4-0.7,0.6c-0.2,0.2-0.4,0.3-0.6,0.4c-0.3,0.2-0.5,0.3-0.5,0.3s0.1-0.2,0.2-0.6
		c0.2-0.3,0.4-0.8,0.6-1.4c0.5-1.1,1.1-2.6,1.7-4.1c0.6-1.5,1.3-3,1.9-4.1C262,371.9,262.5,371.1,262.5,371.1z"/>
</g>
<g>
	<path d="M365.3,334c0,0,0.2,0.5,0.6,1.3c0.3,0.9,0.9,2.2,1.4,3.9c0.5,1.7,1.1,3.8,1.7,6.2c0.5,2.4,1,5.2,1.2,8.3
		c0.1,1.5,0.1,3.2,0.2,4.8c0,0.4,0,0.8,0.1,1.2c0,0.4,0.1,0.8,0.1,1.2c0.1,0.8,0.2,1.6,0.4,2.5c0.6,3.4,1.7,6.9,2.5,10.6
		c0.9,3.7,1.6,7.7,1.6,11.8c0.1,4.1-0.4,8.2-1.4,12.2l-0.9,3c-0.3,1-0.7,1.9-1,2.9c-0.7,1.9-1.4,3.8-2.2,5.7
		c-1.5,3.7-3.1,7.3-4.6,10.8c-3.1,7-6,13.4-8.4,19c-1.2,2.8-2.2,5.4-3.1,7.7c-0.9,2.3-1.5,4.3-2.1,6c-0.2,0.9-0.4,1.6-0.6,2.3
		c-0.2,0.7-0.3,1.2-0.4,1.7c-0.2,0.9-0.3,1.4-0.3,1.4s0.1-0.5,0.2-1.4c0.1-0.9,0.4-2.3,0.8-4.1c0.4-1.7,1-3.8,1.7-6.2
		c0.7-2.4,1.7-5,2.7-7.9c1.1-2.8,2.3-5.9,3.6-9.1c1.3-3.2,2.8-6.6,4.2-10.1c1.5-3.5,3-7.1,4.4-10.8c0.7-1.9,1.4-3.7,2.1-5.6
		c0.3-0.9,0.7-1.9,1-2.8l0.9-2.8c1-3.8,1.5-7.8,1.4-11.7c-0.1-3.9-0.6-7.7-1.4-11.4c-0.8-3.7-1.7-7.3-2.3-10.8
		c-0.1-0.9-0.3-1.7-0.3-2.6c0-0.4-0.1-0.9-0.1-1.3c0-0.4,0-0.8,0-1.2c0-1.7,0.1-3.2,0-4.7c-0.2-6-1.2-11-2.1-14.4
		C366,335.9,365.3,334,365.3,334z"/>
</g>
<g>
	<path d="M353.3,393c0,0-0.1,3-0.5,8.3c-0.2,2.6-0.5,5.9-0.9,9.5c-0.4,3.7-0.9,7.8-1.8,12.3c-0.4,2.2-0.9,4.6-1.6,7
		c-0.3,1.2-0.7,2.4-1.2,3.6c-0.5,1.2-1,2.4-1.8,3.6c-0.2,0.3-0.4,0.6-0.6,0.8l-0.3,0.4l-0.4,0.4c-0.1,0.1-0.3,0.2-0.4,0.4l-0.4,0.3
		l-0.8,0.6c-1.2,0.7-2.4,1.5-3.8,2c-0.3,0.1-0.7,0.2-0.9,0.3c-0.2,0.1-0.4,0.2-0.6,0.4c-0.4,0.4-0.7,1-1.1,1.6
		c-0.7,1.2-1.4,2.4-2.1,3.7c-1.4,2.5-3.2,5-5.5,7c-2.3,2.1-5,3.5-7.9,4.6c-5.7,2.2-11.9,2.9-17.9,3.7c-3,0.4-6,0.8-9.1,0.9
		c-3.1,0.2-6.2,0.1-9.2-0.6c-3-0.7-5.9-2-8.3-3.8c-0.6-0.4-1.2-0.9-1.8-1.4c-0.6-0.5-1.1-0.9-1.7-1.4c-1.1-0.9-2.2-1.8-3.3-2.7
		c-2.2-1.7-4.5-3.3-6.7-5.1c-2.2-1.8-4-3.9-5.5-6.1c-1.5-2.2-2.6-4.6-3.5-6.8c-1-2.3-1.8-4.5-2.7-6.6c-1.6-4.3-3-8.2-4.2-11.7
		c-1.2-3.5-2.3-6.5-3.2-9c-0.9-2.5-1.6-4.5-2.1-5.8c-0.5-1.3-0.8-2-0.8-2s0.3,0.7,0.9,2c0.6,1.3,1.4,3.2,2.4,5.7
		c2,4.9,4.7,12,8.1,20.4c0.9,2.1,1.8,4.3,2.8,6.5c1,2.2,2.1,4.5,3.6,6.5c1.5,2.1,3.2,4,5.3,5.6c2.1,1.6,4.4,3.2,6.7,5
		c1.1,0.9,2.3,1.8,3.4,2.7c0.6,0.5,1.1,0.9,1.7,1.4c0.6,0.4,1.1,0.9,1.7,1.3c2.3,1.6,4.9,2.8,7.7,3.4c2.8,0.6,5.7,0.7,8.7,0.5
		c3-0.2,6-0.6,8.9-1c6-0.8,12-1.4,17.5-3.5c2.7-1,5.3-2.4,7.4-4.3c2.1-1.8,3.8-4.1,5.2-6.5c0.7-1.2,1.4-2.5,2.1-3.7
		c0.4-0.6,0.7-1.2,1.3-1.8c0.3-0.3,0.7-0.6,1.1-0.8c0.4-0.2,0.7-0.2,1-0.3c1.2-0.4,2.4-1,3.4-1.7l0.8-0.5l0.4-0.3
		c0.1-0.1,0.2-0.2,0.3-0.3l0.3-0.3l0.3-0.3c0.2-0.2,0.4-0.4,0.6-0.7c0.7-1,1.2-2.1,1.7-3.3c0.5-1.1,0.9-2.3,1.2-3.5
		c0.7-2.3,1.3-4.6,1.8-6.8c0.9-4.4,1.6-8.5,2.2-12.2c0.5-3.6,0.9-6.8,1.2-9.5C353.1,396,353.3,393,353.3,393z"/>
</g>
<g>
	<path d="M201.5,310.8c-1-0.7-2.2-1.2-3.4-1.4c-0.3-0.1-0.6-0.1-0.9-0.1c-0.3,0-0.6,0-0.9,0.1l-0.4,0.1c-0.1,0.1-0.3,0.1-0.4,0.2
		c-0.3,0.1-0.5,0.4-0.8,0.5c-0.2,0.2-0.4,0.4-0.6,0.7c-0.2,0.3-0.4,0.5-0.5,0.8c-0.2,0.3-0.2,0.6-0.3,0.9c-0.1,0.3-0.1,0.6-0.1,0.9
		c0,0.6,0.3,1.2,0.6,1.7c0.4,0.5,0.8,0.9,1.3,1.3l0,0l0,0c0.7,1.4,1.2,2.8,1.7,4.3c0.5,1.5,0.9,3,1,4.5c0.1,0.8,0.1,1.5,0.1,2.3
		c0.1,0.7,0.1,1.5,0.3,2.2c0.3,1.5,0.7,3,1.1,4.4c0.5,1.4,1,2.9,1.6,4.3c0.3,0.7,0.4,1.5,0.6,2.3c0.1,0.8,0.2,1.5,0.3,2.3
		c0.3,3,0.6,6.1,1.3,9c0.3,1.5,0.8,2.9,1.5,4.2l2.2,4c1.5,2.7,2.9,5.4,4.5,8c0.8,1.3,1.6,2.5,2.6,3.8c0.9,1.3,1.7,2.6,2.5,3.9
		c1.5,2.7,2.9,5.4,4.3,8.1l0,0l0,0l6,17c0.5,1.4,1,2.9,1.5,4.2c0.3,0.7,0.6,1.3,1,1.9l1.1,2l4.5,7.8c3,5.2,6.1,10.4,9.2,15.5
		c3.1,5.1,6.2,10.3,9.4,15.3c1.6,2.5,3.3,5.1,5.1,7.3c0.2,0.3,0.4,0.5,0.7,0.8l0.8,0.8c0.5,0.6,1,1.2,1.5,1.8
		c0.9,1.2,1.8,2.5,2.6,3.8c1.6,2.6,3.1,5.1,4.8,7.6c1.6,2.5,3.4,4.9,5.3,7.2c1.9,2.3,3.8,4.5,6,6.6c1,1.1,2.1,2.1,3.2,3.1
		c1.1,1,2.2,2.1,3.2,3.2c4.2,4.3,8.3,8.7,12.4,13.1l0,0.1l0.1,0.1c0.4,0.6,1,1.2,1.7,1.7c0.7,0.5,1.5,0.8,2.3,1.1
		c1.6,0.5,3.4,0.5,5.2,0.2c1.8-0.3,3.7-0.6,5.5-1c1.8-0.4,3.4-1.1,4.8-2.1c1.5-1,2.9-2.2,4.3-3.4c1.4-1.2,2.7-2.5,4.1-3.9
		c1.3-1.3,2.6-2.7,4-4l3.9-4.1c10.4-10.9,20.8-21.8,31.1-32.8l0,0c2.3-3,4.6-6.1,6.6-9.3c2-3.2,4-6.5,5.6-10c1.6-3.4,3-7,3.8-10.6
		c0.2-0.9,0.3-1.8,0.5-2.8c0.1-0.9,0.2-1.9,0.3-2.8c0.2-1.9,0.4-3.9,0.6-5.8c0.3-1.9,0.6-3.8,1-5.7c0.4-1.9,0.8-3.7,1.1-5.6
		c0.5-3.7,0.6-7.6,0.9-11.4c0.6-7.7,1.3-15.4,2.6-23c0.3-1.9,0.7-3.8,1.2-5.7c0.4-1.9,1.1-3.8,1.9-5.5c1.6-3.4,2.5-7.1,3.6-10.9
		c0.5-1.9,1.1-3.7,1.9-5.5c0.2-0.4,0.4-0.9,0.6-1.3l0.7-1.3l0.3-0.6l0.3-0.6c0.2-0.4,0.3-0.9,0.4-1.3c0.5-1.8,0.4-3.7,0.2-5.6
		c-0.1-0.9-0.3-1.9-0.3-2.9c0-0.3,0-0.5,0-0.8c0-0.3,0.1-0.5,0.2-0.8l0.3-1.4c0.9-3.7,1.6-7.5,1.9-11.3c0.2-1.9,0.3-3.8,0.3-5.7
		c0-1.9-0.1-3.8-0.3-5.7c-0.2-1.9-0.4-3.8-1-5.6c-0.3-0.9-0.6-1.8-1.2-2.6c-0.5-0.8-1.3-1.4-2.1-1.9c-1.6-1-3.6-1.5-5.5-1.3
		c-1.9,0.2-3.7,1.2-5.1,2.5c1.4-1.3,3.2-2.3,5.1-2.5c1.9-0.3,3.9,0.2,5.6,1.2c0.8,0.5,1.6,1.1,2.2,1.9c0.6,0.8,1,1.7,1.3,2.6
		c0.6,1.9,0.9,3.8,1.1,5.7c0.2,1.9,0.4,3.8,0.4,5.8c0,1.9-0.1,3.9-0.2,5.8c-0.3,3.8-0.9,7.7-1.8,11.4l-0.3,1.4
		c-0.1,0.5-0.2,0.9-0.1,1.3c0,0.9,0.2,1.9,0.4,2.8c0.3,1.9,0.4,3.9-0.1,5.9c-0.3,0.9-0.6,2-1.1,2.8l-0.7,1.3
		c-0.2,0.4-0.4,0.8-0.6,1.3c-0.7,1.7-1.3,3.6-1.8,5.4c-1,3.7-1.9,7.5-3.5,11.1c-0.8,1.7-1.4,3.5-1.8,5.4c-0.4,1.8-0.8,3.7-1.1,5.6
		c-1.2,7.6-1.9,15.2-2.4,22.9c-0.3,3.8-0.3,7.7-0.8,11.6c-0.2,1.9-0.7,3.9-1.1,5.7c-0.4,1.9-0.7,3.7-0.9,5.6
		c-0.2,1.9-0.4,3.8-0.6,5.7c-0.1,1-0.1,1.9-0.3,2.9c-0.1,1-0.2,2-0.5,2.9c-0.8,3.9-2.3,7.5-3.9,11c-1.7,3.5-3.6,6.9-5.7,10.2
		c-2.1,3.3-4.3,6.4-6.7,9.5l0,0l0,0c-10.3,11-20.6,22-31,33l-3.9,4.1c-1.3,1.4-2.6,2.7-4,4.1c-1.3,1.4-2.7,2.7-4.1,4
		c-1.4,1.3-2.9,2.5-4.5,3.6c-1.6,1.1-3.5,1.9-5.5,2.4c-1.9,0.5-3.8,0.8-5.6,1.1c-2,0.3-4.1,0.3-6-0.3c-1-0.3-1.9-0.8-2.8-1.4
		c-0.9-0.6-1.6-1.3-2.3-2.3l0.1,0.2c-4.1-4.4-8.2-8.8-12.3-13.1c-1-1.1-2.1-2.1-3.2-3.1c-1.1-1.1-2.2-2.1-3.3-3.2
		c-2.2-2.1-4.1-4.4-6.1-6.8c-1.9-2.4-3.7-4.8-5.3-7.4c-1.7-2.5-3.2-5.1-4.8-7.6c-0.8-1.3-1.6-2.5-2.5-3.7c-0.5-0.6-0.9-1.1-1.4-1.7
		l-0.8-0.8c-0.2-0.2-0.5-0.6-0.7-0.9c-2-2.4-3.5-5-5.2-7.5c-6.4-10.2-12.4-20.6-18.4-31l-4.5-7.8l-1.1-2c-0.4-0.7-0.7-1.4-1-2.1
		c-0.6-1.4-1-2.9-1.5-4.3l-5.9-17l0,0.1c-1.3-2.7-2.7-5.5-4.2-8.1c-0.7-1.3-1.5-2.6-2.4-3.8c-0.9-1.2-1.8-2.5-2.6-3.8
		c-1.6-2.6-3-5.4-4.4-8.1l-2.1-4.1c-0.7-1.4-1.2-2.9-1.5-4.4c-0.6-3-0.9-6.1-1.2-9.1c-0.2-1.5-0.2-3-0.7-4.4
		c-0.6-1.4-1.1-2.9-1.5-4.3c-0.4-1.5-0.8-3-1.1-4.5c-0.1-0.8-0.2-1.5-0.2-2.3c0-0.8,0-1.5-0.1-2.3c-0.1-1.5-0.5-3-0.9-4.4
		c-0.5-1.4-1-2.9-1.6-4.2l0,0c-0.5-0.4-1-0.8-1.4-1.3c-0.4-0.5-0.6-1.1-0.6-1.8c0-0.3,0-0.6,0.1-1c0.1-0.3,0.2-0.6,0.4-0.9
		c0.1-0.3,0.3-0.5,0.5-0.8c0.2-0.3,0.4-0.5,0.6-0.7c0.3-0.2,0.5-0.4,0.8-0.5c0.1-0.1,0.3-0.1,0.4-0.2l0.5-0.1
		c0.3-0.1,0.6-0.1,0.9-0.1c0.3,0,0.6,0,0.9,0.1C199.3,309.5,200.5,310,201.5,310.8z"/>
</g>
<polygon points="388.8,336.9 388.8,344.2 391.6,340.2 391.6,338.9 394.6,337.2 395.5,333.6 393.6,331.6 393,334.9 "/>
<path d="M399,309.1c0,0-0.5,9.5-2.2,11l1.1,3.5c0,0,2.5-6.4,2.5-9.8S399.5,309.5,399,309.1z"/>
<g>
	<path d="M198.8,319.5c0,0,1.3,0.7,3,2.2c0.4,0.4,0.9,0.8,1.3,1.3c0.4,0.5,0.9,1,1.3,1.6c0.4,0.6,0.8,1.3,1,2
		c0.3,0.7,0.4,1.6,0.4,2.5c-0.1,1.4-0.1,2.9-0.2,4.2c-0.1,1.4-0.3,2.7-0.5,3.8c-0.3,1.1-0.6,2-0.9,2.6c-0.1,0.3-0.3,0.5-0.4,0.7
		c-0.1,0.1-0.1,0.2-0.1,0.2s0.1-0.4,0.1-1c0.1-0.6,0.1-1.5,0.2-2.6c0-1.1,0-2.3-0.1-3.6c-0.1-1.3-0.1-2.8,0-4.3
		c0-0.6-0.1-1.2-0.3-1.8c-0.2-0.6-0.4-1.2-0.7-1.8c-0.3-0.6-0.6-1.1-0.9-1.6c-0.3-0.5-0.7-1-0.9-1.4
		C199.7,320.7,198.8,319.5,198.8,319.5z"/>
</g>
<g>
	<path d="M309,335.8c0,0,1.9,0.8,4.7,1.8c0.7,0.2,1.5,0.4,2.3,0.7c0.8,0.2,1.7,0.5,2.6,0.6c0.5,0.1,0.9,0.2,1.4,0.3
		c0.5,0.1,0.9,0.2,1.4,0.3c1,0.2,1.9,0.3,2.9,0.4c1,0.2,2,0.2,2.9,0.3c1,0,1.9,0.1,2.9,0.1c0.9,0,1.8,0,2.7,0c0.9,0,1.7-0.1,2.4-0.1
		c0.7-0.1,1.4,0,2.1-0.1c0.6-0.1,1.1-0.1,1.6-0.2c0.9-0.1,1.4-0.1,1.4-0.1s-0.5,0.2-1.3,0.5c-0.4,0.1-0.9,0.3-1.5,0.5
		c-0.6,0.2-1.3,0.3-2,0.5c-0.8,0.2-1.6,0.4-2.4,0.5c-0.9,0.1-1.8,0.3-2.8,0.3c-1,0-2,0.1-3,0c-1-0.1-2.1-0.1-3.1-0.2
		c-1-0.2-2.1-0.3-3-0.5c-1-0.2-2-0.5-2.9-0.8c-0.9-0.2-1.8-0.6-2.6-0.9c-0.8-0.4-1.6-0.7-2.3-1.1c-0.7-0.3-1.3-0.7-1.8-1
		c-0.5-0.3-1-0.6-1.3-0.9C309.4,336.1,309,335.8,309,335.8z"/>
</g>
<g>
	<path d="M268,338c0,0,0,0.6-0.4,1.3c-0.2,0.4-0.4,0.8-0.7,1.1c-0.3,0.4-0.7,0.7-1.1,1c-0.4,0.3-0.9,0.5-1.4,0.7
		c-0.5,0.1-0.9,0.2-1.3,0.3c-0.8,0.1-1.3-0.1-1.3-0.1s0.1-0.1,0.2-0.3c0.2-0.2,0.4-0.4,0.7-0.7c0.3-0.3,0.6-0.5,0.9-0.8
		c0.3-0.3,0.7-0.5,1.1-0.8c0.7-0.5,1.5-0.9,2.2-1.2C267.5,338.2,268,338,268,338z"/>
</g>
<g>
	<path d="M240.5,345.5c0,0-0.3,0.1-0.7,0.3c-0.4,0.2-1,0.6-1.6,0.9c-0.3,0.2-0.7,0.4-1.1,0.7c-0.4,0.2-0.7,0.5-1.2,0.7
		c-0.4,0.3-0.8,0.5-1.2,0.8c-0.4,0.3-0.8,0.6-1.2,0.9c-0.4,0.3-0.8,0.6-1.2,0.9c-0.4,0.3-0.8,0.6-1.2,0.9c-0.4,0.3-0.8,0.6-1.1,0.8
		c-0.3,0.3-0.7,0.5-1,0.8c-0.6,0.5-1.2,0.9-1.6,1.1c-0.4,0.3-0.6,0.4-0.6,0.4s0.1-0.2,0.3-0.7c0.2-0.4,0.6-1,1.1-1.7
		c0.5-0.7,1.1-1.4,1.8-2.1c0.4-0.4,0.7-0.7,1.1-1.1c0.4-0.4,0.8-0.7,1.3-1c0.4-0.3,0.9-0.6,1.4-0.9c0.5-0.3,0.9-0.5,1.4-0.7
		c0.9-0.4,1.8-0.7,2.6-0.9c0.8-0.2,1.5-0.3,2-0.3C240.2,345.5,240.5,345.5,240.5,345.5z"/>
</g>
<path d="M256.7,455l0.3,16.7l7.3,30.7l23.3,66.7c0,0,6.3,12.3,11,19c4.7,6.7,8.3,23,8.3,23l2.3-17.3l18.7-25.3l17.3-24.7l30.3-54.3
	l17.7-31.7c0,0,7.3-13.7-2.3-30.7l79,35.3l98.7,36c0,0,32.7,33.3,45,72c12.3,38.7,19.3,70,19.3,70H20l7.3-17.7c0,0,1.3-12.3,7.7-21
	c6.3-8.7,24-49,44.7-67.3c20.7-18.3,27.7-26.7,27.7-26.7l40.3-17.7l103-44.7L256.7,455z"/>
<g>
	<path d="M393,429.5c0,0-0.3-0.1-0.9-0.4c-0.3-0.2-0.6-0.4-0.9-0.6c-0.3-0.3-0.7-0.6-1.1-1c-0.4-0.4-0.8-0.8-1.1-1.3
		c-0.4-0.5-0.7-1-1.1-1.6c-0.3-0.6-0.7-1.2-1-1.8c-0.3-0.6-0.6-1.3-0.8-2c-0.2-0.7-0.4-1.4-0.6-2c-0.2-0.7-0.3-1.4-0.4-2
		c-0.1-0.7-0.2-1.3-0.2-1.9c-0.1-0.6-0.1-1.2-0.1-1.7c-0.1-1.1,0-1.9,0.1-2.6c0.1-0.6,0.1-1,0.1-1s0.1,0.3,0.3,0.9
		c0.2,0.6,0.4,1.4,0.7,2.4c0.1,0.5,0.3,1,0.4,1.6c0.1,0.6,0.3,1.2,0.5,1.8c0.1,0.6,0.4,1.2,0.6,1.9c0.2,0.6,0.4,1.3,0.6,1.9
		c0.2,0.6,0.4,1.3,0.7,1.9c0.2,0.6,0.5,1.2,0.7,1.8c0.3,0.6,0.5,1.1,0.8,1.6c0.3,0.5,0.5,1,0.8,1.4c0.2,0.4,0.5,0.8,0.7,1.2
		c0.2,0.3,0.4,0.6,0.6,0.9C392.7,429.2,393,429.5,393,429.5z"/>
</g>
<path class="st3" d="M276,537.8l11.8-18.2c0,0,5.8-11.8,16.5-11.2"/>
<polyline class="st3" points="313.2,507.8 321.2,506.5 350.2,532.8 "/>
<path class="st3" d="M289.2,517.2c0,0,7,15,2.2,42l-5,10"/>
<path class="st3" d="M342.5,526c0,0-17.5,18.5-21.2,30.5c0,0,5.5,8.8,6.2,13.2"/>
<path class="st3" d="M291.5,559.2c0,0,13.2-7,29.8-2.8"/>
<path d="M301,555.8c0,0,4.2,3.8,4.2,7s3-8,4.5-7.8L301,555.8z"/>
<path d="M304.5,568.5l-5.8,19.5l3.6,6.5C302.2,594.5,306.5,585.2,304.5,568.5z"/>
</svg>
