<?xml version="1.0" encoding="utf-8"?>
<!-- Generator: Adobe Illustrator 19.0.1, SVG Export Plug-In . SVG Version: 6.00 Build 0)  -->
<svg version="1.1" id="Layer_1" xmlns="http://www.w3.org/2000/svg" xmlns:xlink="http://www.w3.org/1999/xlink" x="0px" y="0px"
	 viewBox="0 0 640 640" style="enable-background:new 0 0 640 640;" xml:space="preserve">
<style type="text/css">
	.st0{fill:none;stroke:#000000;stroke-width:1.3455;stroke-miterlimit:10;}
	.st1{clip-path:url(#SVGID_2_);}
	.st2{fill:#FFFFFF;}
	.st3{clip-path:url(#SVGID_4_);}
	.st4{opacity:0.89;enable-background:new    ;}
</style>
<path d="M224.4,265.7c0,0-2.7-3-2.7-11.4c0-8.5-7.4-23.1-7-37c0.4-13.9,11-51.8,25.3-64.6c0,0,13.5-24,38.3-29.6
	c0,0,1.6-11.4,34.3-9.7l-2.7-3c0,0,12.1,5.7,21.3,5.7s33.9-3,43.3,22.2c0,0,28,6.7,36.3,45.5c4.7,17.8,17.5,13.2,7.4,45.7
	c0,0-6.5-3.4-8.3,3.8c-1.9,7.1,0.3,3.4,0.3,3.4l-5.7,10.1l-2-3l-6.1,18.2c0,0-4,0.7-5.1-5.1c-1.1-5.8-1.1-20.2-1.1-20.2
	s-1.3-6.7-5.4-8.7c-4-2-3.4-15.1-4.3-19.9s-4.3-16.8-3-27.6c1.3-10.8-13.2-13.5-17.8-27.6c0,0-17.2,5.1-28,2
	c-10.8-3.1-15.9,11-41.7,14.8s-33.4,2-44.4-3.4c0,0-3,7-9.7,13.7s-6.7,26.6-8.1,30.7C226.7,214.7,223.7,238.8,224.4,265.7z"/>
<path d="M310,232.3c0,0,15.1,7,23.3,4.7l5.7-0.9l21.5,11.4l4.4,0.7l-2.7-6.5c0,0-13.5-7.1-14.1-11.4c0,0-31.2,0.4-32.6,0L310,232.3z
	"/>
<path d="M276.9,238.8l-5.4-9.7c0,0-10.1,1.7-12.4,2.3c-2.3,0.4-11.7-1.3-18.4,4.4c-6.7,5.8-3.4,12.5-3.4,12.5s5.7-16.8,23.8-9.7
	C261.1,238.8,266.5,240.6,276.9,238.8z"/>
<g>
	<path d="M311.7,248.3c0,0,0.7-0.7,1.9-1.6c1.2-0.9,3.2-2.3,5.7-3.5c2.6-1.2,5.7-2.3,9.3-2.6c1.6,0,3.6,0,5.4,0.1
		c1.9,0.1,3.6,0.4,5.5,0.7c1.9,0.4,3.6,0.8,5.4,1.3c1.7,0.5,3.5,1.2,5.1,2c0.8,0.5,1.6,0.9,2.3,1.7c0.7,0.8,0.9,1.3,1.5,1.9
		c0.9,1.2,1.9,2.2,3,2.8c2.2,1.3,4.4,2,5.9,2.3c0.8,0.1,1.3,0.3,1.7,0.4c0.4,0.1,0.7,0.1,0.7,0.1s-0.3,0-0.7,0c-0.4,0-1.1,0-1.9,0
		c-1.6,0-4-0.3-6.6-1.5c-1.3-0.7-2.6-1.6-3.8-2.8c-0.5-0.5-1.1-1.3-1.6-1.7c-0.4-0.4-1.1-0.8-1.7-1.1c-1.5-0.7-3.1-1.2-4.7-1.6
		c-1.6-0.4-3.4-0.8-5.1-1.2c-1.7-0.3-3.5-0.5-5.2-0.8c-1.7-0.1-3.4-0.3-5.1-0.3c-1.6,0-3.1,0.1-4.6,0.4c-1.5,0.3-2.8,0.7-4.2,1.1
		c-2.6,0.9-4.6,1.9-5.9,2.6C312.5,247.8,311.7,248.3,311.7,248.3z"/>
</g>
<g>
	<path d="M349.5,247.9c-0.7,0.3-1.3,0.5-2,0.9c-0.7,0.4-1.3,0.7-1.9,1.1s-1.2,0.9-1.7,1.3c-0.7,0.4-1.3,0.8-2,1.1
		c-0.7,0.3-1.5,0.5-2.3,0.8c-0.8,0.1-1.5,0.3-2.3,0.4c-0.8,0.1-1.5,0.1-2.3,0.1c-0.8,0-1.5,0-2.3-0.1c-0.8-0.1-1.5-0.1-2.3-0.3
		l-2.3-0.4l-2.2-0.5c-0.7-0.1-1.5-0.4-2-0.4c-1.3-0.3-2.7-0.4-4-0.3c-0.7,0-1.3,0-2,0.1c-0.7,0.1-1.3,0.1-2,0.4l-4.3,1.1l3.2-3
		c0.9-0.9,2-1.7,3.1-2.6c1.1-0.8,2.2-1.5,3.2-2.3c1.1-0.7,2.3-1.3,3.5-1.9c0.3-0.1,0.7-0.3,0.9-0.4c0.3-0.1,0.7-0.3,0.9-0.3
		c0.7-0.3,1.2-0.3,1.9-0.4c-1.2,0.5-2.3,1.2-3.2,1.9c-1.1,0.7-2,1.5-3,2.3c-0.9,0.8-1.9,1.6-2.8,2.6c-0.9,0.8-1.7,1.7-2.7,2.7
		l-1.2-1.9c0.8-0.3,1.6-0.4,2.3-0.5c0.8-0.1,1.5-0.3,2.3-0.3c1.6-0.1,3.1,0,4.7,0.3c0.8,0.1,1.5,0.3,2.3,0.5l2.2,0.5
		c1.3,0.3,2.8,0.5,4.2,0.8c2.8,0.4,5.7,0.4,8.3-0.3c1.3-0.4,2.6-1.1,3.9-1.7c0.7-0.3,1.3-0.5,2.2-0.8
		C348.1,248.2,348.9,248,349.5,247.9z"/>
</g>
<g>
	<path d="M281.9,250.6c-0.5-0.7-1.2-1.2-1.9-1.7c-0.7-0.5-1.3-1.1-2-1.5c-0.7-0.4-1.5-0.8-2.3-1.2c-0.8-0.4-1.5-0.7-2.3-0.8
		c-0.8-0.1-1.6-0.4-2.4-0.5l-1.2-0.3l-1.2-0.1c-0.8-0.1-1.6-0.1-2.4-0.1c-0.8,0-1.6,0.1-2.4,0.1H263l-0.5,0.1l-1.3,0.1
		c-0.9,0.1-1.6,0.3-2.4,0.4c-0.8,0.1-1.6,0.4-2.4,0.5c-0.8,0.3-1.6,0.4-2.3,0.8c-0.8,0.3-1.5,0.7-2.2,1.1c-0.7,0.4-1.3,0.8-2,1.3
		c-0.7,0.5-1.2,0.9-1.7,1.6c-0.5,0.5-0.9,1.2-1.3,1.7l-0.1,0.3l0,0c-0.3,0.3-0.5,0.5-0.8,0.8s-0.5,0.4-0.8,0.7
		c-0.5,0.4-1.2,0.8-1.7,1.1c-0.7,0.3-1.3,0.5-2,0.7c-0.4,0.1-0.7,0.1-1.1,0.1c-0.4,0.1-0.7,0-1.1,0s-0.7,0-1.1-0.1
		c-0.4-0.1-0.7-0.1-1.1-0.3L236,255l-0.9-0.4c-0.5-0.3-1.1-0.8-1.6-1.2c-0.4-0.5-0.8-0.9-1.3-1.5c0.5,0.4,1.1,0.8,1.6,1.1
		c0.5,0.3,1.1,0.7,1.6,0.8l0.8,0.4l0.9,0.1c0.3,0.1,0.5,0,0.9,0.1c0.3,0,0.5,0,0.9,0c0.3,0,0.5,0,0.8-0.1c0.3-0.1,0.5-0.1,0.8-0.3
		c0.5-0.1,1.1-0.5,1.6-0.8c0.5-0.3,0.9-0.7,1.3-1.1c0.3-0.1,0.4-0.4,0.7-0.7c0.1-0.3,0.4-0.4,0.5-0.7l-0.1,0.3
		c0.4-1.1,0.9-1.7,1.5-2.6c0.5-0.8,1.2-1.3,2-2c0.4-0.3,0.7-0.5,1.1-0.8l1.2-0.8c0.8-0.4,1.6-0.9,2.4-1.2c0.8-0.4,1.7-0.7,2.6-0.9
		c0.9-0.3,1.7-0.4,2.7-0.7c0.9-0.1,1.9-0.4,2.7-0.4l1.3-0.1h0.7h0.7c0.9,0,1.7,0,2.7,0c0.9,0.1,1.7,0.1,2.7,0.3l1.3,0.3l1.3,0.4
		c0.9,0.1,1.7,0.5,2.6,0.9c0.8,0.4,1.6,0.8,2.4,1.2c0.4,0.3,0.8,0.5,1.1,0.8c0.4,0.3,0.7,0.5,1.1,0.8c0.7,0.5,1.3,1.2,1.9,1.9
		C280.9,249.1,281.5,249.8,281.9,250.6z"/>
</g>
<g>
	<path d="M249.3,248.9c0,0,0.4,0.1,1.2,0.4c0.8,0.3,1.9,0.7,3.1,1.1c0.7,0.1,1.3,0.4,2,0.5c0.7,0.3,1.5,0.4,2.3,0.5
		c0.8,0.1,1.6,0.3,2.4,0.4c0.8,0.1,1.7,0.3,2.6,0.3l1.3,0.1c0.4,0,0.8,0,1.2,0c0.8,0,1.6,0,2.4,0s1.6-0.1,2.3-0.3
		c0.8,0,1.5-0.1,2.2-0.3c0.7-0.1,1.2-0.1,1.7-0.3c0.5-0.1,0.9-0.3,1.3-0.4c0.8-0.1,1.2-0.3,1.2-0.3s-0.4,0.3-1.1,0.8
		c-0.3,0.3-0.8,0.5-1.2,0.8c-0.5,0.3-1.1,0.5-1.7,0.8c-0.3,0.1-0.7,0.3-0.9,0.4c-0.4,0.1-0.7,0.3-1.1,0.4c-0.8,0.3-1.6,0.5-2.6,0.5
		c-0.9,0.1-1.7,0.3-2.7,0.3c-0.4,0-0.9,0-1.5,0l-1.5-0.1c-0.9,0-1.9-0.3-2.8-0.4c-0.9-0.1-1.7-0.5-2.7-0.7c-0.8-0.3-1.6-0.5-2.3-0.9
		c-0.7-0.3-1.3-0.7-2-1.1c-0.7-0.3-1.1-0.7-1.6-1.1c-0.4-0.4-0.8-0.7-1.2-0.9C249.7,249.1,249.3,248.9,249.3,248.9z"/>
</g>
<g>
	<path d="M354.9,254.6c0,0,1.5-0.3,3.5-0.1c1.1,0.1,2.3,0.3,3.5,0.5c1.2,0.3,2.6,0.7,3.9,1.1c1.3,0.5,2.6,1.1,3.8,1.7
		c1.2,0.7,2.2,1.3,3,2c0.4,0.4,0.8,0.7,1.1,0.9c0.3,0.3,0.5,0.7,0.7,0.8c0.4,0.5,0.5,0.8,0.5,0.8s-0.4-0.1-0.9-0.4
		c-0.3-0.1-0.5-0.3-0.9-0.4c-0.4-0.1-0.8-0.3-1.2-0.5c-0.4-0.1-0.9-0.4-1.5-0.5c-0.5-0.3-1.1-0.4-1.6-0.7c-1.2-0.4-2.4-0.9-3.6-1.3
		c-0.7-0.3-1.2-0.4-1.9-0.7c-0.7-0.3-1.2-0.4-1.7-0.7c-1.2-0.4-2.3-0.8-3.2-1.2C356.3,255.3,354.9,254.6,354.9,254.6z"/>
</g>
<g>
	<path d="M244.5,255.3c0,0-0.4,1.1-1.5,2.2c-0.5,0.5-1.3,1.2-2.2,1.7c-0.9,0.5-1.9,0.9-3,1.2c-0.5,0.1-1.1,0.3-1.6,0.3
		c-0.5,0-1.1,0-1.6-0.1c-0.5,0-1.1-0.1-1.5-0.4c-0.4-0.1-0.8-0.3-1.2-0.5c-0.8-0.4-1.2-0.8-1.6-1.1c-0.4-0.3-0.5-0.5-0.5-0.5
		s0.3,0,0.8,0c0.3,0,0.5,0,0.8,0.1c0.3,0,0.7,0,0.9,0c0.4,0,0.8,0,1.2,0s0.8,0,1.2,0s0.8,0,1.3-0.1c0.4,0,0.8-0.1,1.3-0.3
		c0.4,0,0.8-0.3,1.3-0.3c0.4-0.1,0.8-0.3,1.2-0.4c0.8-0.3,1.6-0.5,2.3-0.8C243.5,255.7,244.5,255.3,244.5,255.3z"/>
</g>
<g>
	<path d="M276.6,280.2c-0.7,0.9-1.3,1.9-1.9,2.8c-0.5,0.9-1.1,2-1.5,3c-0.4,1.1-0.7,2.2-0.8,3.1c0,0.5,0,1.1,0,1.6
		c0.1,0.5,0.1,0.9,0.4,1.5c0.1,0.4,0.4,0.8,0.8,1.2c0.3,0.4,0.7,0.7,1.1,1.1c0.4,0.3,0.8,0.5,1.3,0.8c0.4,0.3,0.9,0.4,1.5,0.7
		c1.1,0.4,2,0.7,3.1,0.8c1.1,0.1,2.2,0.3,3.2,0.4h0.4l0.4,0.4c0.1,0.3,0.5,0.5,0.8,0.8c0.3,0.3,0.5,0.5,0.9,0.7
		c0.3,0.3,0.7,0.4,0.9,0.7c0.4,0.1,0.7,0.4,1.1,0.5c0.4,0.1,0.7,0.3,1.1,0.4c0.4,0.1,0.7,0.3,1.1,0.3c0.4,0,0.8,0.1,1.1,0.1
		c0.4,0,0.8,0,1.1,0l1.2-0.1c0.4,0,0.8-0.1,1.1-0.3c0.4-0.1,0.8-0.1,1.1-0.3l1.1-0.4c0.4-0.1,0.7-0.4,1.1-0.5l1.1-0.5l2-1.3l0.7-0.4
		l0.7,0.3c0.7,0.3,1.5,0.5,2.3,0.8c0.8,0.3,1.6,0.4,2.4,0.5c0.8,0.1,1.6,0.3,2.4,0.3c0.8,0,1.6,0.1,2.4,0c0.4,0,0.8,0,1.2-0.1
		c0.4,0,0.8-0.1,1.2-0.3c0.4-0.1,0.8-0.1,1.2-0.3l1.1-0.4c0.4-0.1,0.7-0.4,1.1-0.5l0.5-0.3l0.4-0.4c0.3-0.3,0.7-0.5,0.8-0.8l0.8-0.9
		l0.1-0.3l0,0l0,0c0,0-0.1,0.1,0,0.1l0,0l0,0l0.1-0.1l0.3-0.5c0.1-0.4,0.5-0.8,0.5-1.1c0.1-0.4,0.3-0.7,0.4-1.1
		c0.1-0.4,0.1-0.8,0.1-1.2c0.1-0.4,0-0.8,0-1.2c0-0.4,0-0.8-0.1-1.2c-0.1-0.8-0.4-1.6-0.7-2.4l-0.5-1.2c-0.1-0.4-0.4-0.7-0.7-1.1
		c-0.4-0.7-0.9-1.5-1.5-2.2c-0.5-0.7-1.1-1.3-1.7-2c-0.5-0.7-1.2-1.2-1.9-1.7c1.5,0.9,2.8,2,4.2,3.4c0.7,0.7,1.2,1.3,1.7,2
		c0.3,0.4,0.5,0.7,0.8,1.1l0.7,1.2c0.4,0.8,0.8,1.6,0.9,2.6c0.1,0.4,0.3,0.9,0.3,1.3c0,0.5,0.1,0.9,0.1,1.5s0,0.9-0.1,1.5
		s-0.3,0.9-0.4,1.5s-0.4,0.8-0.5,1.2l-0.3,0.5l-0.1,0.1l0,0v0.1l0,0v0.1l-0.3,0.3l-0.8,1.2c-0.3,0.4-0.7,0.7-1.1,1.1l-0.5,0.5
		l-0.5,0.4c-0.4,0.3-0.8,0.5-1.2,0.8l-1.3,0.5c-0.4,0.1-0.9,0.3-1.3,0.4c-0.4,0.1-0.9,0.3-1.3,0.3c-0.4,0.1-0.9,0.1-1.3,0.1
		c-0.9,0.1-1.9,0.1-2.8,0c-0.9-0.1-1.9-0.1-2.7-0.3c-0.9-0.1-1.7-0.4-2.7-0.5c-0.9-0.3-1.7-0.5-2.7-0.8l1.3-0.1l-2.3,1.5l-1.2,0.7
		c-0.4,0.1-0.8,0.4-1.2,0.5l-1.3,0.5c-0.4,0.1-0.9,0.3-1.3,0.4c-0.4,0.1-0.9,0.3-1.3,0.3l-1.5,0.1c-0.5,0-0.9,0-1.5,0
		s-0.9-0.1-1.5-0.3c-0.5,0-0.9-0.3-1.3-0.4c-0.4-0.1-0.9-0.4-1.3-0.5c-0.4-0.1-0.8-0.4-1.2-0.7c-0.4-0.3-0.8-0.5-1.2-0.8
		c-0.4-0.3-0.7-0.5-1.1-0.9c-0.4-0.4-0.7-0.7-0.9-1.1l0.8,0.4c-1.2-0.1-2.3-0.4-3.5-0.7s-2.3-0.7-3.4-1.1c-0.5-0.3-1.1-0.5-1.6-0.8
		c-0.5-0.3-1.1-0.7-1.5-1.1c-0.4-0.4-0.9-0.9-1.3-1.3c-0.4-0.5-0.7-1.1-0.8-1.7c-0.3-0.7-0.3-1.2-0.4-1.9c0-0.7,0-1.2,0.1-1.9
		c0.3-1.2,0.7-2.3,1.2-3.4C273.5,283.6,275,281.8,276.6,280.2z"/>
</g>
<g>
	<path d="M267.9,322.2c0,0,1.1-0.1,2.8-0.4c1.7-0.3,4.3-0.5,7.4-0.8c1.5-0.1,3.2-0.3,5-0.4c1.7-0.1,3.6-0.3,5.5-0.3
		c1.9-0.1,3.9-0.3,5.9-0.3c2,0,4-0.1,6.1-0.1c2,0,4,0,6.1,0c2,0,3.9,0,5.8,0s3.8-0.1,5.5-0.1s3.4-0.1,5,0c1.6,0,3,0.1,4.3,0.3
		c1.2,0.1,2.4,0.4,3.2,0.5c0.9,0.1,1.6,0.4,2,0.5c0.4,0.1,0.7,0.3,0.7,0.3s-1.1,0-2.8,0c-0.9,0-2,0-3.2,0.1c-1.2,0.1-2.6,0.3-4,0.5
		c-3,0.5-6.6,1.1-10.4,1.5c-1.9,0.1-3.9,0.4-5.9,0.4c-2,0.1-4,0.1-6.2,0.1c-2,0-4,0-6.1,0c-2,0-4-0.1-5.9-0.1s-3.8-0.1-5.5-0.3
		c-1.7,0-3.4-0.1-5-0.3c-3.1-0.3-5.7-0.4-7.4-0.7C268.9,322.3,267.9,322.2,267.9,322.2z"/>
</g>
<g>
	<path d="M287.7,333.9c0,0,1.9-0.1,4.6-0.1c1.3,0,3,0,4.6,0c1.6,0,3.5,0,5.2-0.1c3.6,0,7.1-0.1,9.8-0.3c0.7,0,1.3,0,1.9-0.1
		c0.5,0,1.1,0,1.5-0.1c0.8,0,1.3,0,1.3,0s-0.4,0.3-1.2,0.5c-0.8,0.4-1.9,0.8-3.2,1.2c-0.7,0.3-1.3,0.4-2.2,0.5
		c-0.8,0.1-1.6,0.4-2.4,0.4c-1.7,0.3-3.6,0.4-5.4,0.4c-0.9,0-1.9,0-2.8,0s-1.7-0.1-2.7-0.3c-1.7-0.1-3.4-0.4-4.7-0.8
		C289.4,334.7,287.7,333.9,287.7,333.9z"/>
</g>
<g>
	<path d="M345.5,305c0,0,1.3,0.9,2.7,3c0.3,0.5,0.7,1.1,1.1,1.6c0.4,0.7,0.7,1.2,0.9,2c0.3,0.7,0.5,1.5,0.7,2.3
		c0.1,0.8,0.4,1.6,0.4,2.4s0.1,1.6,0,2.6c0,0.4-0.1,0.8-0.1,1.2c-0.1,0.4-0.3,0.8-0.3,1.2c-0.1,0.8-0.5,1.5-0.8,2.2
		c-0.1,0.3-0.3,0.7-0.4,0.9c-0.1,0.3-0.4,0.5-0.5,0.8c-0.4,0.5-0.7,0.9-1.1,1.3c-0.4,0.4-0.7,0.7-0.9,0.8c-0.5,0.4-0.8,0.7-0.8,0.7
		s0.1-0.4,0.4-1.1c0.1-0.3,0.3-0.7,0.5-1.1c0.1-0.4,0.3-0.9,0.5-1.5c0.1-0.3,0.1-0.5,0.3-0.8c0.1-0.3,0.1-0.5,0.3-0.9
		c0.1-0.7,0.3-1.2,0.4-1.9c0-0.3,0.1-0.7,0.1-0.9c0-0.4,0-0.7,0-1.1c0-0.7,0-1.3,0-2.2c0-0.7-0.1-1.5-0.3-2.2
		c-0.1-0.7-0.3-1.3-0.4-2s-0.3-1.3-0.5-1.9c-0.1-0.7-0.4-1.2-0.5-1.7C346.2,306.4,345.5,305,345.5,305z"/>
</g>
<g>
	<path d="M263.6,297.8c0,0-0.3,0.4-0.8,1.1c-0.5,0.7-1.2,1.6-2,2.7c-0.4,0.5-0.8,1.2-1.2,1.9s-0.8,1.3-1.3,2
		c-0.5,0.7-0.8,1.5-1.2,2.3c-0.4,0.8-0.8,1.6-1.1,2.4c-0.3,0.8-0.7,1.6-0.8,2.4c-0.1,0.4-0.3,0.8-0.4,1.2c-0.1,0.4-0.1,0.8-0.1,1.2
		c0,0.4-0.1,0.8-0.1,1.2c0,0.4,0,0.8,0,1.2c0,0.4,0,0.8,0,1.1c0,0.4,0,0.7,0,1.1c0,0.7,0,1.3,0.1,1.9c0.1,0.5,0.1,1.1,0.3,1.5
		c0.1,0.8,0.1,1.3,0.1,1.3s-0.3-0.4-0.7-1.1c-0.3-0.4-0.4-0.8-0.7-1.3s-0.4-1.2-0.7-1.9c-0.1-0.4-0.3-0.7-0.3-1.1s-0.1-0.8-0.1-1.2
		c0-0.4-0.1-0.8-0.1-1.3c0-0.4,0-0.9,0-1.3c0-0.4,0-0.9,0.1-1.5c0.1-0.5,0.1-0.9,0.3-1.5c0.1-0.9,0.5-1.9,0.8-2.8
		c0.4-0.9,0.8-1.7,1.2-2.7c0.5-0.8,0.9-1.6,1.6-2.3c0.5-0.8,1.1-1.3,1.7-2c0.5-0.7,1.2-1.1,1.7-1.6
		C261.8,298.5,263.6,297.8,263.6,297.8z"/>
</g>
<g>
	<path d="M349.9,342c0,0,0.4-0.1,0.9-0.5c0.5-0.4,1.2-1.1,2-1.9c0.4-0.4,0.8-0.8,1.2-1.3c0.4-0.5,0.8-0.9,1.2-1.6
		c0.4-0.5,0.8-1.1,1.3-1.7c0.4-0.5,0.8-1.2,1.2-1.9c0.4-0.5,0.8-1.2,1.2-1.9c0.4-0.7,0.8-1.2,1.2-1.9c0.4-0.7,0.8-1.2,1.1-1.7
		c0.3-0.5,0.7-1.1,1.1-1.6c0.7-0.9,1.2-1.7,1.6-2.4c0.4-0.5,0.7-0.9,0.7-0.9s0,0.4-0.1,1.1c0,0.4-0.1,0.8-0.3,1.2
		c-0.1,0.5-0.3,1.1-0.4,1.6c-0.4,1.1-0.8,2.4-1.5,3.8c-0.3,0.7-0.7,1.3-1.1,2c-0.4,0.7-0.8,1.3-1.2,2c-0.4,0.7-0.9,1.3-1.5,1.9
		c-0.5,0.7-1.1,1.2-1.6,1.7c-0.5,0.5-1.1,0.9-1.6,1.5c-0.5,0.4-1.1,0.8-1.6,1.1c-0.5,0.3-1.1,0.5-1.5,0.7c-0.4,0.1-0.9,0.3-1.2,0.4
		c-0.4,0.1-0.7,0.1-0.8,0.1C350.1,342,349.9,342,349.9,342z"/>
</g>
<g>
	<path d="M245.3,322.9c0,0,0.7,1.2,1.7,3c0.5,0.8,1.1,1.9,1.7,3c0.7,1.1,1.3,2.2,2,3.4c0.7,1.1,1.5,2.2,2.2,3.2
		c0.4,0.5,0.7,0.9,1.1,1.5c0.3,0.5,0.7,0.9,0.9,1.3c0.3,0.4,0.5,0.8,0.8,1.1c0.3,0.3,0.5,0.7,0.7,0.9c0.4,0.5,0.5,0.8,0.5,0.8
		s-0.3-0.1-0.9-0.4c-0.5-0.3-1.3-0.7-2.2-1.3c-0.4-0.3-0.9-0.7-1.3-1.1c-0.4-0.4-0.9-0.8-1.3-1.3c-0.4-0.5-0.9-0.9-1.3-1.6
		c-0.4-0.5-0.8-1.1-1.2-1.7c-0.4-0.5-0.8-1.2-1.1-1.9c-0.4-0.7-0.5-1.2-0.8-1.9c-0.5-1.2-0.8-2.4-1.1-3.5
		C245.1,324.2,245.3,322.9,245.3,322.9z"/>
</g>
<g>
	<path d="M224.8,253.2c0,0,0.3,3.5,0.8,9.7c0.4,6.2,1.2,15.1,2,25.6c0.5,5.2,0.9,11,1.9,17c0.5,3,1.2,6.1,1.6,9.3
		c0.5,3.1,0.9,6.3,1.6,9.7c1.2,6.5,2.8,13.2,5.7,19.4c1.5,3.1,3.1,6.1,5.2,8.7c2.2,2.6,4.7,4.8,7.5,7c5.5,4.2,11.8,7.3,18.3,9.8
		c3.2,1.3,6.5,2.4,9.7,3.6c1.6,0.5,3.2,1.1,4.8,1.6s3.2,0.9,4.7,1.3c6.3,1.5,12.6,2.2,18.7,1.9c6.1-0.1,11.6-1.3,16.7-2.8
		c5.2-1.3,10-2.4,14-3.6c4.2-1.2,7.7-2.6,10.4-3.9c2.7-1.5,4.7-2.8,5.9-3.9c0.7-0.5,1.1-1.1,1.3-1.3c0.3-0.3,0.4-0.4,0.4-0.4
		s-0.1,0.1-0.4,0.5c-0.3,0.3-0.7,0.8-1.3,1.3c-1.2,1.2-3.1,2.8-5.8,4.3c-2.7,1.5-6.2,3.1-10.4,4.4c-2,0.7-4.3,1.3-6.6,2
		s-4.8,1.3-7.3,2.2c-5.1,1.6-10.9,3-17.1,3.4c-6.2,0.4-12.8-0.1-19.4-1.6c-1.6-0.4-3.2-0.8-5-1.3c-1.6-0.5-3.2-1.1-4.8-1.6
		c-3.2-1.1-6.6-2.3-9.8-3.5c-6.6-2.6-13.1-5.8-19-10.1c-2.8-2.2-5.7-4.7-7.9-7.5c-2.3-2.8-4-6.1-5.5-9.3c-3-6.6-4.4-13.3-5.7-19.9
		c-0.5-3.4-1.1-6.6-1.5-9.7c-0.4-3.2-0.9-6.2-1.3-9.3c-0.8-6.2-1.1-11.8-1.5-17.2c-0.7-10.6-0.8-19.5-1.1-25.7
		C224.8,256.7,224.8,253.2,224.8,253.2z"/>
</g>
<path class="st0" d="M219.7,238.1c0,0-5-3.6-5.4,9.4c-0.4,13.1-2.4,11.2,3.1,24.6c5.8,14,0.9,33.1,4,37.3c3.1,4.2,5,5.8,6.7,5.8"/>
<g>
	<path d="M417.5,226c1.5,1.3,3,2.8,4.4,4.3s2.8,3,4,4.7c0.7,0.8,1.2,1.7,1.6,2.8c0.1,0.5,0.3,0.9,0.5,1.5l0.5,1.5
		c0.7,2,1.2,4.2,1.2,6.3c0,2.2-0.1,4.3-0.5,6.3c-0.1,1.1-0.5,2-0.7,3.1c-0.3,0.9-0.5,2-0.7,3c-0.4,1.9-0.8,3.9-1.1,5.9l-0.9,6.1
		c-0.3,2-0.7,4-0.9,6.1c-0.4,2-0.8,4-1.2,6.1c-0.5,2-1.1,4-1.7,6.1c-0.3,0.9-0.8,2-1.2,3l-0.8,1.5l-0.7,1.3
		c-0.9,1.7-1.7,3.5-2.7,5.4c-0.8,1.9-1.7,3.9-3.5,5.5c-0.4,0.4-0.9,0.7-1.5,0.9c-0.5,0.1-1.1,0.5-1.6,0.5c-0.5,0.1-1.1,0.3-1.6,0.1
		c-0.5,0-1.1,0-1.6,0c-2.2-0.1-4.2-0.8-6.1-1.5h-0.1l-0.1-0.1c-0.4-0.7-0.7-1.5-0.9-2.2c-0.3-0.8-0.4-1.5-0.5-2.3
		c-0.1-1.6,0-3.2,0.5-4.6c-0.4,1.5-0.4,3.1,0,4.4c0.1,0.7,0.4,1.5,0.7,2.2c0.3,0.7,0.7,1.3,1.1,1.9l-0.3-0.3c2,0.4,4,0.8,5.9,0.8
		c1.9,0,3.9-0.3,5.1-1.5c1.2-1.2,2-3.1,2.8-5c0.4-0.9,0.8-1.9,1.2-2.8c0.4-0.9,0.9-2,1.3-2.8l0.7-1.3l0.7-1.3
		c0.4-0.9,0.8-1.7,1.1-2.8c0.7-1.9,1.2-3.8,1.6-5.8c0.9-3.9,1.5-7.9,2.2-12l1.1-6.1c0.4-2,0.8-4,1.3-6.1c0.3-1.1,0.5-2,0.8-3
		c0.3-0.9,0.5-1.9,0.8-2.8c0.4-1.9,0.8-3.9,0.8-5.8c0-2-0.3-3.9-0.8-5.8l-0.4-1.5c-0.1-0.5-0.3-1.1-0.4-1.5
		c-0.3-0.8-0.7-1.7-1.2-2.6c-1.1-1.7-2.3-3.4-3.5-5C420.1,229.2,418.8,227.6,417.5,226z"/>
</g>
<path d="M398.5,265.7c0,0,2.8-8.9,4-8.7c1.2,0.1,14.4-4.8,11.7,9.1c-2,10.5-4.3,11.6-5.2,11.4c-0.4,0-0.8,0-1.2,0.3l-3.9,2.6
	c-0.5,0.4-0.9,0.9-1.1,1.5l-1.5,4.8l-3.6-0.9c0,0,5.7-7.1,4.4-10.8C401.1,271.3,402.3,266.9,398.5,265.7z"/>
<path d="M410.5,239c0,0,4.6-8.1,10.1-2.8c5.5,5.2,1.5,24.8,1.5,24.8s-1.1,24.1-6.7,27.7c-2.2,1.3-2.8-1.5-2.8-1.5s-1.5-2.8,1.1-6.2
	c2.6-3.4,7-16,5.1-24.5C416.8,248,416.7,242.8,410.5,239z"/>
<g>
	<path d="M400,305c0,3.5,0.3,7,0.7,10.5c0.4,3.5,0.9,7,1.7,10.4c0.8,3.5,1.3,7,1.5,10.5c0.1,3.5,0,7.1-0.8,10.6
		c-0.4,1.7-0.9,3.5-1.6,5.1c-0.7,1.6-1.5,3.2-2.2,4.8c-1.5,3.2-3.2,6.3-5.2,9.3c-2,3-4.2,5.8-6.6,8.5c-1.2,1.3-2.4,2.6-3.6,3.9
		c-1.3,1.2-2.6,2.4-3.9,3.6c-2.7,2.4-5.4,4.6-8.2,6.9c-1.5,1.1-2.8,2.2-4.3,3.2l-4.3,3.1c-5.8,3.9-11.7,7.8-17.6,11.6
		c-3,1.9-5.9,3.8-9,5.7l-9,5.5c-3,1.9-5.9,3.6-8.9,5.7c-1.5,0.9-3,1.9-4.3,3c-1.3,0.9-2.8,2.2-3.6,3.2l-0.4,0.5h-0.5l-8.1,0.1h-0.4
		l-0.3-0.1c-5.7-3.6-11.2-7.4-16.5-11.6c-1.3-1.1-2.7-2.2-3.9-3.2c-1.2-1.1-2.4-2.3-3.6-3.8c-0.3-0.4-0.5-0.7-0.7-1.1
		c-0.3-0.4-0.5-0.8-0.7-1.2c-0.4-0.8-0.7-1.7-0.8-2.6c-0.3-1.7-0.3-3.4-0.5-5c-0.3-1.6-0.7-3.2-1.1-4.7c-0.5-1.6-1.1-3.1-1.7-4.6
		c-0.3-0.8-0.7-1.5-1.1-2.3c-0.3-0.8-0.5-1.6-0.8-2.4c-0.5-1.6-0.9-3.2-1.3-4.8c-0.4-1.6-0.8-3.2-1.5-4.7c-0.5-1.5-1.3-3.1-2.2-4.4
		c-0.8-1.5-1.7-2.8-2.7-4.2s-2-2.7-3.1-3.9c1.1,1.2,2.3,2.4,3.2,3.8c1.1,1.3,2,2.7,3,4c0.9,1.5,1.6,3,2.3,4.4
		c0.7,1.6,1.2,3.1,1.6,4.7c0.5,1.6,0.9,3.2,1.5,4.7c0.3,0.8,0.5,1.5,0.9,2.3c0.3,0.7,0.7,1.5,1.1,2.3c0.8,1.5,1.3,3.1,2,4.7
		c0.5,1.6,0.9,3.2,1.2,5s0.3,3.4,0.7,5c0.1,0.8,0.4,1.5,0.8,2.2c0.1,0.4,0.4,0.7,0.5,0.9c0.3,0.3,0.5,0.7,0.7,0.9
		c0.9,1.2,2.2,2.3,3.4,3.4s2.6,2.2,3.9,3.1c2.7,2,5.4,3.9,8.2,5.8c2.8,1.9,5.5,3.6,8.3,5.4l-0.7-0.1l8.1-0.3l-0.9,0.5
		c1.3-1.7,2.7-2.7,4.2-3.9c1.5-1.1,3-2,4.4-3.1c3-2,5.9-3.8,8.9-5.7l17.9-11.2c5.9-3.8,11.8-7.5,17.8-11.4l4.3-3
		c1.5-0.9,2.8-2,4.2-3.1c2.8-2.2,5.5-4.3,8.1-6.6c1.3-1.2,2.6-2.4,3.8-3.5c1.2-1.2,2.4-2.4,3.6-3.8c2.4-2.6,4.6-5.2,6.6-8.1
		c2-2.8,3.8-5.8,5.2-9c0.8-1.6,1.6-3.2,2.3-4.7c0.7-1.6,1.2-3.2,1.6-4.8c0.8-3.4,1.1-6.9,1.1-10.2c0-3.5-0.4-7-1.1-10.4
		C400.1,319.1,399.6,312,400,305z"/>
</g>
<g>
	<g>
		<defs>
			<polygon id="SVGID_1_" points="271.9,246.2 268.8,245.1 265.5,244.5 261.8,244.4 259.3,244.7 256.7,245.6 255.4,250.7 256.7,255 
				259.5,255.4 262.5,255.2 265.5,255.3 268.4,255 271.6,253.7 273.8,250.9 			"/>
		</defs>
		<clipPath id="SVGID_2_">
			<use xlink:href="#SVGID_1_"  style="overflow:visible;"/>
		</clipPath>
		<circle class="st1" cx="264.6" cy="249.5" r="6.6"/>
	</g>
</g>
<circle class="st2" cx="267.7" cy="249" r="1.6"/>
<g>
	<g>
		<defs>
			<polygon id="SVGID_3_" points="325.9,250.1 325.7,243.9 328.8,243.1 333.4,242.8 337.8,243.3 342.7,244.3 344.4,250.3 
				341.5,251.7 337.8,252.9 334.6,253.6 330.3,254.1 329.1,254.2 			"/>
		</defs>
		<clipPath id="SVGID_4_">
			<use xlink:href="#SVGID_3_"  style="overflow:visible;"/>
		</clipPath>
		<circle class="st3" cx="334.3" cy="247.8" r="7"/>
	</g>
</g>
<circle class="st2" cx="331" cy="246.8" r="1.5"/>
<g>
	<path d="M402.4,346.4c0,0,0.3,0.4,0.5,1.1c0.4,0.7,0.8,1.7,1.5,3c1.1,2.4,2.6,5.8,3.9,9.1c1.3,3.4,2.6,6.7,3.4,9.4
		c0.4,1.3,0.7,2.4,0.9,3.1c0.3,0.8,0.3,1.2,0.3,1.2s-0.3-0.4-0.5-1.1c-0.4-0.7-0.8-1.7-1.5-3c-1.1-2.4-2.6-5.8-3.9-9.1
		c-1.3-3.4-2.6-6.7-3.4-9.4c-0.4-1.3-0.7-2.4-0.9-3.1C402.6,346.8,402.4,346.4,402.4,346.4z"/>
</g>
<g>
	<path d="M271.5,392.2c0,0-0.3,0.8-0.5,1.9c-0.1,0.5-0.3,1.2-0.4,1.9c-0.1,0.7-0.3,1.5-0.4,2.2c-0.1,0.8-0.3,1.5-0.4,2.3
		c-0.1,0.7-0.3,1.3-0.4,2c-0.3,1.2-0.5,1.9-0.5,1.9s-0.1-0.8-0.3-2c-0.1-1.2,0-2.8,0.3-4.3c0.3-1.6,0.8-3.1,1.5-4.2
		c0.3-0.5,0.5-0.9,0.8-1.2C271.4,392.2,271.5,392.2,271.5,392.2z"/>
</g>
<g>
	<path d="M278.6,476.9c0,0,0-0.8,0.1-2.2c0.1-1.3,0.3-3.4,0.5-5.8c0.3-2.4,0.7-5.1,1.2-8.1c0.5-3,1.3-6.1,2.3-9.1s2-6.1,3.4-8.7
		c0.7-1.3,1.3-2.7,2-3.8c0.7-1.2,1.5-2.3,2.2-3.2c0.7-0.9,1.5-1.7,2.2-2.4s1.3-1.2,2-1.6c0.5-0.4,1.1-0.7,1.3-0.8
		c0.3-0.1,0.5-0.3,0.5-0.3s-0.1,0.1-0.4,0.3c-0.3,0.3-0.8,0.5-1.2,0.9c-0.5,0.4-1.1,1.1-1.7,1.7s-1.3,1.6-2,2.6
		c-0.7,0.9-1.3,2-2,3.2c-0.7,1.2-1.2,2.4-1.9,3.8c-1.2,2.7-2.2,5.7-3.1,8.7c-0.4,1.5-0.9,3.1-1.3,4.6c-0.4,1.5-0.8,3-1.1,4.4
		c-0.7,2.8-1.2,5.7-1.7,7.9c-0.4,2.3-0.8,4.3-1.1,5.7C278.8,476.1,278.6,476.9,278.6,476.9z"/>
</g>
<g>
	<path d="M300.4,430.5c0.1,1.1,0.1,2.2,0.3,3.2c0.1,1.1,0.1,2.2,0.1,3.2v-0.1c0.7,1.2,1.5,2.3,2.2,3.5c0.8,1.1,1.5,2.3,2.3,3.4
		c0.8,1.1,1.6,2.3,2.4,3.4c0.8,1.1,1.6,2.2,2.4,3.2l1.2,1.6c0.4,0.5,0.8,1.1,1.2,1.6c0.8,1.1,1.7,2.2,2.6,3.2c0.8,1.1,1.7,2,2.7,3.1
		c0.9,1.1,1.9,2,2.7,3.1c-1.1-0.9-2.2-1.7-3.1-2.7c-1.1-0.9-2-1.9-3-3c-0.9-0.9-1.9-2-2.8-3.1c-0.9-1.1-1.7-2.2-2.7-3.2
		c-1.7-2.2-3.4-4.4-4.8-6.7s-3-4.7-4.2-7.1V437v-0.1c0-1.1,0.1-2.2,0.1-3.2C300.3,432.5,300.4,431.4,300.4,430.5z"/>
</g>
<g>
	<path d="M282.9,453.4c0.5,1.2,0.9,2.4,1.3,3.8c0.4,1.2,0.7,2.6,1.1,3.8c0.3,1.3,0.5,2.6,0.8,3.9c0.1,0.7,0.3,1.3,0.3,1.9
		c0.1,0.7,0.1,1.3,0.3,2c0.1,1.3,0.3,2.7,0.3,3.9c0,0.7,0,1.3,0,2s0,1.3-0.1,2l-0.1,2c0,0.7-0.3,1.3-0.3,2c-0.1,0.7-0.3,1.3-0.4,2
		l-0.5,1.9l-0.4-0.8c2.7,0.5,5.5,1.1,8.3,1.5c1.3,0.1,2.8,0.4,4.2,0.5c1.3,0.1,2.8,0.3,4.2,0.3c-0.7,0-1.3,0.1-2.2,0.1
		c-0.7,0-1.5,0-2.2,0c-1.5,0-2.8,0-4.3-0.1c-2.8-0.3-5.7-0.5-8.5-1.1l-0.7-0.1l0.1-0.7l0.4-1.9c0.1-0.7,0.3-1.2,0.4-1.9
		c0.1-0.7,0.3-1.2,0.3-1.9l0.1-1.9c0.1-0.7,0-1.3,0.1-1.9c0-0.7,0-1.3,0-1.9c0-1.3,0-2.6-0.1-3.9c0-0.7-0.1-1.3-0.1-1.9
		c0-0.7-0.1-1.3-0.1-1.9c-0.1-1.3-0.3-2.6-0.5-3.9C284,458.5,283.6,455.9,282.9,453.4z"/>
</g>
<polygon points="289.8,486.5 286.3,508.5 293.7,500.7 291.7,486.6 "/>
<path d="M268.8,398.9c0,0-39.7,26.6-46.8,27.2s-96.6,41.4-96.6,41.4l-23.1,16.1l-68.6,94.5L2,640h637.1l-13.5-98.2l-20.2-50.5
	l-39.7-35l-55.8-28.9l-56.5-27.6l-32-23.8l-14.8-17.1l3,12.5c0,0,0.5,7.3-19.2,26.9c-19.9,19.6-62.2,50.1-69.7,62.4
	c-7.7,12.4-27.2,32.4-27.2,32.4l-7.9,13.5l-9-23.1l0.5-11.2c0,0-4.7-15.5-5.2-35.4C271.5,424.8,268.8,398.9,268.8,398.9z"/>
<g>
	<path d="M487.7,648.7c0,0-0.1,0.7-0.3,1.6c-0.3,0.9-0.7,2.2-1.2,3.4s-1.1,2.3-1.7,3.2c-0.5,0.8-0.9,1.3-0.9,1.3s0.1-0.7,0.4-1.6
		c0.3-0.9,0.8-2.1,1.3-3.3s1.1-2.3,1.6-3.2C487.3,649.3,487.7,648.7,487.7,648.7z"/>
</g>
<path class="st4" d="M220.1,247.6c0,0-2.7-7.4-3.2-3.2c-0.5,4.2,0.8,9.4,0.5,12c-0.3,2.6-1.2,8.6,1.1,10.1
	C218.4,266.5,218.4,251,220.1,247.6z"/>
</svg>
