<?xml version="1.0" encoding="utf-8"?>
<!-- Generator: Adobe Illustrator 19.0.1, SVG Export Plug-In . SVG Version: 6.00 Build 0)  -->
<svg version="1.1" id="Layer_1" xmlns="http://www.w3.org/2000/svg" xmlns:xlink="http://www.w3.org/1999/xlink" x="0px" y="0px"
	 viewBox="0 0 191.5 123" style="enable-background:new 0 0 191.5 123;" xml:space="preserve">
<style type="text/css">
	.st0{clip-path:url(#SVGID_2_);}
	.st1{clip-path:url(#SVGID_4_);}
	.st2{clip-path:url(#SVGID_2_);fill:#FFFFFF;}
	.st3{clip-path:url(#SVGID_6_);}
	.st4{clip-path:url(#SVGID_2_);fill:none;stroke:#000000;stroke-miterlimit:10;}
</style>
<g>
	<defs>
		<rect id="SVGID_1_" x="-2.5" y="1" width="194" height="122"/>
	</defs>
	<clipPath id="SVGID_2_">
		<use xlink:href="#SVGID_1_"  style="overflow:visible;"/>
	</clipPath>
	<path class="st0" d="M51,48.2c0,0-2.2-16.4-1.2-19.9s2-11.2,6.5-11.9c4.5-0.7,9.2-3.5,12.9-4c3.7-0.5,8,2.5,20.4-0.5
		S97,24.1,97,24.1s-3.2,8,3,14.4s4,11.9,4,11.9l4.5-3c0,0,0.1-6.7,0.9-9.3l2.3-0.2c0,0-1.7-2.2,0.1-3.6c1.8-1.3,3.5,0,3.5,0
		s-0.7-1.7,0.2-4.6c0.8-2.9-1.2-5.6-1.2-5.6s2.2-5.8-1.8-9.2c0,0,2.2-4.2-3-3.5c0,0-2.2-3.6-5.5-4.8S98.2,4.5,96.8,4
		c-1.3-0.5-5.6-1.2-7.2-1.2c-1.6,0-5.5-1.6-10.3-1.8c-4.8-0.2-10.5,0-14.1,1.8c-3.6,1.7-8.9,5.1-9.6,5.7c-0.7,0.6-5.1,6.8-5.6,7.6
		s-0.9,3.8-1,5c-0.1,1.2-1,6.8-1.6,8.3c-0.6,1.6-2.5,7.2-0.2,12.2S51,48.2,51,48.2z"/>
	<g class="st0">
		<path d="M49.8,42.8c0,0-0.1,0.3-0.1,0.8c0,0.5,0.1,1.3,0.4,2.3c0.3,1,0.7,2.2,1,3.6c0.3,1.4,0.6,3,0.8,4.7
			c0.2,1.7,0.5,3.6,0.7,5.6c0.3,2,0.6,4.1,1.1,6.2c0.5,2.1,1.1,4.3,1.8,6.5c0.4,1.1,0.7,2.1,1.2,3.2c0.4,1.1,0.9,2.1,1.5,3.1
			c1.1,2,2.5,3.9,4.2,5.3c0.8,0.7,1.8,1.3,2.8,1.8c1,0.5,2,0.7,3.1,1c1.1,0.3,2.1,0.8,3.1,1.2c0.2,0.1,0.5,0.2,0.7,0.3
			c0.2,0.1,0.5,0.2,0.7,0.2c0.5,0.1,1,0.2,1.4,0.3c1.9,0.3,3.8,0.1,5.5-0.3c1.7-0.4,3.2-0.9,4.5-1.4c1.3-0.5,2.4-1,3.3-1.6
			c0.8-0.6,1.4-1.1,1.7-1.6c0.3-0.4,0.4-0.7,0.4-0.7s-0.1,0.3-0.4,0.7c-0.3,0.5-0.8,1.1-1.6,1.7c-0.8,0.6-1.9,1.2-3.3,1.8
			c-1.3,0.6-2.8,1.2-4.6,1.6c-1.7,0.4-3.7,0.7-5.7,0.4c-0.5-0.1-1-0.1-1.6-0.3c-0.3-0.1-0.5-0.1-0.8-0.2c-0.2-0.1-0.5-0.2-0.8-0.3
			c-1-0.4-1.9-0.9-3-1.1c-1-0.3-2.2-0.5-3.3-1c-1.1-0.5-2.1-1.1-3-1.9c-1.8-1.5-3.3-3.5-4.5-5.5c-0.3-0.5-0.6-1-0.8-1.6
			c-0.3-0.6-0.4-1.1-0.7-1.6c-0.4-1.1-0.8-2.2-1.2-3.3c-0.7-2.2-1.3-4.4-1.7-6.6c-0.9-4.3-1.1-8.4-1.5-11.9
			c-0.2-1.7-0.4-3.3-0.6-4.7c-0.2-1.4-0.6-2.6-0.8-3.6c-0.2-1-0.3-1.8-0.2-2.4C49.7,43.1,49.8,42.8,49.8,42.8z"/>
	</g>
	<g class="st0">
		<path d="M107.8,47.2c0,0,0.1,0.1,0.2,0.3c0.1,0.2,0.3,0.5,0.4,0.9c0.3,0.8,0.8,1.9,1.1,3.3c0.3,1.4,0.6,3.1,0.8,4.9
			c0.1,0.9,0.2,1.8,0.2,2.8c0,0.9,0.1,1.9,0.1,2.9l0,1.4c0,0.5,0,1-0.1,1.5c-0.1,1-0.2,1.9-0.3,2.8c-0.3,1.8-0.6,3.4-0.8,4.8
			c-0.2,1.4-0.3,2.6-0.3,3.4c0,0.8,0,1.3,0,1.3s0-0.1-0.1-0.3c0-0.2-0.1-0.5-0.1-1c-0.1-0.8-0.2-2.1-0.1-3.5
			c0.1-1.4,0.3-3.1,0.5-4.9c0.1-0.9,0.2-1.8,0.3-2.7c0-0.4,0.1-1,0.1-1.4l-0.1-1.4c0-1-0.1-1.9-0.1-2.8c0-0.9-0.1-1.9-0.1-2.8
			c-0.1-1.8-0.2-3.4-0.5-4.8c-0.2-1.4-0.5-2.6-0.7-3.4C108,47.6,107.8,47.2,107.8,47.2z"/>
	</g>
	<g class="st0">
		<path d="M83,93.6c0,0,0.1,0,0.3,0.1c0.2,0.1,0.4,0.1,0.7,0.1c0.3,0,0.7-0.1,1.1-0.3c0.4-0.2,0.8-0.5,1.2-0.9
			c0.4-0.4,0.8-0.9,1.3-1.3c0.5-0.5,1.2-0.8,1.8-1.1c0.6-0.3,1.2-0.6,1.8-1.1c0.6-0.4,1.1-0.9,1.6-1.5c1-1.1,2-2.2,3-3.3
			c1-1,1.9-2,2.7-2.8c0.8-0.8,1.5-1.5,1.9-1.9c0.5-0.5,0.8-0.7,0.8-0.7s-0.2,0.3-0.6,0.8c-0.4,0.5-1,1.3-1.7,2.2
			c-0.7,0.9-1.5,1.9-2.4,3c-0.9,1.1-1.9,2.2-2.9,3.4c-0.5,0.6-1.1,1.1-1.7,1.6c-0.6,0.5-1.3,0.8-2,1.1c-0.7,0.3-1.2,0.5-1.7,0.9
			c-0.5,0.4-0.9,0.8-1.4,1.1c-0.5,0.4-0.9,0.7-1.4,0.8C84.7,93.9,84.3,94,84,94C83.3,93.9,83,93.6,83,93.6z"/>
	</g>
	<path class="st0" d="M84.5,94.4c0,0,0.8,1.9-0.2,4c0,0,1.2-1.2,1.2-1.8l0.7,0.5l0.5-0.1L84.5,94.4z"/>
	<g class="st0">
		<path d="M63.3,85.9c1.8,1.5,3.7,3,5.6,4.4c1,0.7,1.9,1.4,2.9,2c0.5,0.3,1,0.6,1.5,0.9c0.3,0.1,0.5,0.2,0.8,0.4
			c0.3,0.1,0.5,0.2,0.8,0.3l0.1,0l0.1,0.1c0.6,0.7,1.3,1.3,2,2c0.3,0.3,0.7,0.6,1,0.9c0.3,0.3,0.7,0.6,1.1,0.8
			c0.2,0.1,0.5,0.2,0.7,0.3c0.2,0.1,0.4,0.3,0.6,0.4c0.4,0.3,0.8,0.5,1.2,0.8c0.8,0.6,1.5,1.1,2.3,1.7l-0.4-0.1
			c0.5-0.1,1-0.2,1.6-0.3c0.3,0,0.5,0,0.8,0c0.3,0,0.6,0,1,0.3l-0.5,0c1.7-1.5,3.4-3,5-4.5l2.5-2.3c0.8-0.8,1.6-1.5,2.3-2.4
			c1.5-1.7,3-3.3,4.5-5c1.5-1.7,3-3.3,4.4-5.1c1.4-1.7,2.8-3.5,4.1-5.3c0.6-0.9,1.1-1.9,1.7-2.9c0.6-1,1.2-1.9,1.8-2.9
			c0.7-0.9,1.3-1.8,1.6-2.9c0.3-1,0.5-2.1,0.6-3.3c0.1-1.1,0.1-2.2,0.2-3.4c0.1-1.1,0.2-2.2,0.5-3.3c-0.2,1.1-0.3,2.2-0.3,3.3
			c-0.1,1.1,0,2.2,0,3.4c0,1.1-0.2,2.3-0.5,3.4c-0.3,1.1-0.9,2.1-1.6,3.1c-0.6,0.9-1.2,1.9-1.7,2.9c-0.5,1-1,2-1.6,3
			c-1.2,1.9-2.6,3.7-4,5.5c-1.4,1.7-2.9,3.4-4.4,5.1c-1.5,1.7-3,3.3-4.5,5c-0.7,0.9-1.6,1.7-2.4,2.4L92.1,97c-1.7,1.5-3.4,3-5.1,4.4
			l-0.2,0.2l-0.3-0.2c0,0-0.1,0-0.2-0.1c-0.1,0-0.2,0-0.3,0c-0.2,0-0.5,0-0.7,0c-0.5,0-1,0.1-1.5,0.2l-0.2,0l-0.2-0.1
			c-0.7-0.6-1.5-1.2-2.2-1.7c-0.4-0.3-0.7-0.6-1.1-0.8c-0.2-0.1-0.4-0.3-0.6-0.4c-0.2-0.1-0.4-0.2-0.6-0.3c-0.5-0.3-0.9-0.6-1.2-0.9
			c-0.4-0.3-0.7-0.7-1-1c-0.7-0.7-1.3-1.4-2-2.1l0.2,0.1c-1.2-0.4-2.2-1-3.2-1.7c-1-0.7-1.9-1.4-2.9-2.1
			C66.9,89.1,65.1,87.5,63.3,85.9z"/>
	</g>
	<path class="st0" d="M61.6,84.3l-41.1,19.6l-10.1,10.2L2,120.8l-9,13.5l-12.5,32.4h221l-1.2-19.8L186.5,111l-9-11.9l-12.8-6.8
		L142,84.1l-14-6.2l-4.9-3.8l-6.8-2.6c0,0-1.4,6.6-7.1,13.2S97,98.7,96.1,99.9s-6.8,7.2-8.1,13s-4.9,16.7-4.9,16.7l-3.9,16.2
		l-0.4-14.6l-1.2-10.4l0.1-12.4l-3.4-3.5c0,0-1.2-4.6-2.2-6.4s-3.2-8.1-3.2-8.1L61.6,84.3z"/>
	<path class="st0" d="M69.6,39.1l1.8,1.3l1.4,2.3l7.4-2.7c0,0,6.1-2.2,10.2,1l-3.2-5.1c0,0-6.1,0.9-7.4,1.6
		c-1.3,0.7-5.3,0.2-6.3,0.3C72.3,38.1,69.6,39.1,69.6,39.1z"/>
	<path class="st0" d="M63.9,39.6c0,0-10.8-0.8-13.3,3.8l1.4,3.2c0,0-0.4-3.8,6.1-3.7c6.5,0.2,7.7,0.8,7.7,0.8L63.9,39.6z"/>
	<g class="st0">
		<path d="M63.9,70.3c0.4-0.2,0.8-0.4,1.2-0.6l0,0l0.1,0c0.4,0.2,0.8,0.4,1.3,0.5c0.4,0.1,0.8,0.2,1.3,0.1c0.9-0.1,1.9-0.3,2.8-0.4
			l2.8-0.3l1.3-0.2l1.4-0.2c0.9-0.1,1.8-0.3,2.8-0.4l1.4-0.2l1.4-0.2c0.4-0.1,0.9-0.2,1.3-0.3c0.4-0.1,0.9-0.2,1.3-0.4
			c0.9-0.4,1.8-0.7,2.8-0.6c-0.9,0.1-1.8,0.5-2.5,1c-0.4,0.3-0.9,0.4-1.3,0.6c-0.4,0.2-0.9,0.3-1.4,0.4l-2.8,0.6
			c-0.9,0.2-1.8,0.3-2.8,0.5l-1.4,0.2c-0.5,0.1-0.9,0.1-1.4,0.2l-2.8,0.2c-0.9,0.1-1.9,0.1-2.8,0.2c-0.5,0-1-0.1-1.5-0.3
			c-0.5-0.2-0.9-0.4-1.2-0.7l0.1,0C64.7,70.1,64.3,70.2,63.9,70.3z"/>
	</g>
	<g class="st0">
		<path d="M66.5,44.3c0,0,0.1,0,0.3,0.2c0.2,0.1,0.4,0.4,0.6,0.8c0.2,0.4,0.3,0.8,0.4,1.3c0.1,0.5,0.1,1,0.1,1.5
			c0,0.5-0.1,1.1-0.3,1.6c-0.2,0.5-0.5,0.9-0.7,1.2c-0.2,0.3-0.4,0.5-0.5,0.7c-0.1,0.2-0.2,0.3-0.2,0.3s0-0.1,0-0.4
			c0-0.2,0.1-0.6,0.2-0.9c0.1-0.4,0.3-0.7,0.4-1.2C66.9,49,67,48.5,67,48c0-1,0.1-1.9-0.1-2.6C66.8,44.7,66.5,44.3,66.5,44.3z"/>
	</g>
	<g class="st0">
		<path d="M79.8,56.1c0,0,0.2,0.2,0.7,0.6c0.4,0.4,1,0.9,1.7,1.5c0.7,0.6,1.5,1.3,2.4,2.1c0.9,0.7,1.8,1.5,2.9,2.2
			c0.5,0.4,1,0.8,1.4,1.4c0.4,0.6,0.5,1.3,0.5,2c0,1.3-0.3,2.3-0.3,3.2c0,0.9,0.3,1.6,0.5,2.1c0.3,0.5,0.5,0.7,0.5,0.7
			s-0.3-0.2-0.6-0.6c-0.2-0.2-0.4-0.5-0.5-0.9c-0.2-0.3-0.3-0.8-0.4-1.3c-0.2-1,0-2.1,0-3.2c0-0.5-0.2-1-0.5-1.5
			c-0.3-0.4-0.7-0.8-1.2-1.2c-0.5-0.4-1-0.8-1.5-1.1c-0.5-0.4-0.9-0.8-1.4-1.2c-0.9-0.8-1.6-1.6-2.2-2.3
			C80.6,57.1,79.8,56.1,79.8,56.1z"/>
	</g>
	<g class="st0">
		<path d="M65.4,54.8c0,0,0.1,0.1,0.1,0.4c0.1,0.3,0.1,0.7,0.1,1.2c0,0.5-0.1,1.1-0.4,1.7c-0.2,0.6-0.5,1.1-0.6,1.6l0,0.2
			c0,0.1,0,0.2,0,0.2c0,0.1,0,0.2,0,0.4c0.1,0.2,0.1,0.5,0.3,0.7c0.2,0.5,0.6,0.8,0.9,1.2c0.7,0.6,1.2,1.1,1.2,1.1s-0.2,0-0.4-0.1
			c-0.3-0.1-0.6-0.2-1.1-0.5c-0.4-0.2-0.9-0.6-1.3-1.2c-0.2-0.3-0.4-0.6-0.4-0.9c0-0.2-0.1-0.4-0.1-0.6c0-0.1,0-0.2,0-0.3
			c0-0.1,0-0.2,0-0.3c0.2-0.7,0.5-1.3,0.8-1.8c0.3-0.5,0.5-1,0.6-1.4c0.1-0.4,0.2-0.8,0.3-1.1C65.3,54.9,65.4,54.8,65.4,54.8z"/>
	</g>
	<g class="st0">
		<path d="M77.1,55.3c0,0,0.1,0,0.3,0.1c0.2,0.1,0.4,0.2,0.7,0.4c0.3,0.2,0.6,0.4,0.9,0.7c0.2,0.2,0.3,0.4,0.5,0.6
			c0.1,0.2,0.2,0.5,0.3,0.8c0.1,0.5,0,1,0,1.4c0,0.2-0.1,0.5-0.3,0.7c-0.2,0.2-0.4,0.3-0.6,0.4c-0.4,0.1-0.6,0.1-0.8,0.1
			c-0.2,0-0.3,0-0.3,0s0.1-0.1,0.2-0.2c0.2-0.1,0.4-0.3,0.6-0.5c0.1-0.1,0.2-0.2,0.2-0.3c0-0.1,0-0.2,0-0.4c0-0.2,0-0.4,0-0.6
			c0-0.2,0-0.4-0.1-0.6c0-0.2-0.1-0.3-0.1-0.5c-0.1-0.1-0.2-0.3-0.3-0.5c-0.2-0.3-0.5-0.6-0.7-0.9c-0.2-0.3-0.3-0.5-0.4-0.7
			C77.2,55.3,77.1,55.3,77.1,55.3z"/>
	</g>
	<g class="st0">
		<path d="M65.9,61.6c0,0,0-0.1,0.2-0.2c0.1-0.1,0.4-0.2,0.7-0.2c0.3,0,0.7,0.3,0.9,0.5c0.1,0.1,0.3,0.2,0.4,0.3
			c0.1,0.1,0.2,0.2,0.4,0.3c0.5,0.3,1.1,0.6,1.5,0.8c0.5,0.2,0.8,0.3,0.8,0.3s-0.3,0.2-0.9,0.3c-0.6,0.1-1.4-0.1-2-0.5
			c-0.2-0.1-0.3-0.2-0.5-0.4c-0.1-0.1-0.3-0.3-0.4-0.4c-0.2-0.2-0.4-0.4-0.5-0.6c-0.2-0.1-0.3-0.2-0.5-0.2
			C66,61.6,65.9,61.6,65.9,61.6z"/>
	</g>
	<g class="st0">
		<path d="M72.3,60.7c0,0,0.3-0.2,0.7-0.4c0.4-0.2,1-0.5,1.7-0.7c0.3-0.1,0.7-0.1,1-0.1c0.3,0,0.6,0.1,0.9,0.2
			c0.2,0.1,0.4,0.3,0.5,0.4c0.1,0.1,0.1,0.2,0.1,0.2s-0.4-0.1-0.8,0c-0.2,0-0.5,0-0.7,0.1c-0.3,0-0.5,0.1-0.8,0.2
			c-0.6,0.1-1.2,0.2-1.7,0.2C72.6,60.9,72.3,60.7,72.3,60.7z"/>
	</g>
	<g class="st0">
		<path d="M75.2,44.2c0,0,0.3,0,0.6-0.2c0.4-0.2,0.8-0.6,1.4-1.1c0.3-0.3,0.6-0.5,1-0.7c0.4-0.2,0.8-0.4,1.3-0.6
			c0.9-0.3,2-0.4,3-0.5c0.5,0,1,0,1.5,0c0.5,0,1,0,1.5,0.1c0.5,0.1,1,0.3,1.4,0.6c0.4,0.2,0.7,0.5,1,0.7c0.6,0.4,1.1,0.8,1.5,1
			c0.4,0.2,0.6,0.2,0.6,0.2s-0.1,0-0.2,0c-0.1,0-0.3,0-0.5,0c-0.4-0.1-1.1-0.3-1.7-0.7c-0.3-0.2-0.7-0.4-1.1-0.5
			c-0.4-0.2-0.8-0.3-1.2-0.4c-0.4-0.1-0.9,0-1.4,0c-0.5,0-1,0-1.5,0.1c-1,0-1.9,0.1-2.8,0.3c-0.4,0.1-0.8,0.2-1.2,0.4
			c-0.4,0.2-0.7,0.3-1,0.5c-0.6,0.4-1.2,0.7-1.7,0.8c-0.2,0.1-0.4,0-0.5,0C75.2,44.2,75.2,44.2,75.2,44.2z"/>
	</g>
	<g class="st0">
		<path d="M65.5,45.9c0,0-0.2,0.1-0.5,0.1c-0.3,0-0.8,0-1.3-0.2c-0.5-0.2-1.1-0.4-1.7-0.6C61.6,45,61.3,45,61,45
			c-0.3,0-0.6,0-0.9,0.1c-1.3,0.3-2.5,1-3.4,1.5c-1,0.5-1.6,0.8-1.6,0.8s0.5-0.5,1.3-1.3c0.4-0.4,0.9-0.8,1.5-1.1
			c0.6-0.4,1.3-0.7,2.1-0.9c0.4-0.1,0.8-0.1,1.2-0.1c0.4,0,0.8,0.1,1.1,0.3c0.7,0.3,1.2,0.6,1.7,0.9c0.5,0.3,0.8,0.5,1.1,0.5
			C65.3,45.8,65.5,45.9,65.5,45.9z"/>
	</g>
	<g class="st0">
		<path d="M76.6,45.4c0.5-0.1,0.9-0.3,1.3-0.6c0.2-0.1,0.4-0.3,0.5-0.5c0.2-0.2,0.3-0.4,0.5-0.5c0.8-0.6,1.8-1,2.8-1.2
			c1-0.2,2-0.1,3,0c0.5,0.1,1,0.2,1.5,0.3c0.5,0.1,1,0.3,1.4,0.6l0.3,0.2l-0.3,0.2c-0.7,0.5-1.5,0.9-2.3,1.2
			c-0.8,0.3-1.6,0.5-2.5,0.6c-0.2,0-0.4,0-0.6,0.1c-0.2,0-0.4,0-0.6,0c-0.4,0-0.8,0-1.3-0.1c-0.4,0-0.8-0.1-1.2-0.2
			c-0.4-0.1-0.8-0.2-1.2-0.4c0.4,0.1,0.8,0.2,1.2,0.2c0.4,0,0.8,0.1,1.2,0.1c0.4,0,0.8,0,1.2,0c0.2,0,0.4,0,0.6-0.1
			c0.2,0,0.4,0,0.6-0.1c0.4-0.1,0.8-0.2,1.2-0.3c0.4-0.1,0.8-0.2,1.2-0.4c0.8-0.3,1.5-0.7,2.1-1.2l0,0.4c-0.4-0.2-0.8-0.4-1.3-0.5
			c-0.5-0.1-0.9-0.3-1.4-0.3c-0.5-0.1-1-0.2-1.4-0.2c-0.5,0-0.9,0-1.4,0.1c-0.9,0.2-1.9,0.5-2.7,1c-0.2,0.1-0.4,0.3-0.5,0.5
			c-0.2,0.2-0.4,0.4-0.6,0.5C77.5,45.2,77.1,45.4,76.6,45.4z"/>
	</g>
	<g class="st0">
		<path d="M66.1,47.3c-0.5,0-0.9,0-1.4-0.1c-0.5,0-0.9-0.1-1.4-0.3c-0.9-0.3-1.7-0.7-2.6-0.7c-0.4,0-0.9,0-1.3,0.1
			c-0.2,0.1-0.4,0.1-0.6,0.2c-0.2,0.1-0.4,0.2-0.6,0.3c-0.2,0.1-0.4,0.3-0.5,0.4c-0.2,0.1-0.3,0.3-0.4,0.5c-0.1,0.2-0.3,0.3-0.4,0.5
			c-0.1,0.2-0.2,0.4-0.2,0.5l-0.1-0.2c0.3,0.1,0.7,0.2,1,0.3c0.4,0.1,0.7,0.1,1.1,0.1c0.7,0,1.4,0,2.2-0.1c0.4-0.1,0.7-0.2,1.1-0.2
			c0.4-0.1,0.7-0.3,1-0.4c0.7-0.3,1.3-0.6,2-1c-0.6,0.5-1.2,0.9-1.9,1.2c-0.3,0.2-0.7,0.3-1,0.5c-0.4,0.1-0.7,0.2-1.1,0.3
			c-0.7,0.2-1.5,0.3-2.3,0.2c-0.4,0-0.8-0.1-1.1-0.1c-0.4-0.1-0.7-0.2-1.1-0.3l-0.2-0.1l0-0.2c0-0.3,0.1-0.5,0.3-0.7
			c0.1-0.2,0.3-0.4,0.4-0.6c0.2-0.2,0.3-0.4,0.5-0.5c0.2-0.2,0.3-0.3,0.6-0.4c0.8-0.6,1.8-0.8,2.8-0.8c1,0.1,1.9,0.5,2.7,0.9
			C64.2,47.1,65.2,47.2,66.1,47.3z"/>
	</g>
	<g class="st0">
		<defs>
			<polygon id="SVGID_3_" points="62.8,46.6 62,46.3 61.1,46.2 60.1,46.2 59.4,46.2 58.7,46.5 58.4,47.9 58.7,49 59.5,49.5 
				60.3,49.4 61.1,49.3 61.9,49 62.7,48.6 63.3,47.9 			"/>
		</defs>
		<clipPath id="SVGID_4_">
			<use xlink:href="#SVGID_3_"  style="overflow:visible;"/>
		</clipPath>
		<circle class="st1" cx="60.8" cy="47.6" r="2.1"/>
	</g>
	<circle class="st2" cx="61.7" cy="47.4" r="0.4"/>
	<g class="st0">
		<defs>
			<polygon id="SVGID_5_" points="81.1,44.6 81.1,42.9 81.9,42.7 83.1,42.6 84.3,42.7 85.6,43 86.1,44.6 85.3,45 84.3,45.3 
				83.4,45.5 82.3,45.6 82,45.7 			"/>
		</defs>
		<clipPath id="SVGID_6_">
			<use xlink:href="#SVGID_5_"  style="overflow:visible;"/>
		</clipPath>
		<circle class="st3" cx="83.5" cy="44" r="2.1"/>
	</g>
	<circle class="st2" cx="84" cy="43.7" r="0.3"/>
	<g class="st0">
		<path d="M61.6,66.3c0,0,0.1,0.3,0.2,0.7c0.1,0.4,0.1,1,0,1.6L61.8,69c0,0,0,0.1,0,0c0,0-0.1-0.1-0.1-0.1c0,0,0.2,0.1,0.2,0.2
			c0.1,0.1,0.2,0.2,0.3,0.2c0.3,0.3,0.5,0.6,0.5,0.6s-0.3,0-0.8-0.1c-0.1,0-0.2,0-0.3-0.1c-0.1,0-0.2,0-0.4-0.2
			c-0.1-0.1-0.2-0.2-0.3-0.4c-0.1-0.2-0.1-0.3,0-0.4l0-0.4c0.1-0.6,0.2-1.1,0.4-1.5C61.4,66.6,61.6,66.3,61.6,66.3z"/>
	</g>
	<polyline class="st4" points="74.2,107 78.5,103.6 82.4,102 85,102.5 	"/>
	<line class="st4" x1="86.9" y1="101.6" x2="93.1" y2="106.4"/>
	<g class="st0">
		<path d="M77.1,113.9c0.7-0.5,1.4-0.8,2.2-0.9c0.4-0.1,0.8-0.1,1.2-0.1c0.4,0,0.8,0,1.2,0.1c0.2,0,0.4,0.1,0.6,0.2
			c0.2,0.1,0.4,0.1,0.6,0.2c0.4,0.2,0.8,0.4,1.1,0.6c0.4,0.2,0.7,0.5,1,0.8c0.2,0.1,0.3,0.3,0.4,0.4l0.4,0.5l-0.7,0
			c1.3-1.3,2.5-2.6,4-3.8c-1,1.6-2.1,3-3.3,4.4l-0.3,0.4l-0.4-0.4l-0.4-0.4c-0.1-0.1-0.3-0.3-0.4-0.4c-0.3-0.2-0.6-0.5-0.9-0.7
			c-0.3-0.2-0.6-0.4-1-0.5c-0.3-0.2-0.7-0.3-1-0.4c-0.4-0.1-0.7-0.2-1.1-0.2c-0.4,0-0.7-0.1-1.1-0.1
			C78.7,113.5,77.9,113.7,77.1,113.9z"/>
	</g>
	<path class="st0" d="M77.8,122.8l2.3-9.5l1.7,9.5l-1.1,3.5c0,0,0.4-4.2-0.5-8.4C80.2,117.8,78.8,119.1,77.8,122.8z"/>
	<g class="st0">
		<path d="M114.3,33.2c0,0,0.4,0.3,0.9,1c0.5,0.7,1.2,1.7,1.6,3.2c0.3,1.4,0.8,3.1,0.6,5c-0.1,1-0.3,1.9-0.4,2.8
			c-0.1,0.9-0.1,1.9-0.1,2.8c0,0.5,0,1-0.1,1.5c-0.1,0.5-0.2,1-0.4,1.4c-0.3,0.9-0.6,1.8-0.8,2.7c-0.3,0.9-0.6,1.7-1,2.5
			c-0.3,0.8-0.7,1.5-1.1,2.1c-0.2,0.3-0.4,0.6-0.7,0.9c-0.3,0.2-0.6,0.4-1,0.4c-0.4-0.1-0.6-0.3-0.8-0.5c-0.2-0.2-0.3-0.4-0.5-0.5
			c-0.6-0.7-0.7-1.2-0.7-1.2c0,0,0,0.1,0.1,0.3c0.1,0.2,0.3,0.4,0.7,0.7c0.2,0.1,0.3,0.3,0.5,0.4c0.2,0.2,0.4,0.3,0.6,0.3
			c0.5,0,0.9-0.5,1.2-1.1c0.6-1.2,1.2-2.9,1.7-4.6c0.3-0.9,0.5-1.8,0.8-2.7c0.1-0.5,0.2-0.9,0.3-1.4c0.1-0.4,0.1-0.9,0.1-1.4
			c0-1,0-2,0.2-2.9c0.1-1,0.4-1.9,0.5-2.7c0.2-1.7-0.1-3.4-0.3-4.8c-0.2-1.4-0.8-2.5-1.2-3.2C114.6,33.6,114.3,33.2,114.3,33.2z"/>
	</g>
	<path class="st0" d="M113.2,36.5l2.1,0.5l0.4,2.7l-0.1,3.6C115.6,43.2,114.5,37.3,113.2,36.5z"/>
	<path class="st0" d="M110.2,43.7c0,0-0.6,1.1-0.8,1.5c-0.2,0.4,1.8,4.5,1.3,6.1s2.3-1.8,2.3-2.8s-1.1-1.2-1.2-1.9
		c-0.1-0.8-0.6-2.2-0.6-2.2L110.2,43.7z"/>
</g>
<polygon points="115,59.3 116.7,57.4 115.7,55.8 116.8,54.9 115.9,54.2 116.1,53.4 115.8,52.4 114.1,56.7 "/>
</svg>
