<?xml version="1.0" encoding="utf-8"?>
<!-- Generator: Adobe Illustrator 19.0.1, SVG Export Plug-In . SVG Version: 6.00 Build 0)  -->
<svg version="1.1" xmlns="http://www.w3.org/2000/svg" xmlns:xlink="http://www.w3.org/1999/xlink" x="0px" y="0px"
	 viewBox="0 0 88.5 72.6" style="enable-background:new 0 0 88.5 72.6;" xml:space="preserve">
<style type="text/css">
	.st0{display:none;opacity:0.7;}
	.st1{display:none;}
	.st2{display:inline;}
	.st3{display:inline;clip-path:url(#SVGID_2_);}
	.st4{display:none;fill:#FFFFFF;}
	.st5{display:inline;clip-path:url(#SVGID_4_);}
	.st6{clip-path:url(#SVGID_6_);}
	.st7{fill:#FFFFFF;}
	.st8{clip-path:url(#SVGID_8_);}
</style>
<g id="margins">
</g>
<g id="Layer_2">
	<path class="st0" d="M181,100.8c0,0-1.1-1.1-4.5-0.6s-8.8,4-10.6,6s-3.9,6-6.5,6.6s-4.1,8.9-4.1,9.8s1.2,2.4,1.4,3.1
		s-3.2,2.6-3.2,4.5s-3.4,1.8-1.5,4.5s4.1,3.5,3.5,9.1s1.5,9.6,4.9,10.9s8.6,2.9,10.1,0.5c0,0-4.5-4.2-5.1-10.4s-0.4-10.5-0.1-11.5
		c0,0,2.6-4.6,2-11s3.4-5.5,3.4-5.5s5.9-4.2,8.9-0.8s3.8,8.4,6.2,9.1c0,0,0,8.4,9.4,7.8c2.9,0.8,3.5,6.5,6.1,7.6
		c0,0-2.5,8.5-1.9,9.8s2.2,6.2,10.9,3c3.6-1.2,3.6-3.1,3.6-3.1l-3.5-0.9c0,0,5-3,0.9-8.8c0,0,3.2-4-0.8-11c0,0,4.1-2.9,0.5-7
		c0,0,1.6-2.4-3.6-4.4c0,0,1.5-2.8-1.4-5.2c0,0-1.1,4.2-2,2s-2-5.9-5.1-6.5S189.3,98,181,100.8z"/>
	<path class="st0" d="M167,152.1c0,0,5,3.4,6.9,5.8s3,3.6,4.9,3.6s6.6-0.6,8.2-3.4s5.2-6,5.5-7.1c-0.2,1.1-3.9,5.4-5.5,8.1
		s-6.4,3.4-8.2,3.4s-3-1.2-4.9-3.6S167,152.1,167,152.1"/>
	<polygon class="st0" points="174,158.5 170.2,161.3 159.2,165.8 150.4,172.4 144.5,177 137,189.5 128.2,205.4 246.7,205.4 
		243,184.7 236.7,172.5 208.7,153 203.1,153.4 197.9,157.6 186.5,169.1 185.2,171.1 178.9,177.2 177.9,172.8 179.2,170.3 
		176.8,161.6 	"/>
	<path class="st1" d="M172.5,148.2l3.9,3.6c0,0,3.5,0.5,5.8-0.2c2.3-0.7,4.8-2.4,4.9-2.8l0.5-0.3l0.4,0.5c0,0-1.4,1.9-2,2.7
		s-4.4,4.5-10.8,1.8C174.3,153.1,172.5,148.2,172.5,148.2z"/>
	<path class="st1" d="M173.7,147.9c0,0,3-0.2,3.5-0.1s1.8,0.2,2.8,0c1.1-0.2,4.9,0.4,4.9,0.4S179.7,149.8,173.7,147.9z"/>
	<path class="st1" d="M181.4,131c0,0,0.7-2.1,2.4-2.3c1.7-0.2,3.3-0.9,3.3-0.9l0.7,0.9c0,0-2.9,0.4-4.5,2.2L181.4,131z"/>
	<path class="st1" d="M175.6,130.5c0,0-1.7-1.7-3.6-2.1c-1.9-0.4-2.6-0.4-2.6-0.4s-1.2-0.3-2.8,1.2c-1.5,1.5,1.2-0.2,1.2-0.2
		s1.4-0.5,2.7,0s3.6,1.9,3.6,1.9L175.6,130.5z"/>
	<g class="st1">
		<path class="st2" d="M174.3,140.9c0,0-0.1,0.6-0.5,1.4c-0.4,0.8-1.1,1.8-2,2.7c-0.2,0.2-0.5,0.4-0.6,0.6c-0.1,0.2-0.2,0.4-0.3,0.7
			c-0.1,0.5-0.2,1-0.1,1.5c0,0.4,0.1,0.8,0.1,1c0.1,0.3,0.1,0.4,0.1,0.4s-0.4-0.5-0.5-1.4c-0.1-0.4-0.1-1,0-1.6
			c0.1-0.3,0.1-0.6,0.4-0.9c0.2-0.3,0.5-0.5,0.7-0.7c0.9-0.8,1.6-1.7,2.1-2.4C174,141.4,174.3,140.9,174.3,140.9z"/>
	</g>
	<g class="st1">
		<g class="st2">
			<path d="M270.2,180.7c0,0,0-5,0-5C270.1,175.7,270.1,180.7,270.2,180.7L270.2,180.7z"/>
		</g>
	</g>
	<g class="st1">
		<path class="st2" d="M184.1,141.1c0,0,0.4,0.3,1,0.8c0.6,0.5,1.3,1.2,2,2c0.2,0.2,0.3,0.4,0.5,0.5c0.2,0.2,0.4,0.3,0.5,0.5
			c0.3,0.3,0.7,0.6,1,0.8c0.6,0.4,1.1,0.6,1.1,0.6s-0.5,0-1.2-0.4c-0.7-0.4-1.5-1-2.2-1.7c-0.7-0.7-1.4-1.5-1.8-2.1
			C184.4,141.6,184.1,141.1,184.1,141.1z"/>
	</g>
	<g class="st1">
		<path class="st2" d="M193.4,145.5c0,0,0.1,0.3,0.2,0.7c0,0.1,0,0.2,0,0.4c0,0.1,0.1,0.3,0.1,0.4c0.1,0.3,0.1,0.6,0.1,0.9
			c0,0.6-0.1,1.2-0.3,1.7c-0.2,0.4-0.4,0.6-0.4,0.6s0.2-0.3,0.3-0.7c0.1-0.4,0.2-1,0.1-1.6c0-0.6-0.2-1.2-0.2-1.6c0-0.2,0-0.4,0-0.5
			C193.4,145.5,193.4,145.5,193.4,145.5z"/>
	</g>
	<g class="st1">
		<path class="st2" d="M191.9,134c0,0,0.1,0,0.3,0c0.2,0,0.4-0.1,0.5-0.2c0.4-0.2,0.6-0.6,0.6-0.6c0,0,0,0.1-0.1,0.3
			c-0.1,0.2-0.2,0.4-0.5,0.5c-0.2,0.1-0.5,0.1-0.7,0.1C192,134.1,191.9,134,191.9,134z"/>
	</g>
	<g class="st1">
		<path class="st2" d="M191.6,136.1c0,0,0.3,0,0.7,0c0.4,0,1,0.1,1.4,0.5c0.2,0.2,0.4,0.4,0.5,0.6c0.1,0.2,0.2,0.5,0.2,0.7
			c0.1,0.4,0,0.7,0,0.7s-0.1-0.3-0.2-0.6c-0.1-0.2-0.1-0.4-0.3-0.6c-0.1-0.2-0.3-0.4-0.5-0.5c-0.4-0.3-0.9-0.5-1.3-0.5
			C191.8,136.1,191.6,136.1,191.6,136.1z"/>
	</g>
	<g class="st1">
		<path class="st2" d="M174.2,141.1c-0.1,0.4-0.1,0.7-0.1,1.1c0,0.2,0,0.4,0,0.5c0,0.2,0.1,0.3,0.1,0.5c0,0.1,0.1,0.1,0.1,0.2
			c0,0.1,0.1,0.1,0.1,0.1c0,0,0.1,0,0.2,0.1c0,0,0.1,0,0.2,0c0.1,0,0.3,0,0.5,0l0.5-0.2l0.4-0.1l0.1,0.4c0.1,0.2,0.2,0.4,0.3,0.6
			c0.1,0.2,0.3,0.4,0.4,0.5c0.3,0.3,0.7,0.5,1.2,0.5c0.2,0,0.4,0,0.7,0c0.2,0,0.4-0.1,0.6-0.2c0.2-0.1,0.4-0.2,0.5-0.4
			c0.2-0.2,0.4-0.4,0.6-0.6c0.2-0.2,0.5-0.4,0.8-0.5c0.3-0.1,0.6-0.2,0.9-0.2c0.3,0,0.5-0.1,0.7-0.2c0.2-0.1,0.4-0.2,0.6-0.3
			c0.4-0.3,0.5-0.7,0.4-1.2c0-0.2-0.1-0.5-0.3-0.7c-0.1-0.2-0.3-0.5-0.4-0.7c0.4,0.3,0.8,0.8,1,1.3c0.1,0.3,0.2,0.6,0.1,0.9
			c-0.1,0.3-0.2,0.6-0.4,0.9c-0.2,0.2-0.5,0.4-0.8,0.5c-0.3,0.1-0.6,0.2-0.8,0.3c-0.3,0.1-0.5,0.1-0.7,0.2c-0.2,0.1-0.4,0.2-0.6,0.4
			l-0.6,0.6c-0.2,0.2-0.5,0.4-0.8,0.6c-0.3,0.1-0.6,0.2-0.9,0.3c-0.2,0-0.6,0.1-0.9,0c-0.6-0.1-1.3-0.3-1.7-0.8
			c-0.2-0.2-0.4-0.5-0.5-0.8c-0.1-0.3-0.2-0.6-0.3-0.9l0.5,0.3l-0.6,0.1c-0.2,0-0.4,0.1-0.7,0c-0.1,0-0.2,0-0.3-0.1
			c-0.1-0.1-0.2-0.1-0.3-0.2c-0.1-0.1-0.2-0.2-0.2-0.3c-0.1-0.1-0.1-0.2-0.1-0.3c-0.1-0.2-0.1-0.4,0-0.6c0-0.2,0.1-0.4,0.1-0.6
			C173.9,141.8,174,141.5,174.2,141.1z"/>
	</g>
	<g class="st1">
		<path class="st2" d="M178.5,163.2c0,0,0.4,0.1,1.1,0.3c0.3,0.1,0.7,0.2,1.2,0.2c0.5,0,1,0,1.6-0.1c1.2-0.2,2.5-0.7,3.7-1.6
			c1.2-0.8,2.3-2,3.4-3.2c1.1-1.2,2.1-2.4,3.1-3.6c1-1.2,1.9-2.2,2.6-3.2c1.6-1.8,2.6-3,2.6-3s-1,1.3-2.4,3.2
			c-0.7,1-1.6,2.1-2.5,3.3c-1,1.2-2,2.4-3.1,3.6c-1.1,1.2-2.3,2.4-3.5,3.2c-1.3,0.9-2.7,1.4-3.9,1.5c-0.6,0.1-1.2,0.1-1.7,0
			c-0.5-0.1-0.9-0.2-1.2-0.3C178.9,163.4,178.5,163.2,178.5,163.2z"/>
	</g>
	<g class="st1">
		<path class="st2" d="M182.3,135.1c0.5-0.4,1-0.7,1.6-1c0.5-0.3,1.1-0.6,1.7-0.8c0.1-0.1,0.3-0.1,0.4-0.2c0.2,0,0.3-0.1,0.5-0.1
			c0.2,0,0.3,0,0.5,0l0.5,0c0.6,0.1,1.2,0.1,1.8,0.2l0,0c0.3,0.1,0.6,0.2,0.9,0.3c0.3,0.1,0.6,0.2,0.8,0.4c-0.6-0.2-1.1-0.2-1.7-0.3
			l0,0c-0.6,0-1.2,0-1.8,0l-0.5,0c-0.1,0-0.3,0-0.4,0c-0.1,0-0.3,0-0.4,0.1c-0.1,0-0.3,0.1-0.4,0.1
			C184.5,134.1,183.4,134.6,182.3,135.1z"/>
	</g>
	<g class="st1">
		<path class="st2" d="M183.8,134.5c0,0,0.4,0.1,1.1,0.1c0.6,0.1,1.5,0.1,2.3,0c0.4,0,0.8-0.1,1.2-0.2c0.4-0.1,0.7-0.2,1-0.4
			c0.3-0.2,0.5-0.3,0.6-0.4c0.1-0.1,0.2-0.2,0.2-0.2c0,0-0.3,0.4-0.8,0.7c-0.3,0.2-0.6,0.3-1,0.5c-0.4,0.1-0.8,0.2-1.3,0.2
			c-0.9,0.1-1.7,0-2.4-0.2C184.2,134.6,183.8,134.5,183.8,134.5z"/>
	</g>
	<g class="st1">
		<path class="st2" d="M167.7,134.2c0,0,0.5-0.3,1.3-0.6c0.4-0.2,0.9-0.3,1.4-0.5c0.3-0.1,0.5-0.1,0.8-0.2c0.3,0,0.6-0.1,0.9-0.1
			c0.6,0.1,1.2,0.2,1.7,0.5c0.5,0.2,0.9,0.5,1.3,0.7c0.7,0.5,1.1,0.8,1.1,0.8s-0.5-0.2-1.3-0.6c-0.4-0.2-0.8-0.3-1.3-0.5
			c-0.5-0.2-1-0.3-1.5-0.4c-0.3,0-0.5,0-0.8,0c-0.3,0-0.5,0.1-0.8,0.1c-0.5,0.1-1,0.2-1.4,0.3C168.2,134,167.7,134.2,167.7,134.2z"
			/>
	</g>
	<g class="st1">
		<path class="st2" d="M168.8,134c0,0,0.4,0.2,1,0.4c0.6,0.2,1.4,0.5,2.2,0.5c0.4,0,0.8-0.1,1.2-0.2c0.4-0.1,0.7-0.2,1-0.3
			c0.3-0.1,0.6,0,0.8,0c0.2,0,0.3,0,0.3,0s-0.1,0-0.3,0c-0.2,0-0.4,0-0.7,0.1c-0.3,0.1-0.6,0.2-1,0.3c-0.4,0.1-0.8,0.2-1.2,0.2
			c-0.9,0-1.7-0.3-2.3-0.6C169.1,134.3,168.8,134,168.8,134z"/>
	</g>
	<g class="st1">
		<defs>
			<polygon id="SVGID_1_" points="170.8,134 171.5,135 172.8,134.9 173.7,134.3 173.8,133.6 172.7,133.1 171.9,133 170.8,133.2 			
				"/>
		</defs>
		<clipPath id="SVGID_2_" class="st2">
			<use xlink:href="#SVGID_1_"  style="overflow:visible;"/>
		</clipPath>
		<circle class="st3" cx="172.3" cy="133.6" r="1.3"/>
	</g>
	<circle class="st4" cx="171.9" cy="133.6" r="0.3"/>
	<g class="st1">
		<defs>
			<polygon id="SVGID_3_" points="186.3,133.3 186.9,133.2 188.1,133.3 189.2,133.4 189.1,134.3 188.5,134.6 187.4,134.8 
				186.8,134.8 186.2,134.2 			"/>
		</defs>
		<clipPath id="SVGID_4_" class="st2">
			<use xlink:href="#SVGID_3_"  style="overflow:visible;"/>
		</clipPath>
		<circle class="st5" cx="187.8" cy="133.7" r="1.3"/>
	</g>
	<circle class="st4" cx="187.1" cy="133.6" r="0.2"/>
	<g>
		<g>
			<path d="M131.2,180.7c0,0,0-5,0-5C131.1,175.7,131.1,180.7,131.2,180.7L131.2,180.7z"/>
		</g>
	</g>
	<g>
		<path d="M35.1,0.7c0,0-1-1-3.9-0.5s-7.6,3.5-9.2,5.2c-1.6,1.7-3.4,5.2-5.7,5.8s-3.6,7.7-3.6,8.5c0,0.8,1.1,2.1,1.2,2.7
			c0.1,0.7-2.8,2.3-2.8,3.9c0,1.6-2.9,1.5-1.3,3.9s3.6,3,3,7.9s1.3,8.4,4.2,9.5c2.9,1.1,7.5,2.5,8.8,0.4c0,0-3.9-3.7-4.5-9
			c-0.5-5.3-0.3-9.1-0.1-10c0,0,2.3-4,1.7-9.6c-0.5-5.5,2.9-4.8,2.9-4.8s5.1-3.7,7.7-0.7c2.6,3,3.3,7.3,5.4,7.9c0,0,0,7.3,8.2,6.7
			c2.5,0.7,3,5.7,5.3,6.6c0,0-2.2,7.4-1.6,8.5c0.5,1.1,2,5.4,9.5,2.6c3.2-1.1,3.2-2.7,3.2-2.7l-3-0.8c0,0,4.3-2.6,0.8-7.6
			c0,0,2.8-3.5-0.7-9.6c0,0,3.6-2.5,0.4-6.1c0,0,1.4-2.1-3.2-3.8c0,0,1.3-2.4-1.2-4.6c0,0-1,3.7-1.7,1.7c-0.8-2-1.7-5.1-4.5-5.7
			C47.8,6.7,42.4-1.7,35.1,0.7z"/>
		<path d="M20.9,42.3c0,0,6.3,5.9,8,8c1.6,2.1,2.6,3.2,4.2,3.2c1.6,0,5.8-0.5,7.2-2.9c1.4-2.4,4.6-5.2,4.8-6.2
			c-0.2,1-3.4,4.7-4.8,7.1c-1.4,2.4-5.5,2.9-7.2,2.9c-1.6,0-2.6-1.1-4.2-3.2c-1.6-2.1-6-5.9-6-5.9"/>
		<polygon points="88.5,72.6 83.5,63.1 59.2,46.1 54.3,46.5 49.8,50.1 39.9,60.1 38.7,61.8 33.3,67.1 32.4,63.3 33.5,61.1 
			31.5,53.6 29,50.9 25.7,53.3 16.1,57.2 8.5,62.9 3.4,67 0,72.6 		"/>
		<path d="M27.7,41.9l3.4,3.1c0,0,3,0.4,5.1-0.1c2-0.6,4.2-2.1,4.3-2.4l0.4-0.3l0.4,0.4c0,0-1.2,1.7-1.7,2.3
			c-0.5,0.7-3.8,3.9-9.3,1.6C29.3,46.2,27.7,41.9,27.7,41.9z"/>
		<path d="M27.7,41.9c0,0,3.6-0.4,4.1-0.3c0.5,0.1,1.5,0.2,2.5,0s5.7,0.2,5.7,0.2S32.9,43.6,27.7,41.9z"/>
		<path d="M35.5,26.9c0,0,0.6-1.9,2.1-2c1.4-0.2,2.9-0.7,2.9-0.7L41,25c0,0-2.6,0.4-3.9,1.9L35.5,26.9z"/>
		<path d="M30.4,26.5c0,0-1.4-1.5-3.1-1.9S25,24.3,25,24.3s-1.1-0.3-2.4,1c-1.3,1.3,1-0.2,1-0.2s1.2-0.4,2.4,0
			c1.1,0.4,3.1,1.6,3.1,1.6L30.4,26.5z"/>
		<g>
			<path d="M29.3,35.5c0,0-0.1,0.5-0.4,1.3c-0.3,0.7-0.9,1.6-1.7,2.4c-0.2,0.2-0.4,0.3-0.5,0.5c-0.1,0.1-0.2,0.3-0.3,0.5
				c-0.1,0.4-0.2,0.8-0.2,1.2c0,0.4,0,0.7,0.1,0.9c0,0.2,0.1,0.4,0.1,0.4s-0.4-0.4-0.6-1.2c-0.1-0.4-0.1-0.9-0.1-1.4
				c0-0.3,0.1-0.6,0.3-0.8c0.2-0.3,0.4-0.4,0.6-0.6c0.7-0.7,1.4-1.4,1.8-2c0.2-0.3,0.4-0.6,0.5-0.8C29.2,35.6,29.3,35.5,29.3,35.5z"
				/>
		</g>
		<g>
			<path d="M37.8,35.8c0,0,0.4,0.2,0.9,0.7c0.5,0.4,1.2,1,1.8,1.7c0.2,0.2,0.3,0.3,0.4,0.5c0.2,0.1,0.3,0.3,0.4,0.4
				c0.3,0.3,0.6,0.5,0.8,0.7c0.3,0.2,0.5,0.4,0.6,0.5c0.2,0.1,0.3,0.2,0.3,0.2s-0.5,0-1.1-0.3c-0.3-0.1-0.7-0.3-1-0.6
				c-0.2-0.1-0.3-0.3-0.5-0.4c-0.2-0.1-0.3-0.3-0.5-0.5c-0.6-0.6-1.2-1.3-1.5-1.9C38,36.2,37.8,35.8,37.8,35.8z"/>
		</g>
		<g>
			<path d="M45.8,39.5c0,0,0.2,0.2,0.2,0.6c0,0.1,0,0.2,0.1,0.3c0,0.1,0.1,0.2,0.1,0.3c0.1,0.2,0.1,0.5,0.1,0.8c0,0.3,0,0.6,0,0.8
				c0,0.3-0.1,0.5-0.2,0.7c-0.2,0.4-0.4,0.5-0.4,0.5s0.1-0.3,0.2-0.6c0.1-0.4,0.1-0.9,0.1-1.4c0-0.3,0-0.5-0.1-0.7
				c0-0.1,0-0.2,0-0.4c0-0.1,0-0.3,0-0.3c0-0.2,0.1-0.4,0.1-0.5C45.9,39.6,45.8,39.5,45.8,39.5z"/>
		</g>
		<g>
			<path d="M44.6,29.6c0,0,0.1,0,0.3-0.1c0.1,0,0.3-0.1,0.4-0.2c0.1-0.1,0.3-0.1,0.4-0.2c0.1-0.1,0.2-0.1,0.2-0.1s0.1,0.1,0,0.3
				c0,0.2-0.2,0.4-0.4,0.5c-0.2,0.1-0.5,0.1-0.6,0C44.7,29.7,44.6,29.6,44.6,29.6z"/>
		</g>
		<g>
			<path d="M44.3,31.4c0,0,0.2-0.1,0.6-0.1c0.4,0,0.9,0,1.3,0.4c0.1,0.1,0.2,0.2,0.3,0.3c0.1,0.1,0.1,0.2,0.2,0.3
				c0.1,0.2,0.1,0.4,0.1,0.6c0,0.4,0,0.6,0,0.6s-0.1-0.2-0.2-0.5c-0.1-0.2-0.2-0.3-0.3-0.5c-0.1-0.1-0.1-0.1-0.2-0.2
				C46,32.2,46,32.1,45.9,32c-0.3-0.2-0.7-0.4-1-0.5C44.5,31.4,44.3,31.4,44.3,31.4z"/>
		</g>
		<g>
			<path d="M29.2,35.8c-0.1,0.3-0.1,0.6-0.1,1c0,0.3,0,0.6,0.1,0.9c0,0.1,0.1,0.1,0.1,0.2c0,0.1,0.1,0.1,0.1,0.1c0,0,0.1,0,0.1,0.1
				c0,0,0.1,0,0.2,0c0.2,0,0.5-0.1,0.8-0.2l0.3-0.1L31,38c0,0.2,0.1,0.4,0.2,0.6c0.1,0.2,0.2,0.3,0.4,0.5c0.3,0.3,0.6,0.4,1,0.4
				c0.2,0,0.4,0,0.6,0c0.2,0,0.4-0.1,0.5-0.2c0.3-0.1,0.6-0.4,1-0.8c0.2-0.2,0.4-0.3,0.7-0.4c0.2-0.1,0.5-0.2,0.8-0.2
				c0.5-0.1,0.8-0.2,1.2-0.4c0.3-0.2,0.4-0.6,0.3-1c-0.1-0.4-0.3-0.8-0.6-1.2c0.4,0.3,0.7,0.7,0.9,1.1c0.1,0.2,0.2,0.5,0.1,0.8
				c0,0.3-0.2,0.6-0.4,0.8c-0.4,0.4-0.9,0.6-1.4,0.7c-0.2,0.1-0.4,0.1-0.6,0.2c-0.2,0.1-0.3,0.2-0.5,0.3c-0.3,0.3-0.6,0.7-1.2,1
				c-0.3,0.1-0.5,0.2-0.8,0.2c-0.2,0-0.5,0-0.8,0c-0.6,0-1.1-0.3-1.5-0.7c-0.2-0.2-0.3-0.4-0.5-0.7c-0.1-0.2-0.2-0.5-0.2-0.8
				l0.4,0.3c-0.3,0.1-0.7,0.2-1.1,0.1c-0.1,0-0.2,0-0.3-0.1c-0.1-0.1-0.2-0.1-0.3-0.2c-0.1-0.1-0.2-0.2-0.2-0.2
				c0-0.1-0.1-0.2-0.1-0.3c0-0.2,0-0.4,0-0.5c0-0.2,0-0.3,0.1-0.5C28.9,36.4,29,36,29.2,35.8z"/>
		</g>
		<g>
			<path d="M32.9,55c0,0,0.3,0.1,0.9,0.2c0.3,0.1,0.7,0.2,1.1,0.2c0.4,0,0.9,0,1.4-0.1c1-0.2,2.1-0.6,3.2-1.4c1.1-0.7,2-1.7,2.9-2.8
				c0.9-1.1,1.8-2.1,2.7-3.1c0.8-1,1.6-1.9,2.3-2.7c1.4-1.6,2.3-2.6,2.3-2.6s-0.8,1.1-2.1,2.8c-0.6,0.8-1.4,1.8-2.2,2.8
				c-0.8,1-1.8,2.1-2.7,3.1c-1,1-2,2-3.1,2.8c-1.1,0.8-2.3,1.2-3.4,1.3c-0.5,0.1-1,0-1.5,0c-0.4-0.1-0.8-0.2-1.1-0.3
				C33.3,55.1,32.9,55,32.9,55z"/>
		</g>
		<g>
			<path d="M36.2,30.5c0.9-0.6,1.8-1.2,2.8-1.6c0.1-0.1,0.3-0.1,0.4-0.1c0.1,0,0.3-0.1,0.4-0.1c0.2,0,0.3,0,0.4,0l0.4,0
				c0.5,0,1.1,0.1,1.6,0.2l0,0c0.3,0.1,0.5,0.1,0.7,0.2c0.2,0.1,0.5,0.2,0.7,0.3c-0.5-0.2-1-0.2-1.5-0.3l0,0c-0.5,0-1.1,0-1.6-0.1
				l-0.4,0c-0.1,0-0.3,0-0.4,0c-0.2,0-0.5,0.1-0.7,0.2C38.2,29.7,37.2,30.1,36.2,30.5z"/>
		</g>
		<g>
			<path d="M37.5,30c0,0,0.4,0,0.9,0c0.3,0,0.6,0,0.9,0c0.3,0,0.7,0,1.1,0c0.4,0,0.7-0.1,1-0.1c0.3-0.1,0.6-0.2,0.9-0.3
				c0.2-0.1,0.5-0.2,0.6-0.3c0.1-0.1,0.2-0.1,0.2-0.1s-0.1,0.1-0.2,0.2c-0.1,0.1-0.3,0.3-0.5,0.5c-0.2,0.2-0.5,0.3-0.9,0.4
				c-0.3,0.1-0.7,0.2-1.1,0.2c-0.4,0-0.8,0-1.1,0c-0.4,0-0.7-0.1-1-0.2C37.9,30.1,37.5,30,37.5,30z"/>
		</g>
		<g>
			<path d="M23.5,29.7c0,0,0.4-0.3,1.1-0.6c0.3-0.1,0.7-0.3,1.2-0.4c0.2-0.1,0.5-0.1,0.7-0.1c0.2,0,0.5-0.1,0.8-0.1
				c0.5,0.1,1,0.2,1.4,0.4c0.4,0.2,0.8,0.4,1.1,0.6c0.6,0.4,1,0.7,1,0.7s-0.4-0.2-1.1-0.5c-0.3-0.2-0.7-0.3-1.1-0.5
				c-0.4-0.2-0.9-0.3-1.3-0.3c-0.2,0-0.5,0-0.7,0c-0.2,0-0.5,0.1-0.7,0.1c-0.4,0.1-0.9,0.2-1.2,0.3C24,29.6,23.5,29.7,23.5,29.7z"/>
		</g>
		<g>
			<path d="M24.5,29.6c0,0,0.4,0.1,0.9,0.2c0.5,0.1,1.2,0.3,1.9,0.3c0.3,0,0.7-0.1,1-0.1c0.3-0.1,0.6-0.1,0.9-0.2c0.3,0,0.5,0,0.7,0
				c0.2,0,0.2,0.1,0.2,0.1s-0.1,0-0.3,0c-0.2,0-0.4,0.1-0.6,0.1c-0.2,0.1-0.5,0.2-0.9,0.3c-0.3,0.1-0.7,0.2-1.1,0.2
				c-0.8,0-1.5-0.3-2-0.6C24.7,29.8,24.5,29.6,24.5,29.6z"/>
		</g>
		<g>
			<defs>
				<polygon id="SVGID_5_" points="26.2,29.6 26.8,30.5 28,30.4 28.8,29.9 28.8,29.2 27.9,28.8 27.2,28.7 26.2,28.9 				"/>
			</defs>
			<clipPath id="SVGID_6_">
				<use xlink:href="#SVGID_5_"  style="overflow:visible;"/>
			</clipPath>
			<circle class="st6" cx="27.5" cy="29.2" r="1.1"/>
		</g>
		<circle class="st7" cx="27.2" cy="29.2" r="0.2"/>
		<g>
			<defs>
				<polygon id="SVGID_7_" points="39.7,29 40.3,28.9 41.3,29 42.2,29.1 42.2,29.8 41.6,30.1 40.6,30.2 40.1,30.3 39.6,29.7 				"/>
			</defs>
			<clipPath id="SVGID_8_">
				<use xlink:href="#SVGID_7_"  style="overflow:visible;"/>
			</clipPath>
			<circle class="st8" cx="41" cy="29.3" r="1.1"/>
		</g>
		<circle class="st7" cx="40.4" cy="29.3" r="0.2"/>
	</g>
</g>
</svg>
