<?xml version="1.0" encoding="utf-8"?>
<!-- Generator: Adobe Illustrator 19.0.1, SVG Export Plug-In . SVG Version: 6.00 Build 0)  -->
<svg version="1.1" id="Layer_1" xmlns="http://www.w3.org/2000/svg" xmlns:xlink="http://www.w3.org/1999/xlink" x="0px" y="0px"
	 viewBox="0 0 640 640" style="enable-background:new 0 0 640 640;" xml:space="preserve">
<style type="text/css">
	.st0{clip-path:url(#SVGID_2_);fill:#010101;}
	.st1{fill:#FFFFFF;}
	.st2{clip-path:url(#SVGID_4_);fill:#010101;}
	.st3{clip-path:url(#SVGID_6_);}
	.st4{fill:none;stroke:#000000;stroke-width:1.2357;stroke-miterlimit:10;}
	.st5{fill:none;stroke:#000000;stroke-width:1.2021;stroke-miterlimit:10;}
	.st6{fill:none;stroke:#000000;stroke-width:1.0655;stroke-miterlimit:10;}
</style>
<g>
	<g>
		<defs>
			<polygon id="SVGID_1_" points="293,342.1 289.7,340.5 285.7,339.2 281,339.4 278.2,339.8 275.3,341.1 273.7,343.6 275.4,348.9 
				278.9,350.7 279.9,348.7 286.4,349.1 290.6,347.4 293.7,344.9 296.5,343.8 			"/>
		</defs>
		<clipPath id="SVGID_2_">
			<use xlink:href="#SVGID_1_"  style="overflow:visible;"/>
		</clipPath>
		<circle class="st0" cx="285.5" cy="342.1" r="6.4"/>
	</g>
</g>
<circle class="st1" cx="285" cy="340.9" r="1"/>
<g>
	<g>
		<defs>
			<polygon id="SVGID_3_" points="351.1,352.5 351,345.6 353.6,346.5 359.8,346.1 365.9,347.4 368,348.7 371.7,352.8 368.4,352.6 
				364.6,354.6 361.2,355.4 356.5,356.1 354.2,356.4 			"/>
		</defs>
		<clipPath id="SVGID_4_">
			<use xlink:href="#SVGID_3_"  style="overflow:visible;"/>
		</clipPath>
		<circle class="st2" cx="360.6" cy="348.5" r="6.6"/>
	</g>
</g>
<circle class="st1" cx="358.6" cy="347.5" r="1.1"/>
<g>
	<path d="M296.5,371.7c0,0-1.1,1.3-2.6,3.9c-0.8,1.3-1.6,2.9-2.4,4.8c-0.4,1-0.7,2-0.9,3.1c-0.2,1.1-0.2,2.3,0.1,3.5
		c0.3,1.2,1.2,2.1,2.3,2.8c1.1,0.6,2.5,1,3.9,1.1c0.7,0.1,1.4,0.1,2.2,0.1c0.8,0,1.5,0,2.3-0.1c0.8,0,1.5,0,2.3,0
		c0.4,0,0.8,0.1,1.2,0.1l0.6,0.1c0.2,0,0.4,0.1,0.6,0.1l1.2,0.3l1.2,0.5c0.4,0.1,0.8,0.4,1.1,0.6l0.6,0.3l0.5,0.4
		c1.4,1.1,2.4,2.5,3.4,3.8c1,1.3,2.1,2.6,3.5,3.2c0.2,0.1,0.3,0.2,0.5,0.3l0.6,0.2l0.6,0.2c0.2,0,0.4,0,0.6,0.1
		c0.4,0,0.8,0.1,1.2,0.1c0.4,0,0.9,0,1.3-0.1c1.5-0.2,3.1-0.8,4.5-1.6c1.4-0.8,2.8-1.8,4.2-2.8c1.4-0.9,2.9-1.8,4.6-2.3
		c1.6-0.5,3.4-0.6,5-0.6c1.6,0.1,3.1,0,4.6-0.1c1.5-0.1,3-0.3,4.3-0.9c1.3-0.5,2.3-1.4,2.6-2.7c0.3-1.2,0-2.5-0.4-3.7
		c-0.4-1.2-1-2.3-1.6-3.3c-0.6-1-1.2-1.9-1.8-2.8c-1.2-1.7-2.2-3.2-3.1-4.4c-1.7-2.5-2.6-3.9-2.6-3.9s0.2,0.4,0.7,1
		c0.5,0.6,1.2,1.6,2.1,2.8c0.9,1.2,2,2.6,3.2,4.3c1.2,1.7,2.6,3.6,3.6,6.1c0.5,1.2,0.8,2.6,0.5,4.1c-0.2,0.7-0.5,1.5-1.1,2
		c-0.5,0.6-1.2,1-1.9,1.3c-2.9,1.2-6.1,1.2-9.3,1.2c-1.6,0-3.1,0.1-4.6,0.6c-1.5,0.5-2.9,1.3-4.3,2.2c-1.4,0.9-2.7,1.9-4.2,2.8
		c-1.5,0.9-3.2,1.6-5.1,1.8c-0.4,0-0.9,0-1.3,0c-0.5,0-0.9-0.1-1.4-0.1c-0.2,0-0.5,0-0.7-0.1l-0.7-0.2l-0.7-0.2
		c-0.2-0.1-0.4-0.2-0.6-0.3c-1.7-0.8-2.9-2.3-3.9-3.6c-1-1.4-2-2.7-3.2-3.7l-0.4-0.4l-0.5-0.3c-0.3-0.2-0.6-0.4-1-0.6l-1.1-0.5
		l-1.1-0.3c-0.2,0-0.4-0.1-0.6-0.1l-0.6-0.1c-0.4,0-0.7-0.1-1.1-0.1c-0.8-0.1-1.6,0-2.3-0.1c-0.8,0-1.5,0-2.3,0
		c-0.8-0.1-1.5-0.1-2.3-0.2c-1.5-0.2-2.9-0.6-4.2-1.3c-1.3-0.7-2.3-1.9-2.6-3.3c-0.4-1.3-0.3-2.6,0-3.8c0.2-1.2,0.6-2.2,1-3.2
		c0.8-1.9,1.8-3.5,2.6-4.7c0.8-1.3,1.5-2.2,2-2.8C296.2,372,296.5,371.7,296.5,371.7z"/>
</g>
<path d="M280.7,423c0,0,15.4-8.6,25.9-5.6c10.5,3.1,13.6,2.2,13.6,2.2s9.3-2.2,15.1-0.3c5.9,1.9,18.5,6.2,19.8,11.1
	c0,0-2.2,0-3.1,0.3c-0.9,0.3-11.1,13-21.3,12.4c-10.2-0.6-19.2-1.2-22.2-0.6s-15.8-4.3-17.6-7.7c-1.9-3.4-9.9-8.6-14.5-9L280.7,423z
	"/>
<g>
	<path d="M298,444.3c0,0,0.5,0.1,1.4,0.3c0.9,0.2,2.1,0.3,3.6,0.4c1.5,0.1,3.3,0.1,5.1,0c0.9,0,1.9-0.2,2.9-0.3
		c0.5-0.1,1-0.1,1.5-0.2c0.5-0.1,1-0.1,1.5-0.1c0.5,0,1.1,0,1.6,0c0.5,0,1,0.1,1.5,0.1c1,0.1,2,0.3,2.9,0.6c1.9,0.5,3.5,1.2,4.9,1.7
		c1.4,0.6,2.6,1,3.4,1.2c0.4,0.1,0.8,0.2,1,0.2c0.2,0,0.4,0.1,0.4,0.1s-0.1,0-0.4,0c-0.2,0-0.6,0-1,0c-0.4,0-1-0.1-1.6-0.3
		c-0.6-0.1-1.3-0.3-2-0.5c-0.7-0.2-1.5-0.4-2.4-0.7c-0.8-0.2-1.7-0.5-2.6-0.7c-0.9-0.2-1.9-0.3-2.8-0.4c-0.5,0-1-0.1-1.5-0.1
		c-0.5,0-1,0-1.5,0c-0.5,0-1,0-1.5,0.1c-0.5,0.1-1,0.1-1.5,0.2c-1,0.1-2,0.2-3,0.2c-1.9,0-3.7-0.1-5.2-0.4c-1.5-0.3-2.7-0.6-3.6-0.9
		C298.5,444.5,298,444.3,298,444.3z"/>
</g>
<path d="M341.9,327.9c0,0,12-1.9,19.5,1.5c7.4,3.4,6.8-0.6,14.2,6.8c7.4,7.4-1.2,0.3-1.2,0.3s-18.5,1.5-23.8-0.3
	S341.9,327.9,341.9,327.9z"/>
<path d="M303.9,329.7c0,0-0.9-5.9-7.7-5.9c-6.8,0-13.9-2.8-20.4,0c-6.5,2.8-7.7,6.8-7.7,6.8s12.7-0.9,17.3-0.6
	C290,330.3,300.2,332.2,303.9,329.7z"/>
<path d="M237.5,339c0,0-2.8-11.4-9.6-17.6c-6.8-6.2,3.1-57.1,7.1-65.5c4-8.3,21.6-29,33.1-34c11.4-4.9,34.6-12.4,45.7-13.6
	s36.8,0.9,50,9.9s27.5,17.6,28.7,20.1c1.2,2.5,24.1,25.9,24.1,49.1s-1.9,46-4.9,51c-3.1,4.9-9.9,11.4-10.5,15.4
	c0,0-5.3-2.8-0.9-17.9c4.3-15.1,0.6-17.9,3.1-35.2c2.5-17.3,0.3-26.3-8-40.2c-8.3-13.9-13.6-25.3-21.6-27.2c-8-1.9-12.4,8-12.4,8
	s-25.9-17.3-30.3-17.3c-4.3,0-20.4,0-29.7,8c-9.3,8-19.2-6.2-23.5-2.5c-4.3,3.7-27.2,17.3-29,32.1c-1.9,14.8,0,21.6,1.2,26.6
	c1.2,4.9-7.7,19.2-7.4,24.4C243,318,243.6,335.6,237.5,339z"/>
<g>
	<path d="M335.4,338.1c0,0,2.9-0.3,7.3-0.4c1.1,0,2.3-0.1,3.5-0.1c1.2,0,2.6-0.1,3.9-0.1c1.4,0,2.8,0,4.2,0c0.7,0,1.4,0,2.1,0
		c0.7,0,1.4,0,2-0.1c1.6-0.3,3.1-0.2,4.6-0.1c1.5,0.1,2.9,0.4,4.3,0.7c1.4,0.4,2.7,0.8,3.9,1.3c0.6,0.3,1.2,0.5,1.7,0.8
		c0.5,0.3,1,0.6,1.5,0.9c1,0.6,1.7,1.3,2.4,1.8c0.7,0.6,1.2,1.2,1.7,1.6c0.8,1,1.3,1.6,1.3,1.6s-0.6-0.4-1.6-1.2
		c-0.5-0.4-1.2-0.8-1.9-1.2c-0.8-0.4-1.6-0.9-2.6-1.3c-0.5-0.2-1-0.4-1.5-0.6c-0.5-0.2-1.1-0.4-1.7-0.6c-1.1-0.4-2.4-0.6-3.7-0.9
		c-1.3-0.2-2.6-0.4-4-0.4c-1.4-0.1-2.8-0.1-4,0.2c-0.9,0.1-1.6,0.1-2.4,0.1c-0.7,0-1.5,0-2.2,0c-1.4,0-2.8-0.1-4.2-0.2
		c-2.7-0.2-5.3-0.4-7.4-0.6C338.3,338.6,335.4,338.1,335.4,338.1z"/>
</g>
<g>
	<path d="M304.2,333.6c0,0-0.2,0-0.4,0c-0.3,0-0.7,0-1.3,0c-1.1-0.1-2.6-0.3-4.4-0.5c-0.9-0.1-1.9-0.3-2.9-0.4
		c-1-0.2-2.1-0.3-3.2-0.5c-1.1-0.2-2.3-0.3-3.5-0.5c-1.2-0.2-2.4-0.3-3.6-0.4l-1.8-0.1c-0.6,0-1.2,0-1.8,0c-1.2,0-2.3,0-3.3,0.2
		c-1.1,0.2-2,0.4-3.1,0.7c-1,0.3-1.9,0.6-2.8,0.9c-0.8,0.3-1.6,0.6-2.3,0.9c-0.7,0.3-1.2,0.6-1.7,0.9c-0.4,0.3-0.8,0.5-1,0.7
		c-0.2,0.2-0.3,0.3-0.3,0.3s0-0.2,0.2-0.4c0.1-0.3,0.4-0.6,0.8-1c0.8-0.8,2-1.8,3.7-2.7c0.8-0.4,1.7-0.9,2.7-1.3
		c0.9-0.4,2.1-0.9,3.3-1.1c1.2-0.2,2.4-0.4,3.7-0.4c0.6,0,1.3,0,1.9,0l1.9,0.1c1.2,0.1,2.5,0.3,3.7,0.5c1.2,0.2,2.4,0.5,3.5,0.7
		c1.1,0.2,2.2,0.5,3.2,0.8c1,0.3,2,0.6,2.9,0.9c1.8,0.6,3.2,1.1,4.2,1.4c0.5,0.2,0.9,0.3,1.2,0.4C304,333.5,304.2,333.6,304.2,333.6
		z"/>
</g>
<g>
	<path d="M374,350.9c-0.3,0.7-0.7,1.3-1.1,1.9c-0.4,0.6-0.9,1.2-1.4,1.7c-0.5,0.5-1,1.1-1.6,1.5c-0.3,0.2-0.6,0.4-0.9,0.7
		c-0.3,0.2-0.6,0.4-1,0.6c-0.3,0.2-0.7,0.4-1,0.5c-0.4,0.1-0.7,0.3-1.1,0.4c-0.4,0.1-0.7,0.2-1.1,0.3l-1.1,0.2
		c-0.4,0.1-0.8,0.1-1.2,0.1l-0.6,0l-0.1,0l-0.2,0l-0.3,0l-1.1-0.1l-1.1-0.1c-0.8-0.1-1.5-0.2-2.2-0.3c-0.7-0.1-1.5-0.3-2.2-0.5
		c-1.5-0.3-2.9-0.8-4.3-1.2l-4.1-1.4c-0.7-0.2-1.4-0.5-2-0.7c-0.7-0.2-1.3-0.3-1.9-0.4l-2.8-0.2l2-1.8c0.5-0.5,0.9-0.7,1.3-1
		c0.4-0.3,0.9-0.5,1.3-0.8c0.4-0.2,0.9-0.5,1.3-0.7c0.4-0.2,0.9-0.4,1.2-0.6c1.6-0.9,3.3-1.8,5.2-2.6c0.9-0.4,1.8-0.8,2.8-1
		c1-0.3,2-0.5,3-0.6c1-0.1,2.1-0.1,3.2,0.1l0.4,0.1c0.2,0,0.3,0.1,0.4,0.1l0.7,0.2c0.5,0.1,1,0.3,1.4,0.5c1.8,0.7,3.5,1.6,5.3,2.4
		c1.7,0.8,3.4,1.7,5.1,2.6c1.7,0.9,3.4,1.7,5.1,2.5c0.9,0.4,1.7,0.8,2.6,1.1c0.9,0.3,1.8,0.6,2.7,0.6c-0.9,0.1-1.9,0-2.9-0.2
		c-0.9-0.2-1.9-0.5-2.8-0.8c-0.9-0.3-1.8-0.6-2.7-1c-0.9-0.3-1.8-0.7-2.7-1.1l-5.3-2.2c-1.7-0.7-3.5-1.5-5.2-2
		c-0.4-0.1-0.8-0.3-1.3-0.4l-0.7-0.2c-0.1,0-0.3-0.1-0.3-0.1l-0.3,0c-0.8-0.2-1.7-0.1-2.5,0c-0.9,0.1-1.7,0.3-2.6,0.6
		c-0.9,0.3-1.7,0.6-2.5,1c-1.7,0.8-3.3,1.7-5,2.6c-0.5,0.3-0.9,0.4-1.3,0.7c-0.4,0.2-0.8,0.4-1.2,0.6c-0.4,0.2-0.8,0.4-1.1,0.7
		c-0.3,0.2-0.8,0.5-0.9,0.7l-0.8-2.1c0.9,0.1,1.7,0.3,2.4,0.5c0.7,0.2,1.4,0.5,2.1,0.7l4.1,1.6c1.3,0.5,2.7,1,4.1,1.4
		c0.7,0.2,1.4,0.4,2.1,0.6c0.7,0.1,1.4,0.3,2.1,0.4c0.7,0.1,1.4,0.2,2.1,0.3l0.3,0l0.1,0l0.1,0l0.5,0c0.3,0,0.7,0.1,1,0l1-0.1l1-0.2
		c0.3,0,0.7-0.2,1-0.3c0.3-0.1,0.7-0.2,1-0.4c0.3-0.1,0.6-0.3,0.9-0.4c0.3-0.2,0.6-0.3,0.9-0.5c0.6-0.4,1.2-0.8,1.7-1.3
		c0.6-0.5,1-1,1.5-1.5C373.1,352.1,373.6,351.5,374,350.9z"/>
</g>
<g>
	<path d="M256.6,342.4c2,0.5,4.1,0.8,6.1,0.8c2,0,4-0.5,6-1.1c2-0.6,3.9-1.3,5.8-2.1l0.7-0.3l0.8-0.3c0.5-0.2,1-0.4,1.5-0.5l1.6-0.4
		l1.6-0.2c1.1-0.1,2.2-0.1,3.3-0.1c1.1,0.1,2.2,0.2,3.3,0.4c1.1,0.2,2.1,0.5,3.2,0.9c1,0.4,2,0.8,3,1.4c1,0.5,1.9,1.1,2.8,1.9
		c0.2,0.2,0.4,0.4,0.7,0.6l0.6,0.6c0.4,0.4,0.7,0.6,1.1,0.9c0.8,0.6,1.6,1.2,2.4,1.7c0.9,0.5,1.8,1,2.6,1.4l3.3,1.5l-3.6,0.8
		c-1.5,0.3-3,0.6-4.5,0.8c-1.5,0.2-3,0.4-4.5,0.6c-1.5,0.2-3,0.3-4.5,0.3c-0.8,0-1.5,0-2.3,0c-0.7,0-1.5-0.1-2.3-0.1
		c-0.8,0-1.5-0.1-2.3-0.3c-0.8-0.1-1.5-0.3-2.3-0.5c-1.5-0.5-2.9-1.2-4.2-2c-2.6-1.7-4.8-3.7-6.9-5.8l1.8,1.3
		c0.6,0.4,1.2,0.9,1.8,1.3c0.6,0.4,1.2,0.8,1.9,1.2c0.6,0.4,1.3,0.8,1.9,1.1c1.3,0.7,2.6,1.2,4,1.5c0.7,0.2,1.4,0.3,2.1,0.3
		c0.7,0.1,1.4,0.1,2.2,0.1c0.7,0,1.5,0,2.2,0c0.7,0,1.5,0,2.2-0.1c1.5-0.1,2.9-0.3,4.4-0.4c1.5-0.2,2.9-0.4,4.4-0.7
		c1.4-0.3,2.9-0.5,4.3-0.9l-0.2,2.3c-1-0.5-2-0.9-2.9-1.5c-0.9-0.5-1.9-1.1-2.7-1.8c-0.4-0.3-0.9-0.8-1.3-1.1l-0.5-0.5
		c-0.2-0.2-0.3-0.3-0.5-0.5c-0.7-0.6-1.5-1.2-2.4-1.6c-0.8-0.5-1.8-0.9-2.7-1.3c-0.9-0.3-1.9-0.6-2.8-0.9c-1-0.2-1.9-0.4-2.9-0.5
		c-1-0.1-2-0.1-3,0l-1.5,0.1l-1.4,0.3c-0.5,0.1-1,0.3-1.5,0.4l-0.7,0.2l-0.7,0.2c-2,0.7-4,1.2-6.1,1.7c-2.1,0.5-4.2,0.7-6.4,0.6
		c-1.1-0.1-2.1-0.3-3.1-0.5C258.6,343.1,257.6,342.8,256.6,342.4z"/>
</g>
<g>
	<path d="M354.8,387.5c0,0,0.6,1.2,1.6,3.3c1,2.1,2.5,5.1,4.3,8.6c0.9,1.8,1.9,3.7,3,5.7c0.6,1,1.1,2,1.8,2.9c0.3,0.5,0.7,0.9,1,1.4
		l0.6,0.6c0.1,0.1,0.2,0.2,0.3,0.4c0.1,0.2,0.3,0.3,0.4,0.5c0.8,1.3,1.2,2.5,1.5,3.8c0.3,1.3,0.6,2.6,0.7,4c0.3,2.7,0.3,5.4,0,8.2
		c-0.3,2.7-0.8,5.4-1.7,8c-0.9,2.6-2.2,5-3.8,7.1c-1.6,2-3.1,3.8-4.5,5.6c-1.4,1.8-2.7,3.5-3.9,5.1c-4.8,6.4-8,10.6-8,10.6
		s2.5-4.7,6.9-11.4c1.1-1.7,2.3-3.5,3.6-5.4c1.3-1.9,2.8-3.9,4.3-5.8c1.4-1.9,2.5-4.1,3.3-6.5c0.8-2.4,1.3-4.9,1.5-7.5
		c0.3-2.6,0.3-5.2,0.1-7.7c-0.1-1.3-0.3-2.5-0.6-3.7c-0.3-1.2-0.6-2.3-1.1-3.2l-0.2-0.2c0-0.1-0.2-0.2-0.3-0.3l-0.7-0.8
		c-0.4-0.5-0.8-1.1-1.1-1.6c-0.6-1.1-1.2-2.1-1.7-3.2c-1-2.1-1.9-4.1-2.7-5.9c-1.5-3.7-2.7-6.8-3.4-9
		C355.2,388.8,354.8,387.5,354.8,387.5z"/>
</g>
<g>
	<path d="M288.1,379.8c0,0-0.6,1.2-1.8,3.2c-1.2,2-2.8,4.9-5,8.2c-1.1,1.7-2.3,3.5-3.6,5.3c-0.7,0.9-1.4,1.9-2.2,2.8
		c-0.9,1-1.8,1.8-2.6,2.6c-1.7,1.8-3.2,3.7-4.7,5.8c-1.4,2.1-2.6,4.3-3.5,6.7c-0.9,2.4-1.4,4.8-1.5,7.3c-0.1,2.5,0.4,4.8,1,7.2
		c0.6,2.3,1.4,4.5,2.3,6.6c0.9,2.1,1.9,3.9,2.8,5.7c1.9,3.4,3.7,6.2,4.9,8.2c1.2,2,1.8,3.2,1.8,3.2s-0.2-0.3-0.5-0.8
		c-0.4-0.5-0.9-1.2-1.6-2.1c-1.4-1.8-3.5-4.4-5.7-7.8c-1.1-1.7-2.2-3.5-3.2-5.6c-1-2.1-2-4.3-2.8-6.8c-0.2-0.6-0.4-1.2-0.5-1.8
		l-0.2-0.9l-0.1-0.5l-0.1-0.5c-0.1-0.7-0.2-1.3-0.3-2c0-0.7,0-1.4-0.1-2.1c0-2.8,0.6-5.5,1.6-8.1c1-2.6,2.3-5,3.8-7.2
		c1.5-2.2,3.3-4.2,5.1-6c0.9-0.9,1.9-1.7,2.6-2.5c0.8-0.8,1.5-1.7,2.2-2.6c1.4-1.8,2.7-3.4,3.9-5C284.9,384,288.1,379.8,288.1,379.8
		z"/>
</g>
<g>
	<path d="M372.1,443.7c0,0-5.8,7.4-14.6,18.5c-2.2,2.8-4.5,5.8-7,9c-2.4,3.2-4.9,6.7-7.4,10.3c-0.3,0.5-0.6,0.9-0.9,1.4
		c-0.3,0.5-0.5,0.9-0.8,1.4l-0.2,0.4l-0.1,0.2l-0.1,0.1l-0.1,0.2l-0.2,0.4l-0.1,0.2l-0.2,0.2c-0.3,0.3-0.5,0.5-0.8,0.8l-0.8,0.6
		c-2.2,1.4-4.5,2-6.9,2.5c-2.3,0.5-4.7,0.7-7.1,0.9c-2.4,0.1-4.8,0.2-7.2,0.1c-4.8-0.2-9.5-0.7-14.1-1.5c-4.6-0.8-9.1-2-13.3-3.7
		c-2.1-0.9-4.1-1.8-6-3c-1.9-1.2-3.6-2.6-4.9-4.3c-2.4-3.3-4.4-6.6-6.1-9.7c-1.7-3.1-3.1-6.1-4.2-8.7c-1.1-2.6-2.1-5-2.8-6.9
		c-0.8-1.9-1.4-3.4-1.8-4.4c-0.5-1-0.7-1.5-0.7-1.5s1.2,2,3,5.8c1.8,3.7,4.3,9.1,7.9,15.1c1.8,3,3.9,6.2,6.4,9.3
		c1.2,1.5,2.7,2.7,4.5,3.7c1.8,1,3.7,1.9,5.7,2.7c4,1.5,8.4,2.6,12.9,3.4c4.5,0.8,9.2,1.2,13.8,1.4c2.3,0.1,4.6,0.1,6.9-0.1
		c2.3-0.1,4.6-0.3,6.8-0.8c1.1-0.2,2.2-0.5,3.2-0.8c0.5-0.2,1-0.4,1.5-0.5c0.4-0.2,1-0.4,1.4-0.7l0.6-0.4c0.1-0.1,0.3-0.3,0.4-0.4
		c0,0,0.1-0.1,0.1-0.1l0.1-0.2l0.2-0.3l0.1-0.2l0.1-0.1c0,0-0.1,0.2,0,0.1l0,0l0.2-0.4c0.3-0.5,0.6-1,0.9-1.5
		c0.3-0.5,0.6-0.9,0.9-1.4c2.5-3.7,5.2-7,7.7-10.2c2.6-3.1,5-6.1,7.3-8.8c4.6-5.4,8.5-9.8,11.3-12.8
		C370.5,445.4,372.1,443.7,372.1,443.7z"/>
</g>
<g>
	<path d="M231.3,371.7c-0.4,6.5-0.6,13.1-0.8,19.6c-0.1,3.3-0.2,6.5-0.2,9.8c0,3.3,0,6.5,0.1,9.8c0.1,1.6,0.1,3.3,0.3,4.9
		c0.1,0.8,0.1,1.6,0.3,2.4l0.2,1.2l0.3,1.2c0.8,3.2,1.7,6.3,2.6,9.4c1,3.1,2,6.2,3.1,9.3c0.5,1.5,1.1,3.1,1.7,4.6
		c0.6,1.5,1.2,3,2,4.4l0.2,0.3l-0.1,0.3l-1.8,6.2l0-0.2c0,1.6,0.3,3.4,0.6,5c0.4,1.7,0.8,3.3,1.4,4.9c0.6,1.6,1.2,3.2,1.9,4.8
		c0.7,1.5,1.5,3.1,2.4,4.6c0.4,0.8,0.9,1.5,1.4,2.2c0.5,0.7,0.9,1.4,1.5,2.1l1.5,2.1l1.6,2l0.4,0.5c0.1,0.1,0.2,0.2,0.2,0.2l0.2,0.2
		l0.9,1c0.6,0.6,1.2,1.3,1.8,1.9c1.3,1.2,2.4,2.4,3.8,3.5l2,1.7l2,1.6c1.3,1.1,2.8,2.1,4.2,3.1c1.4,1,2.8,2,4.3,3
		c1.5,0.9,2.9,1.9,4.4,2.8c1.5,0.9,3,1.8,4.5,2.7c1.5,0.9,3,1.7,4.5,2.6c3,1.7,6.1,3.3,9.2,4.9l0.1,0l0.1,0c4,2.6,8,5.2,12,7.9
		c2,1.4,3.9,2.8,5.8,4.2c1,0.7,1.9,1.5,2.8,2.3c0.5,0.4,0.9,0.8,1.4,1.3c0.2,0.2,0.5,0.5,0.7,0.8c0.1,0.1,0.2,0.3,0.3,0.5
		c0.1,0.1,0.2,0.5,0.3,0.7l-1.1-0.9l9,0.3l-0.9,0.3c3.6-3.5,7.2-6.9,10.8-10.4l5.5-5.1c0.9-0.8,1.8-1.7,2.8-2.5
		c0.2-0.2,0.5-0.4,0.8-0.7l0.8-0.5l1.5-1.1l24.6-17.2l-0.2,0.2c2.5-2.9,5-5.8,7.4-8.8c1.2-1.5,2.3-3,3.5-4.6
		c0.5-0.8,1.1-1.6,1.6-2.3c0.3-0.4,0.5-0.8,0.7-1.2c0.2-0.4,0.5-0.8,0.7-1.2c0.2-0.4,0.4-0.8,0.6-1.2l0.2-0.6l0.2-0.7
		c0.3-0.9,0.5-1.8,0.7-2.8c0.5-1.8,0.8-3.7,1-5.6c0.4-3.7,0.3-7.6,0.2-11.4l0-0.2l0.1-0.2c2-5.2,3.9-10.4,5.7-15.7
		c0.9-2.6,1.8-5.3,2.6-7.9c0.8-2.6,1.6-5.3,2.2-8l0.1-0.5l0.5-0.1c0.7-0.2,1.4-0.6,2-1.1c0.6-0.5,1.1-1.1,1.5-1.8
		c0.7-1.4,0.9-3.2,0.7-4.8c-0.2-1.8-0.4-3.6-0.5-5.4c0-0.9-0.1-1.9,0.2-2.9c0.1-0.5,0.4-1,0.6-1.4l0.2-0.3l0.1-0.1l0.1-0.1
		c0.1-0.2,0.2-0.4,0.3-0.6c0.7-1.5,1.3-3.3,1.9-4.9c0.6-1.7,1.1-3.4,1.6-5.1c1-3.4,1.9-6.9,2.5-10.4c0.6-3.5,1.1-7.1,1.6-10.6
		c0.5-3.6,0.9-7.1,1.5-10.7c0.3-1.8,0.6-3.6,1-5.3c0.3-1.8,1.4-3.4,1.2-5.2c-0.1-1.8-0.6-3.5-1.6-5c-0.5-0.7-1.2-1.3-2.1-1.6
		c-0.9-0.3-1.8-0.1-2.6,0.3c0.8-0.4,1.7-0.6,2.6-0.4c0.9,0.3,1.6,0.9,2.2,1.6c1.1,1.5,1.7,3.3,1.8,5.1c0,0.5,0,0.9,0,1.4l-0.1,0.7
		l-0.2,0.6c-0.3,0.9-0.6,1.7-0.7,2.6c-0.4,1.7-0.6,3.5-0.9,5.3c-0.5,3.6-0.9,7.1-1.2,10.7c-0.4,3.6-0.8,7.2-1.3,10.7
		c-0.6,3.6-1.4,7.1-2.3,10.6c-0.5,1.7-1,3.5-1.5,5.2c-0.6,1.7-1.1,3.4-1.9,5.2c-0.1,0.2-0.2,0.4-0.3,0.6l-0.1,0.1l-0.1,0.2l-0.2,0.3
		c-0.2,0.4-0.4,0.7-0.5,1c-0.2,0.7-0.1,1.6-0.1,2.5c0.1,1.8,0.4,3.5,0.6,5.3c0.2,1.9,0.1,3.9-0.8,5.7c-0.9,1.8-2.5,3.2-4.5,3.8
		l0.6-0.7c-0.5,2.8-1.3,5.5-2.1,8.2c-0.8,2.7-1.7,5.3-2.5,8c-1.8,5.3-3.6,10.5-5.5,15.8l0.1-0.4c0.2,3.9,0.3,7.8-0.1,11.7
		c-0.2,2-0.6,3.9-1,5.8c-0.2,1-0.5,1.9-0.7,2.8l-0.2,0.7l-0.3,0.8c-0.2,0.5-0.4,1-0.6,1.4c-0.2,0.5-0.5,0.9-0.7,1.3
		c-0.2,0.4-0.5,0.9-0.8,1.3c-0.5,0.8-1.1,1.6-1.6,2.4c-1.1,1.6-2.3,3.1-3.5,4.7c-2.4,3.1-4.9,6-7.5,8.9l-0.1,0.1l-0.1,0.1L348,511.3
		l-1.5,1.1l-0.8,0.5c-0.2,0.2-0.4,0.3-0.6,0.5c-0.9,0.8-1.8,1.6-2.7,2.5l-5.4,5.1L326,531.4l-0.4,0.4l-0.5,0l-9-0.3l-1.1-0.9
		c0,0,0,0-0.1-0.1c-0.1-0.1-0.1-0.2-0.2-0.3c-0.2-0.2-0.3-0.4-0.5-0.6c-0.4-0.4-0.8-0.8-1.2-1.2c-0.9-0.8-1.8-1.5-2.7-2.2
		c-1.9-1.4-3.8-2.8-5.7-4.2c-3.9-2.7-7.9-5.3-11.9-7.9l0.1,0.1c-3.2-1.6-6.3-3.2-9.3-5c-1.5-0.9-3.1-1.7-4.6-2.7
		c-1.5-0.9-3-1.8-4.5-2.8c-1.5-0.9-2.9-1.9-4.4-2.9c-1.4-1-2.9-2-4.3-3c-1.4-1.1-2.9-2.1-4.2-3.2l-2.1-1.6l-2-1.7
		c-1.4-1.1-2.6-2.4-3.9-3.6c-0.6-0.6-1.2-1.3-1.8-1.9l-0.9-1l-0.2-0.2c-0.1-0.1-0.2-0.2-0.2-0.3l-0.4-0.5l-1.7-2.1
		c-0.5-0.7-1-1.4-1.6-2.2c-0.5-0.7-1-1.5-1.5-2.2c-0.5-0.7-1-1.5-1.4-2.3c-0.9-1.5-1.7-3.1-2.4-4.7c-0.7-1.6-1.4-3.3-1.9-5
		c-0.6-1.7-1-3.4-1.4-5.2c-0.3-1.8-0.6-3.5-0.6-5.4l0-0.1l0-0.1l1.9-6.2l0.1,0.6c-0.8-1.6-1.4-3.1-2-4.6c-0.6-1.5-1.2-3.1-1.7-4.6
		c-1.1-3.1-2.1-6.2-3-9.4c-0.9-3.1-1.8-6.3-2.5-9.5l-0.3-1.2l-0.2-1.2c-0.1-0.8-0.2-1.7-0.3-2.5c-0.2-1.6-0.2-3.3-0.2-4.9
		c0-3.3,0-6.6,0.1-9.8c0.1-3.3,0.2-6.6,0.4-9.8C230.3,384.8,230.7,378.3,231.3,371.7z"/>
</g>
<g>
	<path d="M227.1,318.4c0,0-0.4,0-1,0.1c-0.7,0.1-1.6,0.4-2.7,1c-0.5,0.3-1.1,0.7-1.5,1.3c-0.2,0.3-0.4,0.6-0.6,0.9
		c-0.1,0.4-0.3,0.7-0.3,1.1c0,0.2-0.1,0.4-0.1,0.6c0,0.2,0,0.4,0,0.7c0,0.4,0,0.9,0,1.4c0,1,0,2.1,0,3.1c0,2.2,0,4.6-0.1,7.1
		c-0.1,2.5-0.2,5.1-0.5,7.9c-0.3,2.7-0.7,5.5-1.1,8.3c-0.3,2.8-0.7,5.7-0.8,8.6c-0.1,1.4-0.2,2.9-0.2,4.3c0,0.7,0,1.4,0.1,2l0,0.5
		l0.1,0.4l0.1,0.4l0.2,0.5c0.9,2.6,1.9,5.2,3,7.7c0.5,1.3,1,2.5,1.5,3.8c0.2,0.6,0.4,1.3,0.6,1.9c0,0.2,0.1,0.3,0.1,0.5
		c0,0.2,0.1,0.3,0.1,0.5c0.1,0.4,0.1,0.7,0.1,1.1c0,2.6-0.2,4.9-0.3,7.1c-0.1,2.2,0,4.1,0.3,5.8c0.3,1.7,1,3.1,2.1,3.5
		c0.5,0.3,1.1,0.3,1.6,0.3c0.5,0,0.9-0.1,1.2-0.2c0.7-0.2,1-0.3,1-0.3s-0.3,0.2-1,0.4c-0.3,0.1-0.7,0.3-1.2,0.3
		c-0.5,0.1-1.1,0.1-1.8-0.1c-0.7-0.2-1.3-0.7-1.8-1.4c-0.5-0.7-0.8-1.5-1.1-2.4c-0.5-1.8-0.7-3.8-0.8-6c-0.1-2.2,0-4.6-0.1-7
		c0-0.3,0-0.6-0.1-0.8c0-0.1,0-0.3-0.1-0.4c0-0.1-0.1-0.3-0.1-0.4c-0.2-0.6-0.4-1.2-0.7-1.8c-0.5-1.2-1-2.4-1.6-3.6
		c-1.1-2.5-2.3-5-3.3-7.9l-0.2-0.5l-0.1-0.6l-0.1-0.6l-0.1-0.6c-0.1-0.8-0.1-1.5-0.1-2.3c0-1.5,0-3,0.1-4.4c0.2-2.9,0.6-5.8,0.9-8.7
		c0.4-2.8,0.9-5.6,1.3-8.3c0.3-2.6,0.6-5.3,0.8-7.7c0.2-2.5,0.4-4.8,0.5-7c0.1-1.1,0.1-2.1,0.2-3.1c0-0.5,0-1,0.1-1.5
		c0-0.2,0.1-0.5,0.1-0.7c0.1-0.2,0.1-0.5,0.2-0.7c0.1-0.5,0.3-0.9,0.5-1.3c0.3-0.4,0.5-0.7,0.8-1c0.5-0.6,1.2-1,1.8-1.3
		c1.2-0.6,2.2-0.7,2.9-0.7C226.7,318.3,227.1,318.4,227.1,318.4z"/>
</g>
<path d="M219.9,363.5c-1-3.5-0.2-12.8,2.7-20.2c2.9-7.4-2.5-16.7,0.4-19.6c2.9-2.9,4.5,2.1,4.5,2.1s-4.5-2.5-3.5,10.3"/>
<g>
	<path d="M401.9,361.2c0,0,1.1-2.3,3.2-5.6c0.5-0.8,1.1-1.7,1.7-2.6c0.6-0.9,1.3-1.9,2.1-2.8c0.4-0.5,0.8-0.9,1.3-1.4
		c0.2-0.2,0.5-0.5,0.8-0.7c0.1-0.1,0.3-0.2,0.5-0.3c0.1-0.1,0.2-0.1,0.4-0.2c0.1,0,0.1-0.1,0.2-0.1c0.1,0,0.2,0,0.3-0.1l0.2,0l0,0
		c0,0,0,0,0.1,0l0,0l0.1,0c0,0,0.2,0,0.3,0c0.1,0,0.2,0.1,0.4,0.1c0.1,0,0.3,0.2,0.5,0.3c0.2,0.2,0.3,0.5,0.4,0.7c0,0.1,0,0.2,0,0.3
		c0,0.1,0,0.2,0,0.2c0,0.2-0.1,0.2-0.1,0.3c-0.3,0.6-0.5,0.8-0.7,1.1c-0.4,0.5-0.8,1-1.2,1.5c-0.4,0.5-0.7,0.9-0.8,1.4
		c-0.2,0.5-0.2,0.6-0.2,1.5c-0.1,1.3-0.3,2.5-0.5,3.7c-0.4,2.4-0.8,4.5-1.1,6.4c-0.3,1.9-0.6,3.4-0.8,4.5c-0.1,0.5-0.1,1-0.1,1.3
		c0,0.3,0.1,0.4,0.1,0.4s-0.1-0.1-0.2-0.4c-0.1-0.3-0.2-0.7-0.3-1.3c-0.1-1.1-0.2-2.8-0.2-4.7c0-1.9,0.2-4.2,0.4-6.5
		c0.1-1.2,0.2-2.4,0.3-3.6l0-0.4l0-0.2c0-0.1,0-0.2,0-0.3c0-0.5,0.2-0.9,0.3-1.2c0.3-0.7,0.7-1.4,1.1-1.9c0.4-0.5,0.9-1,1.2-1.5
		c0.2-0.2,0.4-0.5,0.3-0.4c0,0,0,0,0,0.1c0,0,0,0.1,0,0.1c0,0.1,0,0.1,0,0.2c0,0.1,0.1,0.4,0.3,0.5c0.1,0.1,0.3,0.2,0.3,0.2
		c0.1,0,0.1,0,0.1,0c0,0,0.1,0,0,0l-0.1,0l0,0c0.1,0,0,0,0.1,0l0,0l0,0c0.2,0-0.1,0-0.3,0.2c-0.2,0.1-0.4,0.3-0.6,0.5
		c-0.4,0.4-0.8,0.8-1.2,1.2c-1.6,1.7-3.1,3.4-4.3,4.8c-1.3,1.4-2.3,2.6-3.1,3.4C402.3,360.8,401.9,361.2,401.9,361.2z"/>
</g>
<g>
	<path d="M253.8,456.7c0,0-0.4,0-1.1-0.1c-0.7-0.1-1.6-0.3-2.7-0.7c-0.6-0.2-1.1-0.4-1.8-0.7c-0.6-0.3-1.3-0.6-1.9-1
		c-0.6-0.4-1.3-0.8-1.9-1.3c-0.6-0.4-1.2-1-1.8-1.5c-0.6-0.5-1.1-1.2-1.6-1.7c-0.5-0.6-0.9-1.2-1.3-1.8c-0.4-0.6-0.7-1.3-1.1-1.8
		c-0.4-0.6-0.5-1.2-0.8-1.7c-0.2-0.5-0.4-1-0.5-1.5c-0.1-0.5-0.2-0.9-0.3-1.2c-0.2-0.7-0.2-1-0.2-1s0.2,0.3,0.5,1
		c0.1,0.3,0.3,0.7,0.5,1.1c0.2,0.4,0.5,0.9,0.7,1.4c0.3,0.5,0.5,1.1,0.9,1.6c0.4,0.5,0.7,1.1,1.1,1.7c0.4,0.5,0.9,1.1,1.4,1.7
		c0.5,0.5,1,1.1,1.5,1.6c0.5,0.5,1.1,1,1.7,1.5c0.6,0.5,1.2,0.9,1.7,1.3c0.6,0.4,1.2,0.7,1.7,1.1c0.6,0.3,1.1,0.6,1.6,0.8
		C252.3,456.2,253.8,456.7,253.8,456.7z"/>
</g>
<g>
	<path d="M390.4,433.5c0,0-0.1,0.8-0.4,2.2c-0.2,0.7-0.4,1.5-0.6,2.5c-0.3,0.9-0.6,2-1.1,3.1c-0.2,0.6-0.5,1.1-0.8,1.7
		c-0.3,0.6-0.6,1.2-0.9,1.8c-0.3,0.6-0.7,1.2-1.1,1.8c-0.4,0.6-0.8,1.3-1.3,1.8c-0.9,1.2-1.9,2.4-3.1,3.6c-0.6,0.5-1.2,1.1-1.8,1.6
		l-1.9,1.5c-1.4,0.9-2.7,1.8-4.1,2.6c-1.4,0.8-2.7,1.6-4,2.3c-2.6,1.5-5,2.9-7.1,4.2c-2.1,1.2-3.8,2.3-5,3c-1.2,0.7-1.9,1.1-1.9,1.1
		s0.6-0.5,1.7-1.3c1.1-0.8,2.7-2,4.7-3.4c2-1.3,4.3-2.9,6.9-4.5c1.3-0.8,2.6-1.6,3.9-2.4c1.4-0.8,2.7-1.7,4-2.5l1.9-1.4
		c0.6-0.5,1.2-1.1,1.7-1.6c1.1-1.1,2.1-2.2,3-3.4c0.5-0.6,0.9-1.2,1.3-1.7c0.4-0.6,0.8-1.2,1.1-1.7c0.4-0.6,0.7-1.1,1-1.7
		c0.3-0.6,0.6-1.1,0.8-1.7c0.3-0.5,0.5-1.1,0.7-1.6c0.2-0.5,0.4-1,0.6-1.4c0.4-0.9,0.6-1.7,0.8-2.4
		C390.2,434.3,390.4,433.5,390.4,433.5z"/>
</g>
<g>
	<path d="M344.7,366.5c0,0,0.3,0.1,0.9,0.4c0.6,0.2,1.4,0.6,2.3,1c1.9,0.9,4.3,2.1,6.7,3.4c1.2,0.7,2.4,1.3,3.5,1.9
		c1.1,0.6,2.1,1.2,3,1.7c0.9,0.5,1.6,0.9,2.2,1.2c0.5,0.3,0.8,0.5,0.8,0.5s-0.4,0-1,0c-0.3,0-0.7,0-1.1-0.1
		c-0.4-0.1-0.9-0.1-1.4-0.3c-1-0.2-2.2-0.6-3.5-1.1c-1.2-0.5-2.5-1.1-3.7-1.8c-2.5-1.4-4.7-3-6.3-4.4c-0.8-0.7-1.4-1.3-1.8-1.8
		C344.9,366.8,344.7,366.5,344.7,366.5z"/>
</g>
<g>
	<path d="M301.1,364c0,0-0.2,0.2-0.6,0.6c-0.4,0.4-1,0.9-1.9,1.4c-1.6,1-3.9,2.1-6.3,2.8c-1.2,0.3-2.5,0.6-3.6,0.7
		c-0.6,0.1-1.2,0.1-1.7,0.1c-0.5,0-1.1,0-1.5,0c-0.9,0-1.7-0.2-2.3-0.3c-0.5-0.1-0.9-0.2-0.9-0.2s0.3-0.1,0.8-0.3
		c0.3-0.1,0.6-0.2,0.9-0.3c0.4-0.1,0.8-0.2,1.2-0.3c1.7-0.5,4.1-1.1,6.4-1.7c1.2-0.3,2.3-0.6,3.4-0.9c1.1-0.3,2.1-0.6,3-0.8
		c0.9-0.2,1.7-0.4,2.2-0.5C300.8,364.1,301.1,364,301.1,364z"/>
</g>
<g>
	<path d="M374.3,413.1c0,0,0.1,0,0.4,0c0.2,0,0.6-0.1,1.1-0.2c0.4-0.1,1-0.2,1.6-0.4c0.3-0.1,0.6-0.2,1-0.3c0.3-0.1,0.7-0.2,1-0.4
		c0.4-0.1,0.7-0.3,1.1-0.5c0.4-0.2,0.8-0.3,1.1-0.5c0.4-0.2,0.8-0.4,1.1-0.6c0.4-0.2,0.7-0.5,1.1-0.8c0.8-0.5,1.4-1.2,2.2-1.8
		c0.3-0.3,0.7-0.7,1-1.1c0.3-0.4,0.7-0.7,1-1.1c0.6-0.8,1.2-1.5,1.7-2.4c0.5-0.9,1.1-1.6,1.4-2.5c0.4-0.9,0.8-1.7,1.2-2.5
		c0.3-0.8,0.6-1.6,0.9-2.3c0.3-0.7,0.5-1.4,0.7-2c0.2-0.6,0.4-1.1,0.5-1.6c0.3-0.9,0.5-1.4,0.5-1.4s0,0.5,0,1.5c0,0.5,0,1-0.1,1.7
		c0,0.7-0.1,1.4-0.3,2.2c-0.1,0.8-0.3,1.7-0.5,2.6c-0.2,0.9-0.6,1.8-0.9,2.8c-0.3,1-0.8,1.9-1.3,2.9c-0.5,1-1.2,1.8-1.8,2.7
		c-0.3,0.5-0.7,0.8-1.1,1.2c-0.4,0.4-0.8,0.8-1.2,1.2c-0.9,0.7-1.7,1.4-2.7,1.8c-0.5,0.2-0.9,0.5-1.4,0.7c-0.5,0.2-0.9,0.4-1.4,0.5
		c-0.4,0.2-0.9,0.3-1.3,0.4c-0.4,0.1-0.8,0.2-1.3,0.3c-0.4,0.1-0.8,0.1-1.2,0.2c-0.4,0-0.7,0-1.1,0c-0.7,0-1.2,0-1.7-0.1
		C374.8,413.3,374.3,413.1,374.3,413.1z"/>
</g>
<g>
	<path d="M251.2,399.1c0,0,0.3,0,0.7,0c0.5,0,1.1,0,1.9,0c1.5,0,3.5,0.1,5.4,0.1c0.5,0,1,0,1.5,0c0.5,0,1,0,1.4,0c0.5,0,0.9,0,1.3,0
		c0.4,0,0.8,0,1.2,0c0.4,0,0.7,0,1,0c0.3,0,0.6,0,0.8,0c0.5,0,0.7,0.1,0.7,0.1s-0.2,0.2-0.6,0.4c-0.4,0.2-1,0.6-1.7,0.9
		c-0.4,0.1-0.8,0.3-1.2,0.4c-0.4,0.1-0.9,0.3-1.4,0.3c-0.5,0.1-1,0.2-1.5,0.2c-0.5,0-1.1,0.1-1.6,0c-1.1,0-2.1-0.2-3.1-0.4
		c-1-0.2-1.9-0.5-2.6-0.9c-0.7-0.3-1.3-0.7-1.7-0.9C251.4,399.3,251.2,399.1,251.2,399.1z"/>
</g>
<path d="M235.3,463.8c0,0-27.8,24.4-37.4,30.6c-9.6,6.2-62.4,40.5-89.9,40.2s-51.3,8-57.1,13.9c-5.9,5.9-29,32.1-47.3,81.2
	c-18.2,49.1-28.1,71.1-28.1,71.1L-58.2,790h746.3c0,0-28.2-120.1-57.6-179.6c-29.4-59.5-49.2-76.7-58.5-86.3
	c-9.3-9.6-46-11.8-46-11.8s-14.4-7-40-7.4c-25.6-0.3-78-23.3-97.2-42.8l-2.2,12.5c0,0,2.9,18.2-6.4,33.2s-18.2,38.4-40.3,72.9
	l1,36.1l-9.3-32.9c0,0-46.4-36.4-54-43.2s-48.9-49.6-46.4-65.5C233.9,467.3,235.3,463.8,235.3,463.8z"/>
<g>
	<path d="M233.9,466c0,0,0-0.2,0-0.6c0-0.4,0-0.9,0.1-1.4c0.1-1.2,0.5-2.7,1.1-4.1c0.6-1.4,1.3-2.7,2-3.7c0.4-0.5,0.7-0.8,0.9-1.1
		c0.3-0.3,0.4-0.4,0.4-0.4s0,0.2,0,0.6c0,0.4,0,0.9-0.1,1.4c-0.1,1.2-0.5,2.7-1.1,4.1c-0.6,1.4-1.3,2.7-2,3.7
		c-0.4,0.5-0.7,0.8-0.9,1.1C234,465.9,233.9,466,233.9,466z"/>
</g>
<g>
	<path d="M296.2,559.9c0,0,0.1-0.5,0.5-1.4c0.3-0.9,0.8-2.2,1.4-3.7c0.6-1.5,1.5-3.2,2.4-5c0.5-0.9,1-1.8,1.5-2.8
		c0.6-0.9,1.1-1.9,1.7-2.8c1.2-1.8,2.5-3.6,3.8-5.2c0.6-0.8,1.3-1.5,2-2.2c0.6-0.7,1.3-1.3,1.9-1.9c0.3-0.3,0.6-0.6,0.9-0.8
		c0.3-0.2,0.6-0.4,0.9-0.6c0.5-0.4,1-0.7,1.5-1c0.9-0.5,1.3-0.7,1.3-0.7s-0.4,0.4-1,1.1c-0.3,0.3-0.7,0.8-1.1,1.3
		c-0.4,0.5-0.9,1.1-1.4,1.7c-1,1.3-2.1,2.8-3.2,4.4c-0.6,0.8-1.1,1.7-1.7,2.6c-0.6,0.9-1.2,1.8-1.7,2.7c-0.6,0.9-1.2,1.8-1.7,2.7
		c-0.6,0.9-1.1,1.8-1.7,2.6c-0.5,0.9-1.1,1.7-1.6,2.4c-0.5,0.8-1,1.5-1.5,2.2C297.5,558.1,296.2,559.9,296.2,559.9z"/>
</g>
<g>
	<path d="M327.4,530.2c0,0,0.6-0.1,1.8-0.2c0.6,0,1.3,0,2.1,0.1c0.8,0.1,1.7,0.2,2.6,0.5c0.9,0.3,2,0.5,3,1c1.1,0.4,2.1,0.9,3.2,1.5
		c0.5,0.3,1.1,0.7,1.6,1c0.5,0.3,1.1,0.7,1.6,1.1c1,0.8,2.1,1.6,3,2.5c0.9,0.9,1.9,1.8,2.7,2.8c0.8,1,1.6,2,2.3,3
		c0.7,1,1.4,2,1.9,2.9c0.5,1,1,1.9,1.5,2.8c0.2,0.4,0.5,0.8,0.6,1.2c0.2,0.4,0.3,0.8,0.5,1.2c0.3,0.7,0.5,1.4,0.7,1.9
		c0.4,1.1,0.6,1.7,0.6,1.7s-0.4-0.5-1-1.4c-0.3-0.5-0.7-1-1.1-1.7c-0.4-0.6-0.9-1.4-1.5-2.1c-0.6-0.8-1.2-1.6-1.8-2.5
		c-0.6-0.9-1.4-1.7-2.1-2.6c-0.7-1-1.6-1.8-2.4-2.7c-0.4-0.4-0.8-0.9-1.2-1.4l-1.3-1.3c-0.8-0.9-1.8-1.6-2.7-2.4
		c-0.9-0.8-1.9-1.5-2.9-2.1c-1-0.6-1.9-1.2-2.9-1.7c-0.9-0.5-1.8-0.9-2.7-1.3c-0.4-0.2-0.9-0.3-1.2-0.5c-0.4-0.2-0.8-0.3-1.1-0.4
		c-0.7-0.2-1.4-0.4-1.9-0.5c-0.5-0.1-1-0.2-1.3-0.3C327.5,530.2,327.4,530.2,327.4,530.2z"/>
</g>
<g>
	<path d="M340.6,579.3c0,0-0.1-0.5-0.1-1.5c0-0.5-0.1-1,0-1.7c0-0.7,0.1-1.4,0.1-2.2c0.2-1.6,0.5-3.5,1-5.5c0.3-1,0.6-2,0.9-3
		c0.3-1,0.7-2,1.1-3c0.4-1,0.8-2,1.3-3c0.4-1,0.9-1.9,1.4-2.8c0.5-0.9,1-1.7,1.4-2.5c0.5-0.8,1-1.5,1.4-2.2c0.9-1.3,1.7-2.4,2.3-3.2
		c0.6-0.7,1-1.1,1-1.1s-0.2,0.5-0.5,1.4c-0.4,0.9-0.9,2.1-1.5,3.6c-0.6,1.5-1.3,3.2-2.1,5c-0.4,0.9-0.8,1.9-1.2,2.8
		c-0.4,1-0.8,1.9-1.2,2.9c-0.4,1-0.8,2-1.1,2.9c-0.3,1-0.7,1.9-1.1,2.9c-0.3,0.9-0.7,1.8-0.9,2.7c-0.2,0.9-0.5,1.7-0.8,2.4
		c-0.2,0.8-0.4,1.5-0.6,2.1c-0.2,0.6-0.3,1.2-0.4,1.6C340.8,578.8,340.6,579.3,340.6,579.3z"/>
</g>
<g>
	<path d="M326.4,583.3c0,0,0.2-0.2,0.6-0.5c0.4-0.3,1-0.6,1.8-1c0.8-0.4,1.7-0.7,2.7-1c0.5-0.1,1-0.3,1.6-0.4
		c0.5-0.1,1.1-0.2,1.7-0.2c0.6-0.1,1.1-0.1,1.7,0c0.6,0,1.1,0.1,1.6,0.1c0.5,0.1,1,0.2,1.5,0.3c0.5,0.1,0.9,0.3,1.3,0.5
		c0.4,0.2,0.7,0.4,1,0.6c0.3,0.2,0.5,0.4,0.7,0.6c0.4,0.4,0.5,0.6,0.5,0.6s-0.3,0-0.8-0.1c-0.2,0-0.5-0.1-0.8-0.1
		c-0.3,0-0.7-0.1-1-0.1c-0.4,0-0.8,0-1.2,0c-0.4,0-0.9,0-1.4,0c-0.5,0-1,0-1.5,0.1c-0.5,0-1,0-1.5,0.1c-1,0.1-2,0.2-3,0.3
		c-1,0.1-1.9,0.2-2.7,0.2c-0.8,0.1-1.5,0.1-2,0.1C326.7,583.3,326.4,583.3,326.4,583.3z"/>
</g>
<g>
	<defs>
		<path id="SVGID_5_" d="M307.7,566.3c-0.6-9.6-6-15.4-6-15.4l10.2-14.8l22.7-4.3l10.2,5.7l8.3,10.8l-8.5,15.1l-4.5,18.2l-12.8,0.8
			l-18.2-12.7"/>
	</defs>
	<clipPath id="SVGID_6_">
		<use xlink:href="#SVGID_5_"  style="overflow:visible;"/>
	</clipPath>
	<g class="st3">
		<ellipse cx="319.3" cy="553.5" rx="4.6" ry="2.9"/>
		<ellipse class="st4" cx="319.6" cy="553.5" rx="8.6" ry="5.7"/>
		<ellipse cx="315.3" cy="534.4" rx="4.6" ry="2.9"/>
		<ellipse class="st4" cx="315.6" cy="534.4" rx="8.6" ry="5.7"/>
		<ellipse cx="331.7" cy="541.2" rx="4.6" ry="2.9"/>
		<ellipse class="st4" cx="332" cy="541.2" rx="8.6" ry="5.7"/>
		<ellipse cx="334.9" cy="560.9" rx="4.4" ry="2.9"/>
		<ellipse class="st5" cx="335.2" cy="560.9" rx="8.2" ry="5.7"/>
		<ellipse cx="346.5" cy="550" rx="4.4" ry="2.9"/>
		<ellipse class="st5" cx="346.8" cy="550" rx="8.2" ry="5.7"/>
		<ellipse cx="323.4" cy="574.4" rx="4.4" ry="2.9"/>
		<ellipse class="st5" cx="323.6" cy="574.4" rx="8.2" ry="5.7"/>
		<ellipse cx="336" cy="583" rx="4.4" ry="2.9"/>
		<ellipse class="st5" cx="336.3" cy="583" rx="8.2" ry="5.7"/>
		<ellipse cx="307.6" cy="567.9" rx="4.4" ry="2.9"/>
		<ellipse class="st5" cx="307.9" cy="567.9" rx="8.2" ry="5.7"/>
		<ellipse cx="305.7" cy="547.8" rx="3.4" ry="2.9"/>
		<ellipse class="st6" cx="305.9" cy="547.8" rx="6.4" ry="5.7"/>
	</g>
</g>
<g>
	<path d="M301.7,550.1c0,0,0.2,0.2,0.6,0.6c0.4,0.4,0.9,1,1.5,1.7c1.1,1.5,2.4,3.6,3.4,5.8c0.5,1.1,0.9,2.3,1.2,3.4
		c0.3,1.1,0.5,2.2,0.5,3.2c0.1,0.5,0,0.9,0,1.3c0,0.4,0,0.7-0.1,1c-0.1,0.6-0.2,0.9-0.2,0.9s-0.1-0.3-0.3-0.8
		c-0.1-0.3-0.2-0.5-0.4-0.9c-0.1-0.3-0.3-0.7-0.5-1.1c-0.7-1.6-1.7-3.8-2.6-6c-0.5-1.1-0.9-2.2-1.3-3.2c-0.4-1-0.8-2-1-2.9
		c-0.3-0.9-0.5-1.6-0.6-2.1C301.8,550.4,301.7,550.1,301.7,550.1z"/>
</g>
</svg>
